M48
; DRILL file {KiCad (5.99.0-1129-g103b0c18d)} date Sat Mar 21 11:47:14 2020
; FORMAT={-:-/ absolute / inch / decimal}
; #@! TF.CreationDate,2020-03-21T11:47:14+02:00
; #@! TF.GenerationSoftware,Kicad,Pcbnew,(5.99.0-1129-g103b0c18d)
; #@! TF.FileFunction,Plated,1,2,PTH
FMAT,2
INCH
T1C0.0354
T2C0.0394
T3C0.0433
T4C0.0472
T5C0.0551
%
G90
G05
T1
X2.525Y-2.875
X2.625Y-2.875
T2
X2.9Y-2.55
X3.2Y-2.55
X2.9Y-2.45
X3.2Y-2.45
X2.6Y-2.3
X2.8Y-2.3
X2.6Y-2.55
X2.8Y-2.55
X2.9Y-2.25
X3.2Y-2.25
X2.9Y-2.35
X3.2Y-2.35
X2.95Y-2.1
X3.05Y-2.1
X3.15Y-2.1
X2.6Y-2.4
X2.8Y-2.4
X2.5Y-2.425
X2.5Y-2.725
X2.675Y-2.1
X2.775Y-2.1
T3
X2.75Y-2.875
X2.85Y-2.875
X2.95Y-2.875
X3.05Y-2.875
X2.5Y-2.1
X2.5Y-2.2
T4
X3.175Y-2.875
X3.2175Y-2.6675
T5
X2.7Y-2.7
X2.9Y-2.7
X3.1Y-2.7
T0
M30
