M48
; DRILL file {KiCad (5.99.0-1200-g9ab2fcda7)} date Thu Apr  2 19:41:40 2020
; FORMAT={-:-/ absolute / inch / decimal}
; #@! TF.CreationDate,2020-04-02T19:41:40+03:00
; #@! TF.GenerationSoftware,Kicad,Pcbnew,(5.99.0-1200-g9ab2fcda7)
; #@! TF.FileFunction,Plated,1,2,PTH
FMAT,2
INCH
T1C0.0157
T2C0.0315
T3C0.0354
T4C0.0394
T5C0.0433
T6C0.0472
T7C0.0551
%
G90
G05
T1
X3.064Y-2.177
T2
X2.82Y-2.3906
X2.82Y-2.5875
X2.69Y-2.3906
X2.69Y-2.5875
T3
X2.9Y-2.8325
X2.9Y-2.9325
T4
X2.475Y-2.72
X2.475Y-3.02
X2.54Y-2.3775
X2.54Y-2.4775
X2.54Y-2.5775
X2.98Y-2.29
X3.28Y-2.29
X2.98Y-2.09
X3.28Y-2.09
X2.98Y-2.19
X3.28Y-2.19
X2.58Y-2.16
X2.88Y-2.16
X3.0275Y-2.87
X3.1275Y-2.87
X2.672Y-2.87
X2.772Y-2.87
X2.58Y-2.28
X2.88Y-2.28
X2.575Y-2.72
X2.575Y-3.02
X2.94Y-2.385
X3.24Y-2.385
X2.94Y-2.485
X3.24Y-2.485
X2.94Y-2.58
X3.24Y-2.58
T5
X3.08Y-1.99
X3.18Y-1.99
X2.75Y-3.025
X2.85Y-3.025
X2.95Y-3.025
X3.05Y-3.025
T6
X3.2325Y-2.97
X3.2325Y-2.865
X2.58Y-2.035
X2.68Y-2.035
X2.78Y-2.035
T7
X2.7Y-2.7
X2.9Y-2.7
X3.1Y-2.7
T0
M30
