G04 #@! TF.GenerationSoftware,KiCad,Pcbnew,(5.99.0-1200-g9ab2fcda7)*
G04 #@! TF.CreationDate,2020-04-02T19:41:38+03:00*
G04 #@! TF.ProjectId,superduro,73757065-7264-4757-926f-2e6b69636164,rev?*
G04 #@! TF.SameCoordinates,Original*
G04 #@! TF.FileFunction,Legend,Bot*
G04 #@! TF.FilePolarity,Positive*
%FSLAX46Y46*%
G04 Gerber Fmt 4.6, Leading zero omitted, Abs format (unit mm)*
G04 Created by KiCad (PCBNEW (5.99.0-1200-g9ab2fcda7)) date 2020-04-02 19:41:38*
%MOMM*%
%LPD*%
G01*
G04 APERTURE LIST*
%ADD10C,0.150000*%
%ADD11C,0.100000*%
%ADD12C,0.080000*%
%ADD13C,0.127000*%
%ADD14C,0.120000*%
%ADD15C,0.152400*%
%ADD16O,2.032400X2.032400*%
%ADD17C,1.702000*%
%ADD18O,2.102000X2.102000*%
%ADD19O,2.134000X2.134000*%
%ADD20O,2.642000X2.642000*%
%ADD21C,1.902000*%
G04 APERTURE END LIST*
D10*
X62262609Y-64789828D02*
X62200704Y-64532685D01*
X62200704Y-64104114D01*
X62262609Y-63932685D01*
X62324514Y-63846971D01*
X62448323Y-63761257D01*
X62572133Y-63761257D01*
X62695942Y-63846971D01*
X62757847Y-63932685D01*
X62819752Y-64104114D01*
X62881657Y-64446971D01*
X62943561Y-64618400D01*
X63005466Y-64704114D01*
X63129276Y-64789828D01*
X63253085Y-64789828D01*
X63376895Y-64704114D01*
X63438800Y-64618400D01*
X63500704Y-64446971D01*
X63500704Y-64018400D01*
X63438800Y-63761257D01*
X63067371Y-62218400D02*
X62200704Y-62218400D01*
X63067371Y-62989828D02*
X62386419Y-62989828D01*
X62262609Y-62904114D01*
X62200704Y-62732685D01*
X62200704Y-62475542D01*
X62262609Y-62304114D01*
X62324514Y-62218400D01*
X63067371Y-61361257D02*
X61767371Y-61361257D01*
X63005466Y-61361257D02*
X63067371Y-61189828D01*
X63067371Y-60846971D01*
X63005466Y-60675542D01*
X62943561Y-60589828D01*
X62819752Y-60504114D01*
X62448323Y-60504114D01*
X62324514Y-60589828D01*
X62262609Y-60675542D01*
X62200704Y-60846971D01*
X62200704Y-61189828D01*
X62262609Y-61361257D01*
X62262609Y-59046971D02*
X62200704Y-59218399D01*
X62200704Y-59561257D01*
X62262609Y-59732685D01*
X62386419Y-59818399D01*
X62881657Y-59818399D01*
X63005466Y-59732685D01*
X63067371Y-59561257D01*
X63067371Y-59218399D01*
X63005466Y-59046971D01*
X62881657Y-58961257D01*
X62757847Y-58961257D01*
X62634038Y-59818399D01*
X62200704Y-58189828D02*
X63067371Y-58189828D01*
X62819752Y-58189828D02*
X62943561Y-58104114D01*
X63005466Y-58018399D01*
X63067371Y-57846971D01*
X63067371Y-57675542D01*
X62200704Y-56304114D02*
X63500704Y-56304114D01*
X62262609Y-56304114D02*
X62200704Y-56475542D01*
X62200704Y-56818399D01*
X62262609Y-56989828D01*
X62324514Y-57075542D01*
X62448323Y-57161257D01*
X62819752Y-57161257D01*
X62943561Y-57075542D01*
X63005466Y-56989828D01*
X63067371Y-56818399D01*
X63067371Y-56475542D01*
X63005466Y-56304114D01*
X63067371Y-54675542D02*
X62200704Y-54675542D01*
X63067371Y-55446971D02*
X62386419Y-55446971D01*
X62262609Y-55361257D01*
X62200704Y-55189828D01*
X62200704Y-54932685D01*
X62262609Y-54761257D01*
X62324514Y-54675542D01*
X62200704Y-53818399D02*
X63067371Y-53818399D01*
X62819752Y-53818399D02*
X62943561Y-53732685D01*
X63005466Y-53646971D01*
X63067371Y-53475542D01*
X63067371Y-53304114D01*
X62200704Y-52446971D02*
X62262609Y-52618399D01*
X62324514Y-52704114D01*
X62448323Y-52789828D01*
X62819752Y-52789828D01*
X62943561Y-52704114D01*
X63005466Y-52618399D01*
X63067371Y-52446971D01*
X63067371Y-52189828D01*
X63005466Y-52018399D01*
X62943561Y-51932685D01*
X62819752Y-51846971D01*
X62448323Y-51846971D01*
X62324514Y-51932685D01*
X62262609Y-52018399D01*
X62200704Y-52189828D01*
X62200704Y-52446971D01*
D11*
X65722419Y-49899857D02*
X65608133Y-49928428D01*
X65417657Y-49928428D01*
X65341466Y-49899857D01*
X65303371Y-49871285D01*
X65265276Y-49814142D01*
X65265276Y-49757000D01*
X65303371Y-49699857D01*
X65341466Y-49671285D01*
X65417657Y-49642714D01*
X65570038Y-49614142D01*
X65646228Y-49585571D01*
X65684323Y-49557000D01*
X65722419Y-49499857D01*
X65722419Y-49442714D01*
X65684323Y-49385571D01*
X65646228Y-49357000D01*
X65570038Y-49328428D01*
X65379561Y-49328428D01*
X65265276Y-49357000D01*
X64922419Y-49928428D02*
X64922419Y-49328428D01*
X64922419Y-49614142D02*
X64465276Y-49614142D01*
X64465276Y-49928428D02*
X64465276Y-49328428D01*
X71665980Y-49928428D02*
X71665980Y-49328428D01*
X71665980Y-49614142D02*
X71208838Y-49614142D01*
X71208838Y-49928428D02*
X71208838Y-49328428D01*
X70675504Y-49328428D02*
X70523123Y-49328428D01*
X70446933Y-49357000D01*
X70370742Y-49414142D01*
X70332647Y-49528428D01*
X70332647Y-49728428D01*
X70370742Y-49842714D01*
X70446933Y-49899857D01*
X70523123Y-49928428D01*
X70675504Y-49928428D01*
X70751695Y-49899857D01*
X70827885Y-49842714D01*
X70865980Y-49728428D01*
X70865980Y-49528428D01*
X70827885Y-49414142D01*
X70751695Y-49357000D01*
X70675504Y-49328428D01*
X70104076Y-49328428D02*
X69646933Y-49328428D01*
X69875504Y-49928428D02*
X69875504Y-49328428D01*
D12*
X83822400Y-61430066D02*
X84389066Y-61430066D01*
X84455733Y-61396733D01*
X84489066Y-61363400D01*
X84522400Y-61296733D01*
X84522400Y-61196733D01*
X84489066Y-61130066D01*
X84255733Y-61430066D02*
X84289066Y-61363400D01*
X84289066Y-61230066D01*
X84255733Y-61163400D01*
X84222400Y-61130066D01*
X84155733Y-61096733D01*
X83955733Y-61096733D01*
X83889066Y-61130066D01*
X83855733Y-61163400D01*
X83822400Y-61230066D01*
X83822400Y-61363400D01*
X83855733Y-61430066D01*
X84289066Y-61763400D02*
X83822400Y-61763400D01*
X83589066Y-61763400D02*
X83622400Y-61730066D01*
X83655733Y-61763400D01*
X83622400Y-61796733D01*
X83589066Y-61763400D01*
X83655733Y-61763400D01*
X83822400Y-61996733D02*
X83822400Y-62263400D01*
X83589066Y-62096733D02*
X84189066Y-62096733D01*
X84255733Y-62130066D01*
X84289066Y-62196733D01*
X84289066Y-62263400D01*
X84289066Y-62496733D02*
X83589066Y-62496733D01*
X84289066Y-62796733D02*
X83922400Y-62796733D01*
X83855733Y-62763400D01*
X83822400Y-62696733D01*
X83822400Y-62596733D01*
X83855733Y-62530066D01*
X83889066Y-62496733D01*
X83822400Y-63430066D02*
X84289066Y-63430066D01*
X83822400Y-63130066D02*
X84189066Y-63130066D01*
X84255733Y-63163400D01*
X84289066Y-63230066D01*
X84289066Y-63330066D01*
X84255733Y-63396733D01*
X84222400Y-63430066D01*
X84289066Y-63763400D02*
X83589066Y-63763400D01*
X83855733Y-63763400D02*
X83822400Y-63830066D01*
X83822400Y-63963400D01*
X83855733Y-64030066D01*
X83889066Y-64063400D01*
X83955733Y-64096733D01*
X84155733Y-64096733D01*
X84222400Y-64063400D01*
X84255733Y-64030066D01*
X84289066Y-63963400D01*
X84289066Y-63830066D01*
X84255733Y-63763400D01*
X84222400Y-64396733D02*
X84255733Y-64430066D01*
X84289066Y-64396733D01*
X84255733Y-64363400D01*
X84222400Y-64396733D01*
X84289066Y-64396733D01*
X84255733Y-65030066D02*
X84289066Y-64963400D01*
X84289066Y-64830066D01*
X84255733Y-64763400D01*
X84222400Y-64730066D01*
X84155733Y-64696733D01*
X83955733Y-64696733D01*
X83889066Y-64730066D01*
X83855733Y-64763400D01*
X83822400Y-64830066D01*
X83822400Y-64963400D01*
X83855733Y-65030066D01*
X84289066Y-65430066D02*
X84255733Y-65363400D01*
X84222400Y-65330066D01*
X84155733Y-65296733D01*
X83955733Y-65296733D01*
X83889066Y-65330066D01*
X83855733Y-65363400D01*
X83822400Y-65430066D01*
X83822400Y-65530066D01*
X83855733Y-65596733D01*
X83889066Y-65630066D01*
X83955733Y-65663400D01*
X84155733Y-65663400D01*
X84222400Y-65630066D01*
X84255733Y-65596733D01*
X84289066Y-65530066D01*
X84289066Y-65430066D01*
X84289066Y-65963400D02*
X83822400Y-65963400D01*
X83889066Y-65963400D02*
X83855733Y-65996733D01*
X83822400Y-66063400D01*
X83822400Y-66163400D01*
X83855733Y-66230066D01*
X83922400Y-66263400D01*
X84289066Y-66263400D01*
X83922400Y-66263400D02*
X83855733Y-66296733D01*
X83822400Y-66363400D01*
X83822400Y-66463400D01*
X83855733Y-66530066D01*
X83922400Y-66563400D01*
X84289066Y-66563400D01*
X83555733Y-67396733D02*
X84455733Y-66796733D01*
X84289066Y-67630066D02*
X83822400Y-67630066D01*
X83955733Y-67630066D02*
X83889066Y-67663400D01*
X83855733Y-67696733D01*
X83822400Y-67763400D01*
X83822400Y-67830066D01*
X84289066Y-68163400D02*
X84255733Y-68096733D01*
X84222400Y-68063400D01*
X84155733Y-68030066D01*
X83955733Y-68030066D01*
X83889066Y-68063400D01*
X83855733Y-68096733D01*
X83822400Y-68163400D01*
X83822400Y-68263400D01*
X83855733Y-68330066D01*
X83889066Y-68363400D01*
X83955733Y-68396733D01*
X84155733Y-68396733D01*
X84222400Y-68363400D01*
X84255733Y-68330066D01*
X84289066Y-68263400D01*
X84289066Y-68163400D01*
X84255733Y-68996733D02*
X84289066Y-68930066D01*
X84289066Y-68796733D01*
X84255733Y-68730066D01*
X84222400Y-68696733D01*
X84155733Y-68663400D01*
X83955733Y-68663400D01*
X83889066Y-68696733D01*
X83855733Y-68730066D01*
X83822400Y-68796733D01*
X83822400Y-68930066D01*
X83855733Y-68996733D01*
X84289066Y-69296733D02*
X83589066Y-69296733D01*
X84022400Y-69363400D02*
X84289066Y-69563400D01*
X83822400Y-69563400D02*
X84089066Y-69296733D01*
X84289066Y-69963400D02*
X84255733Y-69896733D01*
X84222400Y-69863400D01*
X84155733Y-69830066D01*
X83955733Y-69830066D01*
X83889066Y-69863400D01*
X83855733Y-69896733D01*
X83822400Y-69963400D01*
X83822400Y-70063400D01*
X83855733Y-70130066D01*
X83889066Y-70163400D01*
X83955733Y-70196733D01*
X84155733Y-70196733D01*
X84222400Y-70163400D01*
X84255733Y-70130066D01*
X84289066Y-70063400D01*
X84289066Y-69963400D01*
X84289066Y-70596733D02*
X84255733Y-70530066D01*
X84189066Y-70496733D01*
X83589066Y-70496733D01*
X84289066Y-71163400D02*
X83922400Y-71163400D01*
X83855733Y-71130066D01*
X83822400Y-71063400D01*
X83822400Y-70930066D01*
X83855733Y-70863400D01*
X84255733Y-71163400D02*
X84289066Y-71096733D01*
X84289066Y-70930066D01*
X84255733Y-70863400D01*
X84189066Y-70830066D01*
X84122400Y-70830066D01*
X84055733Y-70863400D01*
X84022400Y-70930066D01*
X84022400Y-71096733D01*
X83989066Y-71163400D01*
X83555733Y-71996733D02*
X84455733Y-71396733D01*
X84255733Y-72196733D02*
X84289066Y-72263400D01*
X84289066Y-72396733D01*
X84255733Y-72463400D01*
X84189066Y-72496733D01*
X84155733Y-72496733D01*
X84089066Y-72463400D01*
X84055733Y-72396733D01*
X84055733Y-72296733D01*
X84022400Y-72230066D01*
X83955733Y-72196733D01*
X83922400Y-72196733D01*
X83855733Y-72230066D01*
X83822400Y-72296733D01*
X83822400Y-72396733D01*
X83855733Y-72463400D01*
X83822400Y-73096733D02*
X84289066Y-73096733D01*
X83822400Y-72796733D02*
X84189066Y-72796733D01*
X84255733Y-72830066D01*
X84289066Y-72896733D01*
X84289066Y-72996733D01*
X84255733Y-73063400D01*
X84222400Y-73096733D01*
X83822400Y-73430066D02*
X84522400Y-73430066D01*
X83855733Y-73430066D02*
X83822400Y-73496733D01*
X83822400Y-73630066D01*
X83855733Y-73696733D01*
X83889066Y-73730066D01*
X83955733Y-73763400D01*
X84155733Y-73763400D01*
X84222400Y-73730066D01*
X84255733Y-73696733D01*
X84289066Y-73630066D01*
X84289066Y-73496733D01*
X84255733Y-73430066D01*
X84255733Y-74330066D02*
X84289066Y-74263400D01*
X84289066Y-74130066D01*
X84255733Y-74063400D01*
X84189066Y-74030066D01*
X83922400Y-74030066D01*
X83855733Y-74063400D01*
X83822400Y-74130066D01*
X83822400Y-74263400D01*
X83855733Y-74330066D01*
X83922400Y-74363400D01*
X83989066Y-74363400D01*
X84055733Y-74030066D01*
X84289066Y-74663400D02*
X83822400Y-74663400D01*
X83955733Y-74663400D02*
X83889066Y-74696733D01*
X83855733Y-74730066D01*
X83822400Y-74796733D01*
X83822400Y-74863400D01*
X84289066Y-75396733D02*
X83589066Y-75396733D01*
X84255733Y-75396733D02*
X84289066Y-75330066D01*
X84289066Y-75196733D01*
X84255733Y-75130066D01*
X84222400Y-75096733D01*
X84155733Y-75063400D01*
X83955733Y-75063400D01*
X83889066Y-75096733D01*
X83855733Y-75130066D01*
X83822400Y-75196733D01*
X83822400Y-75330066D01*
X83855733Y-75396733D01*
X83822400Y-76030066D02*
X84289066Y-76030066D01*
X83822400Y-75730066D02*
X84189066Y-75730066D01*
X84255733Y-75763400D01*
X84289066Y-75830066D01*
X84289066Y-75930066D01*
X84255733Y-75996733D01*
X84222400Y-76030066D01*
X84289066Y-76363400D02*
X83822400Y-76363400D01*
X83955733Y-76363400D02*
X83889066Y-76396733D01*
X83855733Y-76430066D01*
X83822400Y-76496733D01*
X83822400Y-76563400D01*
X84289066Y-76896733D02*
X84255733Y-76830066D01*
X84222400Y-76796733D01*
X84155733Y-76763400D01*
X83955733Y-76763400D01*
X83889066Y-76796733D01*
X83855733Y-76830066D01*
X83822400Y-76896733D01*
X83822400Y-76996733D01*
X83855733Y-77063400D01*
X83889066Y-77096733D01*
X83955733Y-77130066D01*
X84155733Y-77130066D01*
X84222400Y-77096733D01*
X84255733Y-77063400D01*
X84289066Y-76996733D01*
X84289066Y-76896733D01*
D11*
X82715023Y-77006500D02*
X82791214Y-76968404D01*
X82905500Y-76968404D01*
X83019785Y-77006500D01*
X83095976Y-77082690D01*
X83134071Y-77158880D01*
X83172166Y-77311261D01*
X83172166Y-77425547D01*
X83134071Y-77577928D01*
X83095976Y-77654119D01*
X83019785Y-77730309D01*
X82905500Y-77768404D01*
X82829309Y-77768404D01*
X82715023Y-77730309D01*
X82676928Y-77692214D01*
X82676928Y-77425547D01*
X82829309Y-77425547D01*
X82334071Y-77768404D02*
X82334071Y-76968404D01*
X81876928Y-77768404D01*
X81876928Y-76968404D01*
X81495976Y-77768404D02*
X81495976Y-76968404D01*
X81305500Y-76968404D01*
X81191214Y-77006500D01*
X81115023Y-77082690D01*
X81076928Y-77158880D01*
X81038833Y-77311261D01*
X81038833Y-77425547D01*
X81076928Y-77577928D01*
X81115023Y-77654119D01*
X81191214Y-77730309D01*
X81305500Y-77768404D01*
X81495976Y-77768404D01*
D13*
X82042000Y-49276000D02*
X76962000Y-49276000D01*
X76962000Y-51816000D02*
X82042000Y-51816000D01*
X82042000Y-51816000D02*
X82042000Y-49276000D01*
X76962000Y-51816000D02*
X76962000Y-49276000D01*
X82042000Y-51816000D02*
X83248500Y-51816000D01*
X76962000Y-49276000D02*
X75755500Y-49276000D01*
D14*
X82042000Y-49276000D02*
X83248500Y-49276000D01*
X83248500Y-49276000D02*
X83248500Y-51816000D01*
X76962000Y-51816000D02*
X75755500Y-51816000D01*
X75755500Y-51816000D02*
X75755500Y-49276000D01*
X76962000Y-49276000D02*
X75755500Y-49276000D01*
D12*
X68580000Y-78105000D02*
X68580000Y-75565000D01*
X78740000Y-78105000D02*
X78740000Y-75565000D01*
X78740000Y-75565000D02*
X68580000Y-75565000D01*
D13*
X71882000Y-52959000D02*
X71882000Y-49149000D01*
X64262000Y-52959000D02*
X71882000Y-52959000D01*
X64262000Y-49149000D02*
X64262000Y-52959000D01*
X71882000Y-49149000D02*
X64262000Y-49149000D01*
X64262000Y-50419000D02*
X71882000Y-50419000D01*
D14*
X70356000Y-55062000D02*
X68896000Y-55062000D01*
X70356000Y-58222000D02*
X68196000Y-58222000D01*
X70356000Y-58222000D02*
X70356000Y-57292000D01*
X70356000Y-55062000D02*
X70356000Y-55992000D01*
D15*
X83375500Y-74168000D02*
X80835500Y-74168000D01*
X80835500Y-74168000D02*
X80835500Y-76708000D01*
X80835500Y-76708000D02*
X83375500Y-76708000D01*
X83375500Y-76708000D02*
X83375500Y-74168000D01*
X83375500Y-76708000D02*
X83375500Y-77978000D01*
X83375500Y-77978000D02*
X80835500Y-77978000D01*
X80835500Y-77978000D02*
X80835500Y-76708000D01*
X83375500Y-70231000D02*
X83375500Y-71501000D01*
X80835500Y-70231000D02*
X83375500Y-70231000D01*
X80835500Y-71501000D02*
X80835500Y-70231000D01*
X80835500Y-71501000D02*
X80835500Y-74041000D01*
X83375500Y-71501000D02*
X80835500Y-71501000D01*
X83375500Y-74041000D02*
X83375500Y-71501000D01*
X80835500Y-74041000D02*
X83375500Y-74041000D01*
D13*
X80264000Y-70104000D02*
X80264000Y-67056000D01*
X77216000Y-70104000D02*
X80264000Y-70104000D01*
X77216000Y-67056000D02*
X77216000Y-70104000D01*
X75184000Y-70104000D02*
X75184000Y-67056000D01*
X72136000Y-70104000D02*
X75184000Y-70104000D01*
X72136000Y-67056000D02*
X72136000Y-70104000D01*
X70104000Y-70104000D02*
X70104000Y-67056000D01*
X67056000Y-70104000D02*
X70104000Y-70104000D01*
X67056000Y-67056000D02*
X67056000Y-70104000D01*
X77216000Y-67056000D02*
X80264000Y-67056000D01*
X72136000Y-67056000D02*
X75184000Y-67056000D01*
X67056000Y-67056000D02*
X70104000Y-67056000D01*
X66040000Y-66929000D02*
X81280000Y-66929000D01*
X64770000Y-53975000D02*
X82550000Y-53975000D01*
X73660000Y-62865000D02*
X73660000Y-45085000D01*
X81280000Y-66929000D02*
X81280000Y-58420000D01*
X66040000Y-58420000D02*
X66040000Y-66929000D01*
X64770000Y-53975000D02*
G75*
G03*
X73660000Y-62865000I8890000J0D01*
G01*
X73660000Y-62865000D02*
G75*
G03*
X82550000Y-53975000I0J8890000D01*
G01*
X82550000Y-53975002D02*
G75*
G03*
X73660000Y-45085000I-8889901J101D01*
G01*
X73660002Y-45085000D02*
G75*
G03*
X64770000Y-53975000I-101J-8889901D01*
G01*
X74558000Y-53975000D02*
G75*
G03*
X74558000Y-53975000I-898000J0D01*
G01*
D14*
X74738608Y-71543165D02*
G75*
G02*
X74895516Y-74775500I-1078608J-1672335D01*
G01*
X72581392Y-71543165D02*
G75*
G03*
X72424484Y-74775500I1078608J-1672335D01*
G01*
X74739837Y-72174370D02*
G75*
G02*
X74740000Y-74256461I-1079837J-1041130D01*
G01*
X72580163Y-72174370D02*
G75*
G03*
X72580000Y-74256461I1079837J-1041130D01*
G01*
X74896000Y-74775500D02*
X74740000Y-74775500D01*
X72580000Y-74775500D02*
X72424000Y-74775500D01*
D10*
X76765095Y-51117404D02*
X75965095Y-50850738D01*
X76765095Y-50584071D01*
X76269857Y-50317404D02*
X76269857Y-49707880D01*
X75965095Y-50012642D02*
X76574619Y-50012642D01*
X83013500Y-51155523D02*
X83051595Y-51231714D01*
X83051595Y-51346000D01*
X83013500Y-51460285D01*
X82937309Y-51536476D01*
X82861119Y-51574571D01*
X82708738Y-51612666D01*
X82594452Y-51612666D01*
X82442071Y-51574571D01*
X82365880Y-51536476D01*
X82289690Y-51460285D01*
X82251595Y-51346000D01*
X82251595Y-51269809D01*
X82289690Y-51155523D01*
X82327785Y-51117428D01*
X82594452Y-51117428D01*
X82594452Y-51269809D01*
X82251595Y-50774571D02*
X83051595Y-50774571D01*
X82251595Y-50317428D01*
X83051595Y-50317428D01*
X82251595Y-49936476D02*
X83051595Y-49936476D01*
X83051595Y-49746000D01*
X83013500Y-49631714D01*
X82937309Y-49555523D01*
X82861119Y-49517428D01*
X82708738Y-49479333D01*
X82594452Y-49479333D01*
X82442071Y-49517428D01*
X82365880Y-49555523D01*
X82289690Y-49631714D01*
X82251595Y-49746000D01*
X82251595Y-49936476D01*
D11*
X78233500Y-78102666D02*
X78100166Y-78102666D01*
X78033500Y-78136000D01*
X77966833Y-78202666D01*
X77933500Y-78336000D01*
X77933500Y-78569333D01*
X77966833Y-78702666D01*
X78033500Y-78769333D01*
X78100166Y-78802666D01*
X78233500Y-78802666D01*
X78300166Y-78769333D01*
X78366833Y-78702666D01*
X78400166Y-78569333D01*
X78400166Y-78336000D01*
X78366833Y-78202666D01*
X78300166Y-78136000D01*
X78233500Y-78102666D01*
X77633500Y-78102666D02*
X77633500Y-78669333D01*
X77600166Y-78736000D01*
X77566833Y-78769333D01*
X77500166Y-78802666D01*
X77366833Y-78802666D01*
X77300166Y-78769333D01*
X77266833Y-78736000D01*
X77233500Y-78669333D01*
X77233500Y-78102666D01*
X77000166Y-78102666D02*
X76600166Y-78102666D01*
X76800166Y-78802666D02*
X76800166Y-78102666D01*
X75593500Y-78769333D02*
X75493500Y-78802666D01*
X75326833Y-78802666D01*
X75260166Y-78769333D01*
X75226833Y-78736000D01*
X75193500Y-78669333D01*
X75193500Y-78602666D01*
X75226833Y-78536000D01*
X75260166Y-78502666D01*
X75326833Y-78469333D01*
X75460166Y-78436000D01*
X75526833Y-78402666D01*
X75560166Y-78369333D01*
X75593500Y-78302666D01*
X75593500Y-78236000D01*
X75560166Y-78169333D01*
X75526833Y-78136000D01*
X75460166Y-78102666D01*
X75293500Y-78102666D01*
X75193500Y-78136000D01*
X74960166Y-78102666D02*
X74793500Y-78802666D01*
X74660166Y-78302666D01*
X74526833Y-78802666D01*
X74360166Y-78102666D01*
X72986833Y-78136000D02*
X73053500Y-78102666D01*
X73153500Y-78102666D01*
X73253500Y-78136000D01*
X73320166Y-78202666D01*
X73353500Y-78269333D01*
X73386833Y-78402666D01*
X73386833Y-78502666D01*
X73353500Y-78636000D01*
X73320166Y-78702666D01*
X73253500Y-78769333D01*
X73153500Y-78802666D01*
X73086833Y-78802666D01*
X72986833Y-78769333D01*
X72953500Y-78736000D01*
X72953500Y-78502666D01*
X73086833Y-78502666D01*
X72653500Y-78802666D02*
X72653500Y-78102666D01*
X72253500Y-78802666D01*
X72253500Y-78102666D01*
X71920166Y-78802666D02*
X71920166Y-78102666D01*
X71753500Y-78102666D01*
X71653500Y-78136000D01*
X71586833Y-78202666D01*
X71553500Y-78269333D01*
X71520166Y-78402666D01*
X71520166Y-78502666D01*
X71553500Y-78636000D01*
X71586833Y-78702666D01*
X71653500Y-78769333D01*
X71753500Y-78802666D01*
X71920166Y-78802666D01*
X70216666Y-78802666D02*
X70216666Y-78102666D01*
X69883333Y-78802666D02*
X69883333Y-78102666D01*
X69483333Y-78802666D01*
X69483333Y-78102666D01*
X69138666Y-50067333D02*
X69024380Y-50100666D01*
X68833904Y-50100666D01*
X68757714Y-50067333D01*
X68719619Y-50034000D01*
X68681523Y-49967333D01*
X68681523Y-49900666D01*
X68719619Y-49834000D01*
X68757714Y-49800666D01*
X68833904Y-49767333D01*
X68986285Y-49734000D01*
X69062476Y-49700666D01*
X69100571Y-49667333D01*
X69138666Y-49600666D01*
X69138666Y-49534000D01*
X69100571Y-49467333D01*
X69062476Y-49434000D01*
X68986285Y-49400666D01*
X68795809Y-49400666D01*
X68681523Y-49434000D01*
X68414857Y-49400666D02*
X68224380Y-50100666D01*
X68072000Y-49600666D01*
X67919619Y-50100666D01*
X67729142Y-49400666D01*
X67005333Y-50100666D02*
X67462476Y-50100666D01*
X67233904Y-50100666D02*
X67233904Y-49400666D01*
X67310095Y-49500666D01*
X67386285Y-49567333D01*
X67462476Y-49600666D01*
D10*
X71431095Y-57835809D02*
X71393000Y-57759619D01*
X71316809Y-57683428D01*
X71202523Y-57569142D01*
X71164428Y-57492952D01*
X71164428Y-57416761D01*
X71354904Y-57454857D02*
X71316809Y-57378666D01*
X71240619Y-57302476D01*
X71088238Y-57264380D01*
X70821571Y-57264380D01*
X70669190Y-57302476D01*
X70593000Y-57378666D01*
X70554904Y-57454857D01*
X70554904Y-57607238D01*
X70593000Y-57683428D01*
X70669190Y-57759619D01*
X70821571Y-57797714D01*
X71088238Y-57797714D01*
X71240619Y-57759619D01*
X71316809Y-57683428D01*
X71354904Y-57607238D01*
X71354904Y-57454857D01*
X70631095Y-58102476D02*
X70593000Y-58140571D01*
X70554904Y-58216761D01*
X70554904Y-58407238D01*
X70593000Y-58483428D01*
X70631095Y-58521523D01*
X70707285Y-58559619D01*
X70783476Y-58559619D01*
X70897761Y-58521523D01*
X71354904Y-58064380D01*
X71354904Y-58559619D01*
D11*
X82803904Y-70427904D02*
X82537238Y-71227904D01*
X82270571Y-70427904D01*
X82003904Y-70923142D02*
X81394380Y-70923142D01*
X81699142Y-71227904D02*
X81699142Y-70618380D01*
D10*
X78292223Y-66198757D02*
X78149366Y-66236852D01*
X78101747Y-66274947D01*
X78054128Y-66351138D01*
X78054128Y-66465423D01*
X78101747Y-66541614D01*
X78149366Y-66579709D01*
X78244604Y-66617804D01*
X78625557Y-66617804D01*
X78625557Y-65817804D01*
X78292223Y-65817804D01*
X78196985Y-65855900D01*
X78149366Y-65893995D01*
X78101747Y-65970185D01*
X78101747Y-66046376D01*
X78149366Y-66122566D01*
X78196985Y-66160661D01*
X78292223Y-66198757D01*
X78625557Y-66198757D01*
X77101747Y-66617804D02*
X77673176Y-66617804D01*
X77387461Y-66617804D02*
X77387461Y-65817804D01*
X77482700Y-65932090D01*
X77577938Y-66008280D01*
X77673176Y-66046376D01*
X76673176Y-66617804D02*
X76673176Y-65817804D01*
X76577938Y-66313042D02*
X76292223Y-66617804D01*
X76292223Y-66084471D02*
X76673176Y-66389233D01*
D11*
X73374285Y-69032380D02*
X73945714Y-69032380D01*
X73660000Y-69032380D02*
X73660000Y-68032380D01*
X73755238Y-68175238D01*
X73850476Y-68270476D01*
X73945714Y-68318095D01*
D10*
X74239357Y-70928666D02*
X74715547Y-70928666D01*
X74715547Y-70228666D01*
X73906023Y-70562000D02*
X73572690Y-70562000D01*
X73429833Y-70928666D02*
X73906023Y-70928666D01*
X73906023Y-70228666D01*
X73429833Y-70228666D01*
X73001261Y-70928666D02*
X73001261Y-70228666D01*
X72763166Y-70228666D01*
X72620309Y-70262000D01*
X72525071Y-70328666D01*
X72477452Y-70395333D01*
X72429833Y-70528666D01*
X72429833Y-70628666D01*
X72477452Y-70762000D01*
X72525071Y-70828666D01*
X72620309Y-70895333D01*
X72763166Y-70928666D01*
X73001261Y-70928666D01*
%LPC*%
D16*
X80772000Y-50546000D03*
G36*
G01*
X77215800Y-51511200D02*
X77215800Y-49580800D01*
G75*
G02*
X77266800Y-49529800I51000J0D01*
G01*
X79197200Y-49529800D01*
G75*
G02*
X79248200Y-49580800I0J-51000D01*
G01*
X79248200Y-51511200D01*
G75*
G02*
X79197200Y-51562200I-51000J0D01*
G01*
X77266800Y-51562200D01*
G75*
G02*
X77215800Y-51511200I0J51000D01*
G01*
G37*
X77470000Y-76835000D03*
X74930000Y-76835000D03*
X72390000Y-76835000D03*
G36*
G01*
X68833800Y-77800200D02*
X68833800Y-75869800D01*
G75*
G02*
X68884800Y-75818800I51000J0D01*
G01*
X70815200Y-75818800D01*
G75*
G02*
X70866200Y-75869800I0J-51000D01*
G01*
X70866200Y-77800200D01*
G75*
G02*
X70815200Y-77851200I-51000J0D01*
G01*
X68884800Y-77851200D01*
G75*
G02*
X68833800Y-77800200I0J51000D01*
G01*
G37*
D17*
X71628000Y-60722500D03*
X71628000Y-65722500D03*
X68326000Y-60722500D03*
X68326000Y-65722500D03*
D18*
X82296000Y-63119000D03*
X74676000Y-63119000D03*
D19*
X70612000Y-51689000D03*
X68072000Y-51689000D03*
G36*
G01*
X64465000Y-52705000D02*
X64465000Y-50673000D01*
G75*
G02*
X64516000Y-50622000I51000J0D01*
G01*
X66548000Y-50622000D01*
G75*
G02*
X66599000Y-50673000I0J-51000D01*
G01*
X66599000Y-52705000D01*
G75*
G02*
X66548000Y-52756000I-51000J0D01*
G01*
X64516000Y-52756000D01*
G75*
G02*
X64465000Y-52705000I0J51000D01*
G01*
G37*
D18*
X83312000Y-55626000D03*
X75692000Y-55626000D03*
X75692000Y-58166000D03*
X83312000Y-58166000D03*
G36*
G01*
X70095000Y-57042000D02*
X70095000Y-56242000D01*
G75*
G02*
X70146000Y-56191000I51000J0D01*
G01*
X71046000Y-56191000D01*
G75*
G02*
X71097000Y-56242000I0J-51000D01*
G01*
X71097000Y-57042000D01*
G75*
G02*
X71046000Y-57093000I-51000J0D01*
G01*
X70146000Y-57093000D01*
G75*
G02*
X70095000Y-57042000I0J51000D01*
G01*
G37*
G36*
G01*
X68095000Y-56092000D02*
X68095000Y-55292000D01*
G75*
G02*
X68146000Y-55241000I51000J0D01*
G01*
X69046000Y-55241000D01*
G75*
G02*
X69097000Y-55292000I0J-51000D01*
G01*
X69097000Y-56092000D01*
G75*
G02*
X69046000Y-56143000I-51000J0D01*
G01*
X68146000Y-56143000D01*
G75*
G02*
X68095000Y-56092000I0J51000D01*
G01*
G37*
G36*
G01*
X68095000Y-57992000D02*
X68095000Y-57192000D01*
G75*
G02*
X68146000Y-57141000I51000J0D01*
G01*
X69046000Y-57141000D01*
G75*
G02*
X69097000Y-57192000I0J-51000D01*
G01*
X69097000Y-57992000D01*
G75*
G02*
X69046000Y-58043000I-51000J0D01*
G01*
X68146000Y-58043000D01*
G75*
G02*
X68095000Y-57992000I0J51000D01*
G01*
G37*
G36*
G01*
X61865000Y-68037000D02*
X63865000Y-68037000D01*
G75*
G02*
X63916000Y-68088000I0J-51000D01*
G01*
X63916000Y-70088000D01*
G75*
G02*
X63865000Y-70139000I-51000J0D01*
G01*
X61865000Y-70139000D01*
G75*
G02*
X61814000Y-70088000I0J51000D01*
G01*
X61814000Y-68088000D01*
G75*
G02*
X61865000Y-68037000I51000J0D01*
G01*
G37*
X62865000Y-76708000D03*
G36*
G01*
X64481000Y-55864000D02*
X64481000Y-53864000D01*
G75*
G02*
X64532000Y-53813000I51000J0D01*
G01*
X66532000Y-53813000D01*
G75*
G02*
X66583000Y-53864000I0J-51000D01*
G01*
X66583000Y-55864000D01*
G75*
G02*
X66532000Y-55915000I-51000J0D01*
G01*
X64532000Y-55915000D01*
G75*
G02*
X64481000Y-55864000I0J51000D01*
G01*
G37*
X73152000Y-54864000D03*
G36*
G01*
X74203000Y-56912000D02*
X74203000Y-58912000D01*
G75*
G02*
X74152000Y-58963000I-51000J0D01*
G01*
X72152000Y-58963000D01*
G75*
G02*
X72101000Y-58912000I0J51000D01*
G01*
X72101000Y-56912000D01*
G75*
G02*
X72152000Y-56861000I51000J0D01*
G01*
X74152000Y-56861000D01*
G75*
G02*
X74203000Y-56912000I0J-51000D01*
G01*
G37*
X65532000Y-57912000D03*
D16*
X67868800Y-72898000D03*
G36*
G01*
X71425000Y-71932800D02*
X71425000Y-73863200D01*
G75*
G02*
X71374000Y-73914200I-51000J0D01*
G01*
X69443600Y-73914200D01*
G75*
G02*
X69392600Y-73863200I0J51000D01*
G01*
X69392600Y-71932800D01*
G75*
G02*
X69443600Y-71881800I51000J0D01*
G01*
X71374000Y-71881800D01*
G75*
G02*
X71425000Y-71932800I0J-51000D01*
G01*
G37*
D19*
X82105500Y-75438000D03*
G36*
G01*
X83172500Y-71755000D02*
X83172500Y-73787000D01*
G75*
G02*
X83121500Y-73838000I-51000J0D01*
G01*
X81089500Y-73838000D01*
G75*
G02*
X81038500Y-73787000I0J51000D01*
G01*
X81038500Y-71755000D01*
G75*
G02*
X81089500Y-71704000I51000J0D01*
G01*
X83121500Y-71704000D01*
G75*
G02*
X83172500Y-71755000I0J-51000D01*
G01*
G37*
D20*
X68580000Y-68580000D03*
X73660000Y-68580000D03*
G36*
G01*
X80061000Y-67310000D02*
X80061000Y-69850000D01*
G75*
G02*
X80010000Y-69901000I-51000J0D01*
G01*
X77470000Y-69901000D01*
G75*
G02*
X77419000Y-69850000I0J51000D01*
G01*
X77419000Y-67310000D01*
G75*
G02*
X77470000Y-67259000I51000J0D01*
G01*
X80010000Y-67259000D01*
G75*
G02*
X80061000Y-67310000I0J-51000D01*
G01*
G37*
D16*
X64516000Y-65468500D03*
X64516000Y-62928500D03*
G36*
G01*
X65481200Y-61404700D02*
X63550800Y-61404700D01*
G75*
G02*
X63499800Y-61353700I0J51000D01*
G01*
X63499800Y-59423300D01*
G75*
G02*
X63550800Y-59372300I51000J0D01*
G01*
X65481200Y-59372300D01*
G75*
G02*
X65532200Y-59423300I0J-51000D01*
G01*
X65532200Y-61353700D01*
G75*
G02*
X65481200Y-61404700I-51000J0D01*
G01*
G37*
D18*
X65405000Y-69088000D03*
X65405000Y-76708000D03*
X82296000Y-65532000D03*
X74676000Y-65532000D03*
X83312000Y-53086000D03*
X75692000Y-53086000D03*
X82296000Y-60579000D03*
X74676000Y-60579000D03*
D21*
X73660000Y-71945500D03*
G36*
G01*
X74560000Y-75436500D02*
X72760000Y-75436500D01*
G75*
G02*
X72709000Y-75385500I0J51000D01*
G01*
X72709000Y-73585500D01*
G75*
G02*
X72760000Y-73534500I51000J0D01*
G01*
X74560000Y-73534500D01*
G75*
G02*
X74611000Y-73585500I0J-51000D01*
G01*
X74611000Y-75385500D01*
G75*
G02*
X74560000Y-75436500I-51000J0D01*
G01*
G37*
D16*
X76898500Y-72898000D03*
G36*
G01*
X80454700Y-71932800D02*
X80454700Y-73863200D01*
G75*
G02*
X80403700Y-73914200I-51000J0D01*
G01*
X78473300Y-73914200D01*
G75*
G02*
X78422300Y-73863200I0J51000D01*
G01*
X78422300Y-71932800D01*
G75*
G02*
X78473300Y-71881800I51000J0D01*
G01*
X80403700Y-71881800D01*
G75*
G02*
X80454700Y-71932800I0J-51000D01*
G01*
G37*
M02*
