G04 #@! TF.GenerationSoftware,KiCad,Pcbnew,(5.99.0-1200-g9ab2fcda7)*
G04 #@! TF.CreationDate,2020-04-02T19:41:38+03:00*
G04 #@! TF.ProjectId,superduro,73757065-7264-4757-926f-2e6b69636164,rev?*
G04 #@! TF.SameCoordinates,Original*
G04 #@! TF.FileFunction,Copper,L1,Top*
G04 #@! TF.FilePolarity,Positive*
%FSLAX46Y46*%
G04 Gerber Fmt 4.6, Leading zero omitted, Abs format (unit mm)*
G04 Created by KiCad (PCBNEW (5.99.0-1200-g9ab2fcda7)) date 2020-04-02 19:41:38*
%MOMM*%
%LPD*%
G01*
G04 APERTURE LIST*
G04 #@! TA.AperFunction,ComponentPad*
%ADD10O,1.930400X1.930400*%
G04 #@! TD*
G04 #@! TA.AperFunction,ComponentPad*
%ADD11R,1.930400X1.930400*%
G04 #@! TD*
G04 #@! TA.AperFunction,ComponentPad*
%ADD12C,1.600000*%
G04 #@! TD*
G04 #@! TA.AperFunction,ComponentPad*
%ADD13O,2.000000X2.000000*%
G04 #@! TD*
G04 #@! TA.AperFunction,ComponentPad*
%ADD14O,2.032000X2.032000*%
G04 #@! TD*
G04 #@! TA.AperFunction,ComponentPad*
%ADD15R,2.032000X2.032000*%
G04 #@! TD*
G04 #@! TA.AperFunction,ComponentPad*
%ADD16R,2.000000X2.000000*%
G04 #@! TD*
G04 #@! TA.AperFunction,ComponentPad*
%ADD17O,2.540000X2.540000*%
G04 #@! TD*
G04 #@! TA.AperFunction,ComponentPad*
%ADD18R,2.540000X2.540000*%
G04 #@! TD*
G04 #@! TA.AperFunction,ComponentPad*
%ADD19C,1.800000*%
G04 #@! TD*
G04 #@! TA.AperFunction,ComponentPad*
%ADD20R,1.800000X1.800000*%
G04 #@! TD*
G04 #@! TA.AperFunction,ViaPad*
%ADD21C,0.800000*%
G04 #@! TD*
G04 #@! TA.AperFunction,Conductor*
%ADD22C,0.381000*%
G04 #@! TD*
G04 #@! TA.AperFunction,Conductor*
%ADD23C,0.609600*%
G04 #@! TD*
G04 #@! TA.AperFunction,Conductor*
%ADD24C,0.800000*%
G04 #@! TD*
G04 #@! TA.AperFunction,Conductor*
%ADD25C,0.254000*%
G04 #@! TD*
G04 APERTURE END LIST*
D10*
X80772000Y-50546000D03*
D11*
X78232000Y-50546000D03*
D10*
X77470000Y-76835000D03*
X74930000Y-76835000D03*
X72390000Y-76835000D03*
D11*
X69850000Y-76835000D03*
D12*
X71628000Y-60722500D03*
X71628000Y-65722500D03*
X68326000Y-60722500D03*
X68326000Y-65722500D03*
D13*
X82296000Y-63119000D03*
X74676000Y-63119000D03*
D14*
X70612000Y-51689000D03*
X68072000Y-51689000D03*
D15*
X65532000Y-51689000D03*
D13*
X83312000Y-55626000D03*
X75692000Y-55626000D03*
X75692000Y-58166000D03*
X83312000Y-58166000D03*
D16*
X62865000Y-69088000D03*
D13*
X62865000Y-76708000D03*
D16*
X65532000Y-54864000D03*
D13*
X73152000Y-54864000D03*
D16*
X73152000Y-57912000D03*
D13*
X65532000Y-57912000D03*
D10*
X67868800Y-72898000D03*
D11*
X70408800Y-72898000D03*
D14*
X82105500Y-75438000D03*
D15*
X82105500Y-72771000D03*
D17*
X68580000Y-68580000D03*
X73660000Y-68580000D03*
D18*
X78740000Y-68580000D03*
D10*
X64516000Y-65468500D03*
X64516000Y-62928500D03*
D11*
X64516000Y-60388500D03*
D13*
X65405000Y-69088000D03*
X65405000Y-76708000D03*
X82296000Y-65532000D03*
X74676000Y-65532000D03*
X83312000Y-53086000D03*
X75692000Y-53086000D03*
X82296000Y-60579000D03*
X74676000Y-60579000D03*
D19*
X73660000Y-71945500D03*
D20*
X73660000Y-74485500D03*
D10*
X76898500Y-72898000D03*
D11*
X79438500Y-72898000D03*
D21*
X77825600Y-55295800D03*
D22*
X70408800Y-72898000D02*
X70408800Y-71831200D01*
X70408800Y-71831200D02*
X73660000Y-68580000D01*
D23*
X67564000Y-72517000D02*
X68834000Y-71247000D01*
X67564000Y-72898000D02*
X67564000Y-72517000D01*
X83312000Y-58166000D02*
X83800801Y-58654801D01*
X83800801Y-71075699D02*
X82105500Y-72771000D01*
X83800801Y-58654801D02*
X83800801Y-71075699D01*
X80772000Y-50546000D02*
X80772000Y-53086000D01*
X80772000Y-53086000D02*
X83312000Y-55626000D01*
D22*
X71628000Y-65722500D02*
X72818501Y-64531999D01*
X72818501Y-64531999D02*
X72818501Y-60151059D01*
X72818501Y-60151059D02*
X71761499Y-59094057D01*
X71761499Y-56599599D02*
X72106597Y-56254501D01*
X71761499Y-59094057D02*
X71761499Y-56599599D01*
X72106597Y-56254501D02*
X75063499Y-56254501D01*
X75063499Y-56254501D02*
X75692000Y-55626000D01*
X79438500Y-72898000D02*
X77079499Y-70538999D01*
X77079499Y-70538999D02*
X77079499Y-65522499D01*
X77079499Y-65522499D02*
X74676000Y-63119000D01*
X64516000Y-60388500D02*
X64141499Y-60013999D01*
X64141499Y-60013999D02*
X64141499Y-53551599D01*
X64141499Y-53551599D02*
X64597597Y-53095501D01*
X64597597Y-53095501D02*
X66860401Y-53095501D01*
X66860401Y-53095501D02*
X68072000Y-51883902D01*
X68072000Y-51883902D02*
X68072000Y-51689000D01*
D23*
X78232000Y-50546000D02*
X78232000Y-53086000D01*
X78232000Y-53086000D02*
X83312000Y-58166000D01*
X75692000Y-53086000D02*
X78232000Y-50546000D01*
D24*
X72390000Y-76200000D02*
X71628000Y-75438000D01*
X72390000Y-76835000D02*
X72390000Y-76200000D01*
D22*
X65405000Y-76708000D02*
X66887701Y-78190701D01*
X78120737Y-78190701D02*
X78825701Y-77485737D01*
X78825701Y-77485737D02*
X78825701Y-76184263D01*
X66887701Y-78190701D02*
X78120737Y-78190701D01*
X78825701Y-76184263D02*
X76895139Y-74253701D01*
X76895139Y-74253701D02*
X75968201Y-74253701D01*
X75968201Y-74253701D02*
X73660000Y-71945500D01*
X65532000Y-57912000D02*
X65532000Y-54864000D01*
X64516000Y-62928500D02*
X66120000Y-62928500D01*
X66120000Y-62928500D02*
X68326000Y-60722500D01*
X69850000Y-76835000D02*
X68503800Y-76835000D01*
X70240501Y-67637001D02*
X68326000Y-65722500D01*
X68503800Y-76835000D02*
X66208299Y-74539499D01*
X66208299Y-72247263D02*
X68215061Y-70240501D01*
X66208299Y-74539499D02*
X66208299Y-72247263D01*
X68215061Y-70240501D02*
X69377041Y-70240501D01*
X69377041Y-70240501D02*
X70240501Y-69377041D01*
X70240501Y-69377041D02*
X70240501Y-67637001D01*
X62865000Y-76708000D02*
X62865000Y-74295000D01*
X62865000Y-74295000D02*
X68580000Y-68580000D01*
X74930000Y-76835000D02*
X74930000Y-75755500D01*
X74930000Y-75755500D02*
X73660000Y-74485500D01*
X68072000Y-68580000D02*
X68580000Y-68580000D01*
X75869801Y-66471801D02*
X74930000Y-65532000D01*
X75869801Y-71932801D02*
X75869801Y-66471801D01*
X76835000Y-72898000D02*
X75869801Y-71932801D01*
X77470000Y-73533000D02*
X76835000Y-72898000D01*
X74041000Y-68961000D02*
X73660000Y-68580000D01*
X68291700Y-52451000D02*
X68317100Y-52476400D01*
X75692000Y-55372000D02*
X75692000Y-57785000D01*
G36*
X84202001Y-78487000D02*
G01*
X78993284Y-78487000D01*
X79344654Y-78135631D01*
X79359201Y-78126453D01*
X79372874Y-78114817D01*
X79428863Y-78051422D01*
X79448859Y-78031427D01*
X79454732Y-78024652D01*
X79467214Y-78007998D01*
X79517587Y-77950962D01*
X79527444Y-77935956D01*
X79537906Y-77913673D01*
X79552669Y-77893976D01*
X79561291Y-77878228D01*
X79588006Y-77806964D01*
X79620433Y-77737897D01*
X79625742Y-77720342D01*
X79629230Y-77696998D01*
X79638028Y-77673530D01*
X79641883Y-77655995D01*
X79648337Y-77569155D01*
X79651508Y-77547936D01*
X79652201Y-77538610D01*
X79652201Y-77517158D01*
X79658084Y-77437988D01*
X79656863Y-77420077D01*
X79652201Y-77398237D01*
X79652201Y-76276853D01*
X79655998Y-76260072D01*
X79657438Y-76242177D01*
X79652201Y-76157768D01*
X79652201Y-76129485D01*
X79651564Y-76120543D01*
X79648613Y-76099937D01*
X79643901Y-76023988D01*
X79640261Y-76006409D01*
X79631903Y-75983256D01*
X79628413Y-75958886D01*
X79623374Y-75941654D01*
X79591870Y-75872365D01*
X79565965Y-75800606D01*
X79557305Y-75784439D01*
X79543266Y-75765467D01*
X79532893Y-75742651D01*
X79523220Y-75727526D01*
X79466375Y-75661554D01*
X79466314Y-75661471D01*
X80463104Y-75661471D01*
X80528220Y-75939094D01*
X80531314Y-75948731D01*
X80628625Y-76184826D01*
X80633220Y-76193844D01*
X80767026Y-76411344D01*
X80773004Y-76419511D01*
X80939864Y-76612819D01*
X80947070Y-76619926D01*
X81142690Y-76784070D01*
X81150940Y-76789933D01*
X81370287Y-76920689D01*
X81379368Y-76925158D01*
X81616797Y-77019164D01*
X81626477Y-77022123D01*
X81883404Y-77078612D01*
X81977500Y-77002957D01*
X81977500Y-75639809D01*
X82233500Y-75639809D01*
X82233500Y-76999830D01*
X82316881Y-77074906D01*
X82404959Y-77065647D01*
X82414907Y-77063785D01*
X82661336Y-76996831D01*
X82670858Y-76993403D01*
X82903413Y-76887912D01*
X82912265Y-76883005D01*
X83124963Y-76741688D01*
X83132916Y-76735429D01*
X83320284Y-76561926D01*
X83327135Y-76554475D01*
X83484351Y-76353246D01*
X83489923Y-76344797D01*
X83612945Y-76121021D01*
X83617094Y-76111789D01*
X83702756Y-75871223D01*
X83705375Y-75861446D01*
X83742955Y-75656692D01*
X83667393Y-75566000D01*
X82307309Y-75566000D01*
X82233500Y-75639809D01*
X81977500Y-75639809D01*
X81903691Y-75566000D01*
X80538773Y-75566000D01*
X80463104Y-75661471D01*
X79466314Y-75661471D01*
X79453614Y-75644309D01*
X79447510Y-75637225D01*
X79432345Y-75622061D01*
X79380521Y-75561916D01*
X79366992Y-75550114D01*
X79348250Y-75537966D01*
X78283862Y-74473578D01*
X78456838Y-74504078D01*
X78467799Y-74505037D01*
X80411958Y-74505037D01*
X80428334Y-74502881D01*
X80707559Y-74428063D01*
X80732040Y-74415319D01*
X80804487Y-74354528D01*
X80841490Y-74375891D01*
X80793852Y-74428798D01*
X80787704Y-74436839D01*
X80649372Y-74651489D01*
X80644589Y-74660409D01*
X80542355Y-74894413D01*
X80539060Y-74903983D01*
X80475554Y-75151325D01*
X80473831Y-75161300D01*
X80467769Y-75227927D01*
X80542714Y-75310000D01*
X83666473Y-75310000D01*
X83741940Y-75221327D01*
X83713893Y-75048153D01*
X83711479Y-75038323D01*
X83630873Y-74796015D01*
X83626918Y-74786699D01*
X83508610Y-74560395D01*
X83503217Y-74551830D01*
X83365601Y-74367875D01*
X83425359Y-74351863D01*
X83449839Y-74339120D01*
X83606090Y-74208010D01*
X83620261Y-74191121D01*
X83720859Y-74016880D01*
X83728400Y-73996163D01*
X83762378Y-73803462D01*
X83763337Y-73792501D01*
X83763337Y-72443654D01*
X84202001Y-72004990D01*
X84202001Y-78487000D01*
G37*
D25*
X84202001Y-78487000D02*
X78993284Y-78487000D01*
X79344654Y-78135631D01*
X79359201Y-78126453D01*
X79372874Y-78114817D01*
X79428863Y-78051422D01*
X79448859Y-78031427D01*
X79454732Y-78024652D01*
X79467214Y-78007998D01*
X79517587Y-77950962D01*
X79527444Y-77935956D01*
X79537906Y-77913673D01*
X79552669Y-77893976D01*
X79561291Y-77878228D01*
X79588006Y-77806964D01*
X79620433Y-77737897D01*
X79625742Y-77720342D01*
X79629230Y-77696998D01*
X79638028Y-77673530D01*
X79641883Y-77655995D01*
X79648337Y-77569155D01*
X79651508Y-77547936D01*
X79652201Y-77538610D01*
X79652201Y-77517158D01*
X79658084Y-77437988D01*
X79656863Y-77420077D01*
X79652201Y-77398237D01*
X79652201Y-76276853D01*
X79655998Y-76260072D01*
X79657438Y-76242177D01*
X79652201Y-76157768D01*
X79652201Y-76129485D01*
X79651564Y-76120543D01*
X79648613Y-76099937D01*
X79643901Y-76023988D01*
X79640261Y-76006409D01*
X79631903Y-75983256D01*
X79628413Y-75958886D01*
X79623374Y-75941654D01*
X79591870Y-75872365D01*
X79565965Y-75800606D01*
X79557305Y-75784439D01*
X79543266Y-75765467D01*
X79532893Y-75742651D01*
X79523220Y-75727526D01*
X79466375Y-75661554D01*
X79466314Y-75661471D01*
X80463104Y-75661471D01*
X80528220Y-75939094D01*
X80531314Y-75948731D01*
X80628625Y-76184826D01*
X80633220Y-76193844D01*
X80767026Y-76411344D01*
X80773004Y-76419511D01*
X80939864Y-76612819D01*
X80947070Y-76619926D01*
X81142690Y-76784070D01*
X81150940Y-76789933D01*
X81370287Y-76920689D01*
X81379368Y-76925158D01*
X81616797Y-77019164D01*
X81626477Y-77022123D01*
X81883404Y-77078612D01*
X81977500Y-77002957D01*
X81977500Y-75639809D01*
X82233500Y-75639809D01*
X82233500Y-76999830D01*
X82316881Y-77074906D01*
X82404959Y-77065647D01*
X82414907Y-77063785D01*
X82661336Y-76996831D01*
X82670858Y-76993403D01*
X82903413Y-76887912D01*
X82912265Y-76883005D01*
X83124963Y-76741688D01*
X83132916Y-76735429D01*
X83320284Y-76561926D01*
X83327135Y-76554475D01*
X83484351Y-76353246D01*
X83489923Y-76344797D01*
X83612945Y-76121021D01*
X83617094Y-76111789D01*
X83702756Y-75871223D01*
X83705375Y-75861446D01*
X83742955Y-75656692D01*
X83667393Y-75566000D01*
X82307309Y-75566000D01*
X82233500Y-75639809D01*
X81977500Y-75639809D01*
X81903691Y-75566000D01*
X80538773Y-75566000D01*
X80463104Y-75661471D01*
X79466314Y-75661471D01*
X79453614Y-75644309D01*
X79447510Y-75637225D01*
X79432345Y-75622061D01*
X79380521Y-75561916D01*
X79366992Y-75550114D01*
X79348250Y-75537966D01*
X78283862Y-74473578D01*
X78456838Y-74504078D01*
X78467799Y-74505037D01*
X80411958Y-74505037D01*
X80428334Y-74502881D01*
X80707559Y-74428063D01*
X80732040Y-74415319D01*
X80804487Y-74354528D01*
X80841490Y-74375891D01*
X80793852Y-74428798D01*
X80787704Y-74436839D01*
X80649372Y-74651489D01*
X80644589Y-74660409D01*
X80542355Y-74894413D01*
X80539060Y-74903983D01*
X80475554Y-75151325D01*
X80473831Y-75161300D01*
X80467769Y-75227927D01*
X80542714Y-75310000D01*
X83666473Y-75310000D01*
X83741940Y-75221327D01*
X83713893Y-75048153D01*
X83711479Y-75038323D01*
X83630873Y-74796015D01*
X83626918Y-74786699D01*
X83508610Y-74560395D01*
X83503217Y-74551830D01*
X83365601Y-74367875D01*
X83425359Y-74351863D01*
X83449839Y-74339120D01*
X83606090Y-74208010D01*
X83620261Y-74191121D01*
X83720859Y-74016880D01*
X83728400Y-73996163D01*
X83762378Y-73803462D01*
X83763337Y-73792501D01*
X83763337Y-72443654D01*
X84202001Y-72004990D01*
X84202001Y-78487000D01*
G36*
X73035040Y-70383794D02*
G01*
X73294956Y-70453438D01*
X73099635Y-70512037D01*
X73089709Y-70515957D01*
X72866123Y-70626946D01*
X72857000Y-70632482D01*
X72655311Y-70779556D01*
X72647250Y-70786551D01*
X72473225Y-70965505D01*
X72466459Y-70973757D01*
X72325073Y-71179474D01*
X72319793Y-71188749D01*
X72215090Y-71415347D01*
X72211448Y-71425379D01*
X72146422Y-71666378D01*
X72144523Y-71676880D01*
X72121032Y-71925391D01*
X72120930Y-71936062D01*
X72139646Y-72184977D01*
X72141343Y-72195513D01*
X72201731Y-72437718D01*
X72205179Y-72447817D01*
X72305512Y-72676384D01*
X72310613Y-72685758D01*
X72448023Y-72894150D01*
X72454630Y-72902531D01*
X72543298Y-72997284D01*
X72456142Y-73020637D01*
X72431662Y-73033380D01*
X72275410Y-73164490D01*
X72261239Y-73181379D01*
X72160641Y-73355620D01*
X72153100Y-73376337D01*
X72119122Y-73569038D01*
X72118163Y-73579999D01*
X72118163Y-75255726D01*
X71896513Y-75308531D01*
X71886683Y-75311743D01*
X71653827Y-75409627D01*
X71644654Y-75414402D01*
X71430912Y-75549003D01*
X71422642Y-75555212D01*
X71385923Y-75587812D01*
X71380063Y-75565942D01*
X71367320Y-75541462D01*
X71236210Y-75385210D01*
X71219321Y-75371039D01*
X71045080Y-75270441D01*
X71024363Y-75262900D01*
X70831662Y-75228922D01*
X70820701Y-75227963D01*
X68876542Y-75227963D01*
X68860166Y-75230119D01*
X68580942Y-75304937D01*
X68556462Y-75317680D01*
X68400210Y-75448790D01*
X68386039Y-75465679D01*
X68355763Y-75518118D01*
X67178064Y-74340419D01*
X67291673Y-74394851D01*
X67301335Y-74398540D01*
X67543898Y-74469012D01*
X67554032Y-74471073D01*
X67656109Y-74483246D01*
X67740800Y-74408054D01*
X67740801Y-72770000D01*
X67996800Y-72770001D01*
X67996799Y-74410301D01*
X68090210Y-74485944D01*
X68324845Y-74436070D01*
X68334750Y-74433099D01*
X68569928Y-74340933D01*
X68579215Y-74336384D01*
X68796182Y-74207046D01*
X68804601Y-74201041D01*
X68872474Y-74143684D01*
X68878737Y-74167059D01*
X68891480Y-74191539D01*
X69022590Y-74347790D01*
X69039479Y-74361961D01*
X69213720Y-74462559D01*
X69234437Y-74470100D01*
X69427138Y-74504078D01*
X69438099Y-74505037D01*
X71382258Y-74505037D01*
X71398634Y-74502881D01*
X71677859Y-74428063D01*
X71702339Y-74415320D01*
X71858590Y-74284210D01*
X71872761Y-74267321D01*
X71973359Y-74093080D01*
X71980900Y-74072363D01*
X72014878Y-73879662D01*
X72015837Y-73868701D01*
X72015837Y-71924542D01*
X72013681Y-71908166D01*
X71938863Y-71628942D01*
X71926120Y-71604462D01*
X71870577Y-71538268D01*
X73027637Y-70381208D01*
X73035040Y-70383794D01*
G37*
X73035040Y-70383794D02*
X73294956Y-70453438D01*
X73099635Y-70512037D01*
X73089709Y-70515957D01*
X72866123Y-70626946D01*
X72857000Y-70632482D01*
X72655311Y-70779556D01*
X72647250Y-70786551D01*
X72473225Y-70965505D01*
X72466459Y-70973757D01*
X72325073Y-71179474D01*
X72319793Y-71188749D01*
X72215090Y-71415347D01*
X72211448Y-71425379D01*
X72146422Y-71666378D01*
X72144523Y-71676880D01*
X72121032Y-71925391D01*
X72120930Y-71936062D01*
X72139646Y-72184977D01*
X72141343Y-72195513D01*
X72201731Y-72437718D01*
X72205179Y-72447817D01*
X72305512Y-72676384D01*
X72310613Y-72685758D01*
X72448023Y-72894150D01*
X72454630Y-72902531D01*
X72543298Y-72997284D01*
X72456142Y-73020637D01*
X72431662Y-73033380D01*
X72275410Y-73164490D01*
X72261239Y-73181379D01*
X72160641Y-73355620D01*
X72153100Y-73376337D01*
X72119122Y-73569038D01*
X72118163Y-73579999D01*
X72118163Y-75255726D01*
X71896513Y-75308531D01*
X71886683Y-75311743D01*
X71653827Y-75409627D01*
X71644654Y-75414402D01*
X71430912Y-75549003D01*
X71422642Y-75555212D01*
X71385923Y-75587812D01*
X71380063Y-75565942D01*
X71367320Y-75541462D01*
X71236210Y-75385210D01*
X71219321Y-75371039D01*
X71045080Y-75270441D01*
X71024363Y-75262900D01*
X70831662Y-75228922D01*
X70820701Y-75227963D01*
X68876542Y-75227963D01*
X68860166Y-75230119D01*
X68580942Y-75304937D01*
X68556462Y-75317680D01*
X68400210Y-75448790D01*
X68386039Y-75465679D01*
X68355763Y-75518118D01*
X67178064Y-74340419D01*
X67291673Y-74394851D01*
X67301335Y-74398540D01*
X67543898Y-74469012D01*
X67554032Y-74471073D01*
X67656109Y-74483246D01*
X67740800Y-74408054D01*
X67740801Y-72770000D01*
X67996800Y-72770001D01*
X67996799Y-74410301D01*
X68090210Y-74485944D01*
X68324845Y-74436070D01*
X68334750Y-74433099D01*
X68569928Y-74340933D01*
X68579215Y-74336384D01*
X68796182Y-74207046D01*
X68804601Y-74201041D01*
X68872474Y-74143684D01*
X68878737Y-74167059D01*
X68891480Y-74191539D01*
X69022590Y-74347790D01*
X69039479Y-74361961D01*
X69213720Y-74462559D01*
X69234437Y-74470100D01*
X69427138Y-74504078D01*
X69438099Y-74505037D01*
X71382258Y-74505037D01*
X71398634Y-74502881D01*
X71677859Y-74428063D01*
X71702339Y-74415320D01*
X71858590Y-74284210D01*
X71872761Y-74267321D01*
X71973359Y-74093080D01*
X71980900Y-74072363D01*
X72014878Y-73879662D01*
X72015837Y-73868701D01*
X72015837Y-71924542D01*
X72013681Y-71908166D01*
X71938863Y-71628942D01*
X71926120Y-71604462D01*
X71870577Y-71538268D01*
X73027637Y-70381208D01*
X73035040Y-70383794D01*
G36*
X76624963Y-50822546D02*
G01*
X75973026Y-51474483D01*
X75771402Y-51449011D01*
X75761290Y-51448552D01*
X75508656Y-51457374D01*
X75498601Y-51458538D01*
X75250628Y-51507639D01*
X75240889Y-51510394D01*
X75003956Y-51598508D01*
X74994783Y-51602786D01*
X74774984Y-51727649D01*
X74766613Y-51733338D01*
X74569606Y-51891737D01*
X74562252Y-51898691D01*
X74393104Y-52086548D01*
X74386956Y-52094589D01*
X74250019Y-52307075D01*
X74245236Y-52315994D01*
X74144032Y-52547639D01*
X74140737Y-52557209D01*
X74077871Y-52802056D01*
X74076148Y-52812030D01*
X74053238Y-53063777D01*
X74053132Y-53073898D01*
X74070766Y-53326071D01*
X74072279Y-53336078D01*
X74122048Y-53548268D01*
X73980775Y-53450081D01*
X73972028Y-53444990D01*
X73744056Y-53335764D01*
X73734607Y-53332137D01*
X73492104Y-53260765D01*
X73482197Y-53258695D01*
X73365350Y-53243933D01*
X73280000Y-53319178D01*
X73280000Y-54992000D01*
X71601708Y-54992000D01*
X71526039Y-55087471D01*
X71590004Y-55360187D01*
X71593098Y-55369824D01*
X71666052Y-55546824D01*
X71664985Y-55547309D01*
X71649860Y-55556982D01*
X71583887Y-55613828D01*
X71566642Y-55626589D01*
X71559559Y-55632692D01*
X71544396Y-55647856D01*
X71484250Y-55699682D01*
X71472448Y-55713210D01*
X71460302Y-55731949D01*
X71242550Y-55949702D01*
X71227997Y-55958884D01*
X71214325Y-55970520D01*
X71158326Y-56033927D01*
X71138342Y-56053910D01*
X71132470Y-56060683D01*
X71119993Y-56077330D01*
X71069613Y-56134375D01*
X71059756Y-56149381D01*
X71049295Y-56171661D01*
X71034531Y-56191361D01*
X71025909Y-56207109D01*
X70999190Y-56278382D01*
X70966768Y-56347439D01*
X70961460Y-56364993D01*
X70957971Y-56388334D01*
X70949172Y-56411808D01*
X70945317Y-56429342D01*
X70938862Y-56516201D01*
X70935693Y-56537404D01*
X70935000Y-56546727D01*
X70935000Y-56568174D01*
X70929117Y-56647348D01*
X70930338Y-56665259D01*
X70935000Y-56687098D01*
X70934999Y-59001467D01*
X70931202Y-59018248D01*
X70929762Y-59036143D01*
X70934999Y-59120552D01*
X70934999Y-59148834D01*
X70935636Y-59157776D01*
X70938587Y-59178382D01*
X70943299Y-59254331D01*
X70946939Y-59271910D01*
X70955297Y-59295063D01*
X70958787Y-59319433D01*
X70963826Y-59336665D01*
X70995330Y-59405954D01*
X71003090Y-59427452D01*
X70807132Y-59540588D01*
X70798119Y-59546899D01*
X70614366Y-59701087D01*
X70606587Y-59708866D01*
X70452399Y-59892619D01*
X70446088Y-59901632D01*
X70326152Y-60109368D01*
X70321502Y-60119340D01*
X70239460Y-60344747D01*
X70236613Y-60355374D01*
X70194959Y-60591603D01*
X70194000Y-60602564D01*
X70194000Y-60842436D01*
X70194959Y-60853397D01*
X70236613Y-61089626D01*
X70239460Y-61100253D01*
X70321502Y-61325660D01*
X70326152Y-61335632D01*
X70446088Y-61543368D01*
X70452399Y-61552381D01*
X70606587Y-61736134D01*
X70614366Y-61743913D01*
X70798119Y-61898101D01*
X70807132Y-61904412D01*
X71014868Y-62024348D01*
X71024840Y-62028998D01*
X71250247Y-62111040D01*
X71260874Y-62113887D01*
X71497103Y-62155541D01*
X71508064Y-62156500D01*
X71747936Y-62156500D01*
X71758897Y-62155541D01*
X71992002Y-62114438D01*
X71992001Y-64189653D01*
X71872214Y-64309440D01*
X71758897Y-64289459D01*
X71747936Y-64288500D01*
X71508064Y-64288500D01*
X71497103Y-64289459D01*
X71260874Y-64331113D01*
X71250247Y-64333960D01*
X71024840Y-64416002D01*
X71014868Y-64420652D01*
X70807132Y-64540588D01*
X70798119Y-64546899D01*
X70614366Y-64701087D01*
X70606587Y-64708866D01*
X70452399Y-64892619D01*
X70446088Y-64901632D01*
X70326152Y-65109368D01*
X70321502Y-65119340D01*
X70239460Y-65344747D01*
X70236613Y-65355374D01*
X70194959Y-65591603D01*
X70194000Y-65602564D01*
X70194000Y-65842436D01*
X70194959Y-65853397D01*
X70236613Y-66089626D01*
X70239460Y-66100253D01*
X70321502Y-66325660D01*
X70326152Y-66335632D01*
X70446088Y-66543368D01*
X70452399Y-66552381D01*
X70606587Y-66736134D01*
X70614366Y-66743913D01*
X70798119Y-66898101D01*
X70807132Y-66904412D01*
X71014868Y-67024348D01*
X71024840Y-67028998D01*
X71250247Y-67111040D01*
X71260874Y-67113887D01*
X71497103Y-67155541D01*
X71508064Y-67156500D01*
X71747936Y-67156500D01*
X71758897Y-67155541D01*
X71995126Y-67113887D01*
X72005753Y-67111040D01*
X72231160Y-67028998D01*
X72241132Y-67024348D01*
X72448868Y-66904412D01*
X72457881Y-66898101D01*
X72641634Y-66743913D01*
X72649413Y-66736134D01*
X72803601Y-66552381D01*
X72809912Y-66543368D01*
X72929848Y-66335632D01*
X72934498Y-66325660D01*
X73016540Y-66100253D01*
X73019387Y-66089626D01*
X73061041Y-65853397D01*
X73062000Y-65842436D01*
X73062000Y-65806469D01*
X73114004Y-66028187D01*
X73117098Y-66037824D01*
X73213428Y-66271538D01*
X73218023Y-66280556D01*
X73350480Y-66495862D01*
X73356458Y-66504030D01*
X73509690Y-66681553D01*
X73407204Y-66687821D01*
X73397939Y-66689082D01*
X73130299Y-66745971D01*
X73121322Y-66748588D01*
X72865031Y-66844411D01*
X72856539Y-66848325D01*
X72617226Y-66980979D01*
X72609406Y-66986105D01*
X72392330Y-67152675D01*
X72385354Y-67158901D01*
X72195282Y-67355726D01*
X72189303Y-67362915D01*
X72030412Y-67585673D01*
X72025561Y-67593667D01*
X71901341Y-67837463D01*
X71897725Y-67846086D01*
X71810904Y-68105565D01*
X71808602Y-68114628D01*
X71761088Y-68384090D01*
X71760152Y-68393394D01*
X71752989Y-68666919D01*
X71753437Y-68676259D01*
X71786784Y-68947839D01*
X71788608Y-68957010D01*
X71859286Y-69211869D01*
X69889854Y-71181301D01*
X69875298Y-71190485D01*
X69861626Y-71202121D01*
X69805627Y-71265528D01*
X69785643Y-71285511D01*
X69780916Y-71290963D01*
X69435342Y-71290963D01*
X69418966Y-71293119D01*
X69139742Y-71367937D01*
X69115262Y-71380680D01*
X68959010Y-71511790D01*
X68944839Y-71528679D01*
X68875031Y-71649590D01*
X68867137Y-71642229D01*
X68859021Y-71635819D01*
X68648632Y-71496036D01*
X68639578Y-71491038D01*
X68409183Y-71387495D01*
X68399434Y-71384043D01*
X68273610Y-71350798D01*
X68557408Y-71067001D01*
X69284450Y-71067001D01*
X69301231Y-71070798D01*
X69319127Y-71072238D01*
X69403536Y-71067001D01*
X69431819Y-71067001D01*
X69440760Y-71066364D01*
X69461366Y-71063414D01*
X69537315Y-71058701D01*
X69554895Y-71055060D01*
X69578042Y-71046704D01*
X69602417Y-71043213D01*
X69619650Y-71038174D01*
X69688937Y-71006670D01*
X69760696Y-70980765D01*
X69776864Y-70972105D01*
X69795833Y-70958068D01*
X69818653Y-70947693D01*
X69833778Y-70938020D01*
X69899758Y-70881168D01*
X69916995Y-70868413D01*
X69924078Y-70862310D01*
X69939236Y-70847151D01*
X69999388Y-70795320D01*
X70011190Y-70781791D01*
X70023337Y-70763051D01*
X70759454Y-70026935D01*
X70774001Y-70017757D01*
X70787674Y-70006121D01*
X70843663Y-69942726D01*
X70863659Y-69922731D01*
X70869532Y-69915956D01*
X70882014Y-69899302D01*
X70932387Y-69842266D01*
X70942244Y-69827260D01*
X70952706Y-69804977D01*
X70967469Y-69785280D01*
X70976091Y-69769532D01*
X71002806Y-69698268D01*
X71035233Y-69629201D01*
X71040542Y-69611646D01*
X71044030Y-69588302D01*
X71052828Y-69564834D01*
X71056683Y-69547300D01*
X71063137Y-69460455D01*
X71066308Y-69439236D01*
X71067001Y-69429913D01*
X71067001Y-69408453D01*
X71072883Y-69329293D01*
X71071662Y-69311382D01*
X71067001Y-69289547D01*
X71067001Y-67729587D01*
X71070797Y-67712811D01*
X71072237Y-67694916D01*
X71067001Y-67610516D01*
X71067001Y-67582222D01*
X71066364Y-67573280D01*
X71063413Y-67552674D01*
X71058701Y-67476727D01*
X71055061Y-67459147D01*
X71046703Y-67435995D01*
X71043213Y-67411623D01*
X71038174Y-67394392D01*
X71006672Y-67325107D01*
X70980765Y-67253344D01*
X70972105Y-67237177D01*
X70958066Y-67218203D01*
X70947692Y-67195388D01*
X70938020Y-67180263D01*
X70881176Y-67114293D01*
X70868414Y-67097046D01*
X70862310Y-67089963D01*
X70847140Y-67074793D01*
X70795321Y-67014654D01*
X70781792Y-67002852D01*
X70763054Y-66990707D01*
X69739060Y-65966714D01*
X69759041Y-65853397D01*
X69760000Y-65842436D01*
X69760000Y-65602564D01*
X69759041Y-65591603D01*
X69717387Y-65355374D01*
X69714540Y-65344747D01*
X69632498Y-65119340D01*
X69627848Y-65109368D01*
X69507912Y-64901632D01*
X69501601Y-64892619D01*
X69347413Y-64708866D01*
X69339634Y-64701087D01*
X69155881Y-64546899D01*
X69146868Y-64540588D01*
X68939132Y-64420652D01*
X68929160Y-64416002D01*
X68703753Y-64333960D01*
X68693126Y-64331113D01*
X68456897Y-64289459D01*
X68445936Y-64288500D01*
X68206064Y-64288500D01*
X68195103Y-64289459D01*
X67958874Y-64331113D01*
X67948247Y-64333960D01*
X67722840Y-64416002D01*
X67712868Y-64420652D01*
X67505132Y-64540588D01*
X67496119Y-64546899D01*
X67312366Y-64701087D01*
X67304587Y-64708866D01*
X67150399Y-64892619D01*
X67144088Y-64901632D01*
X67024152Y-65109368D01*
X67019502Y-65119340D01*
X66937460Y-65344747D01*
X66934613Y-65355374D01*
X66892959Y-65591603D01*
X66892000Y-65602564D01*
X66892000Y-65842436D01*
X66892959Y-65853397D01*
X66934613Y-66089626D01*
X66937460Y-66100253D01*
X67019502Y-66325660D01*
X67024152Y-66335632D01*
X67144088Y-66543368D01*
X67150399Y-66552381D01*
X67304587Y-66736134D01*
X67312366Y-66743913D01*
X67496119Y-66898101D01*
X67505132Y-66904412D01*
X67588511Y-66952551D01*
X67537226Y-66980979D01*
X67529406Y-66986105D01*
X67312330Y-67152675D01*
X67305354Y-67158901D01*
X67115282Y-67355726D01*
X67109303Y-67362915D01*
X66950412Y-67585673D01*
X66945561Y-67593667D01*
X66821341Y-67837463D01*
X66817725Y-67846086D01*
X66730904Y-68105565D01*
X66728602Y-68114628D01*
X66726484Y-68126638D01*
X66637708Y-68007969D01*
X66631014Y-68000377D01*
X66449174Y-67824776D01*
X66441353Y-67818351D01*
X66233775Y-67674081D01*
X66225028Y-67668990D01*
X65997056Y-67559764D01*
X65987607Y-67556137D01*
X65745103Y-67484765D01*
X65735196Y-67482695D01*
X65484402Y-67451011D01*
X65474290Y-67450552D01*
X65221656Y-67459374D01*
X65211601Y-67460538D01*
X64963628Y-67509639D01*
X64953889Y-67512394D01*
X64716956Y-67600508D01*
X64707783Y-67604786D01*
X64487984Y-67729649D01*
X64479613Y-67735338D01*
X64426632Y-67777936D01*
X64417120Y-67759662D01*
X64286010Y-67603410D01*
X64269121Y-67589239D01*
X64094880Y-67488641D01*
X64074163Y-67481100D01*
X63881462Y-67447122D01*
X63870501Y-67446163D01*
X61856741Y-67446163D01*
X61848000Y-67447314D01*
X61848000Y-59417799D01*
X62908963Y-59417799D01*
X62908963Y-61361958D01*
X62911119Y-61378334D01*
X62985937Y-61657559D01*
X62998680Y-61682039D01*
X63129790Y-61838290D01*
X63146679Y-61852461D01*
X63271238Y-61924375D01*
X63193647Y-62020193D01*
X63187820Y-62028736D01*
X63063054Y-62248364D01*
X63058699Y-62257744D01*
X62971479Y-62494800D01*
X62968716Y-62504766D01*
X62921385Y-62752884D01*
X62920286Y-62763167D01*
X62914114Y-63015685D01*
X62914710Y-63026009D01*
X62949864Y-63276143D01*
X62952137Y-63286232D01*
X63027673Y-63527266D01*
X63031564Y-63536848D01*
X63145452Y-63762308D01*
X63150855Y-63771126D01*
X63300038Y-63974958D01*
X63306809Y-63982775D01*
X63487280Y-64159504D01*
X63495236Y-64166110D01*
X63539326Y-64196983D01*
X63359754Y-64356414D01*
X63352609Y-64363891D01*
X63193647Y-64560193D01*
X63187820Y-64568736D01*
X63063054Y-64788364D01*
X63058699Y-64797744D01*
X62971479Y-65034800D01*
X62968716Y-65044766D01*
X62921385Y-65292884D01*
X62920286Y-65303167D01*
X62914114Y-65555685D01*
X62914710Y-65566009D01*
X62949864Y-65816143D01*
X62952137Y-65826232D01*
X63027673Y-66067266D01*
X63031564Y-66076848D01*
X63145452Y-66302308D01*
X63150855Y-66311126D01*
X63300038Y-66514958D01*
X63306809Y-66522775D01*
X63487280Y-66699504D01*
X63495237Y-66706110D01*
X63702148Y-66850992D01*
X63711077Y-66856210D01*
X63938873Y-66965351D01*
X63948535Y-66969040D01*
X64191098Y-67039512D01*
X64201232Y-67041573D01*
X64452048Y-67071481D01*
X64462382Y-67071860D01*
X64714714Y-67060402D01*
X64724972Y-67059088D01*
X64972045Y-67006570D01*
X64981950Y-67003599D01*
X65217128Y-66911433D01*
X65226415Y-66906884D01*
X65443382Y-66777546D01*
X65451801Y-66771541D01*
X65644730Y-66608503D01*
X65652055Y-66601203D01*
X65815766Y-66408844D01*
X65821801Y-66400446D01*
X65951895Y-66183931D01*
X65956477Y-66174661D01*
X66049463Y-65939806D01*
X66052470Y-65929911D01*
X66106011Y-65682269D01*
X66107418Y-65670469D01*
X66115385Y-65344513D01*
X66114556Y-65332658D01*
X66073175Y-65082697D01*
X66070655Y-65072667D01*
X65989253Y-64833550D01*
X65985130Y-64824066D01*
X65865767Y-64601455D01*
X65860149Y-64592771D01*
X65706031Y-64392646D01*
X65699072Y-64384997D01*
X65514337Y-64212729D01*
X65506221Y-64206319D01*
X65492463Y-64197179D01*
X65644730Y-64068503D01*
X65652055Y-64061203D01*
X65815766Y-63868844D01*
X65821801Y-63860446D01*
X65885158Y-63755000D01*
X66027409Y-63755000D01*
X66044190Y-63758797D01*
X66062086Y-63760237D01*
X66146495Y-63755000D01*
X66174778Y-63755000D01*
X66183719Y-63754363D01*
X66204325Y-63751413D01*
X66280274Y-63746700D01*
X66297854Y-63743059D01*
X66321001Y-63734703D01*
X66345376Y-63731212D01*
X66362609Y-63726173D01*
X66431896Y-63694669D01*
X66503655Y-63668764D01*
X66519823Y-63660104D01*
X66538792Y-63646067D01*
X66561612Y-63635692D01*
X66576737Y-63626019D01*
X66642717Y-63569167D01*
X66659954Y-63556412D01*
X66667037Y-63550309D01*
X66682194Y-63535151D01*
X66742347Y-63483320D01*
X66754149Y-63469791D01*
X66766299Y-63451046D01*
X68081786Y-62135560D01*
X68195103Y-62155541D01*
X68206064Y-62156500D01*
X68445936Y-62156500D01*
X68456897Y-62155541D01*
X68693126Y-62113887D01*
X68703753Y-62111040D01*
X68929160Y-62028998D01*
X68939132Y-62024348D01*
X69146868Y-61904412D01*
X69155881Y-61898101D01*
X69339634Y-61743913D01*
X69347413Y-61736134D01*
X69501601Y-61552381D01*
X69507912Y-61543368D01*
X69627848Y-61335632D01*
X69632498Y-61325660D01*
X69714540Y-61100253D01*
X69717387Y-61089626D01*
X69759041Y-60853397D01*
X69760000Y-60842436D01*
X69760000Y-60602564D01*
X69759041Y-60591603D01*
X69717387Y-60355374D01*
X69714540Y-60344747D01*
X69632498Y-60119340D01*
X69627848Y-60109368D01*
X69507912Y-59901632D01*
X69501601Y-59892619D01*
X69347413Y-59708866D01*
X69339634Y-59701087D01*
X69155881Y-59546899D01*
X69146868Y-59540588D01*
X68939132Y-59420652D01*
X68929160Y-59416002D01*
X68703753Y-59333960D01*
X68693126Y-59331113D01*
X68456897Y-59289459D01*
X68445936Y-59288500D01*
X68206064Y-59288500D01*
X68195103Y-59289459D01*
X67958874Y-59331113D01*
X67948247Y-59333960D01*
X67722840Y-59416002D01*
X67712868Y-59420652D01*
X67505132Y-59540588D01*
X67496119Y-59546899D01*
X67312366Y-59701087D01*
X67304587Y-59708866D01*
X67150399Y-59892619D01*
X67144088Y-59901632D01*
X67024152Y-60109368D01*
X67019502Y-60119340D01*
X66937460Y-60344747D01*
X66934613Y-60355374D01*
X66892959Y-60591603D01*
X66892000Y-60602564D01*
X66892000Y-60842436D01*
X66892959Y-60853397D01*
X66912940Y-60966714D01*
X65845677Y-62033978D01*
X65761629Y-61924841D01*
X65785059Y-61918563D01*
X65809539Y-61905820D01*
X65965790Y-61774710D01*
X65979961Y-61757821D01*
X66080559Y-61583580D01*
X66088100Y-61562863D01*
X66122078Y-61370162D01*
X66123037Y-61359201D01*
X66123037Y-59438185D01*
X66322131Y-59347873D01*
X66330983Y-59342966D01*
X66541536Y-59203074D01*
X66549489Y-59196815D01*
X66734968Y-59025061D01*
X66741819Y-59017610D01*
X66897451Y-58818411D01*
X66903023Y-58809961D01*
X67024804Y-58588441D01*
X67028953Y-58579209D01*
X67113751Y-58341068D01*
X67116370Y-58331292D01*
X67162063Y-58082332D01*
X67163097Y-58071599D01*
X67166082Y-57786596D01*
X67165273Y-57775844D01*
X67124804Y-57525981D01*
X67122390Y-57516152D01*
X67042597Y-57276287D01*
X67038642Y-57266971D01*
X66921527Y-57042949D01*
X66916134Y-57034384D01*
X66764708Y-56831969D01*
X66758014Y-56824377D01*
X66576174Y-56648776D01*
X66568353Y-56642351D01*
X66371935Y-56505837D01*
X66540258Y-56505837D01*
X66556634Y-56503681D01*
X66835859Y-56428863D01*
X66860339Y-56416120D01*
X67016590Y-56285010D01*
X67030761Y-56268121D01*
X67131359Y-56093880D01*
X67138900Y-56073163D01*
X67172878Y-55880462D01*
X67173837Y-55869501D01*
X67173837Y-54653912D01*
X71530327Y-54653912D01*
X71605273Y-54736000D01*
X72950191Y-54736000D01*
X73024000Y-54662191D01*
X73024000Y-53317424D01*
X72931952Y-53241815D01*
X72710628Y-53285639D01*
X72700889Y-53288394D01*
X72463956Y-53376508D01*
X72454783Y-53380786D01*
X72234984Y-53505649D01*
X72226613Y-53511338D01*
X72029606Y-53669737D01*
X72022252Y-53676691D01*
X71853104Y-53864548D01*
X71846956Y-53872589D01*
X71710019Y-54085075D01*
X71705236Y-54093994D01*
X71604032Y-54325639D01*
X71600737Y-54335209D01*
X71537872Y-54580052D01*
X71536150Y-54590017D01*
X71530327Y-54653912D01*
X67173837Y-54653912D01*
X67173837Y-53861114D01*
X67244056Y-53835765D01*
X67260224Y-53827105D01*
X67279193Y-53813068D01*
X67302013Y-53802693D01*
X67317138Y-53793020D01*
X67383118Y-53736168D01*
X67400355Y-53723413D01*
X67407438Y-53717310D01*
X67422596Y-53702151D01*
X67482748Y-53650320D01*
X67494550Y-53636791D01*
X67506697Y-53618051D01*
X67805008Y-53319741D01*
X67842383Y-53327958D01*
X67852411Y-53329332D01*
X68107375Y-53343587D01*
X68117494Y-53343340D01*
X68371458Y-53316647D01*
X68381406Y-53314785D01*
X68500501Y-53282428D01*
X68596552Y-53261924D01*
X68613400Y-53255725D01*
X68628422Y-53247620D01*
X68637360Y-53244402D01*
X68869913Y-53138912D01*
X68878765Y-53134005D01*
X69091463Y-52992688D01*
X69099416Y-52986429D01*
X69286784Y-52812925D01*
X69293635Y-52805475D01*
X69342270Y-52743225D01*
X69446364Y-52863819D01*
X69453570Y-52870926D01*
X69649190Y-53035070D01*
X69657440Y-53040933D01*
X69876787Y-53171689D01*
X69885868Y-53176158D01*
X70123297Y-53270164D01*
X70132977Y-53273123D01*
X70382383Y-53327958D01*
X70392411Y-53329332D01*
X70647375Y-53343587D01*
X70657494Y-53343340D01*
X70911458Y-53316647D01*
X70921406Y-53314785D01*
X71167836Y-53247831D01*
X71177358Y-53244403D01*
X71409913Y-53138912D01*
X71418765Y-53134005D01*
X71631463Y-52992688D01*
X71639416Y-52986429D01*
X71826784Y-52812926D01*
X71833635Y-52805475D01*
X71990851Y-52604246D01*
X71996423Y-52595797D01*
X72119445Y-52372021D01*
X72123594Y-52362789D01*
X72209256Y-52122223D01*
X72211875Y-52112446D01*
X72258033Y-51860954D01*
X72259067Y-51850221D01*
X72262082Y-51562308D01*
X72261273Y-51551556D01*
X72220393Y-51299152D01*
X72217979Y-51289323D01*
X72137373Y-51047015D01*
X72133418Y-51037699D01*
X72015110Y-50811395D01*
X72009717Y-50802830D01*
X71856749Y-50598354D01*
X71850055Y-50590762D01*
X71666363Y-50413372D01*
X71658542Y-50406947D01*
X71448850Y-50261208D01*
X71440103Y-50256117D01*
X71209808Y-50145778D01*
X71200359Y-50142151D01*
X70955386Y-50070052D01*
X70945479Y-50067982D01*
X70692129Y-50035976D01*
X70682018Y-50035517D01*
X70426811Y-50044429D01*
X70416757Y-50045593D01*
X70166257Y-50095193D01*
X70156518Y-50097948D01*
X69917172Y-50186960D01*
X69907999Y-50191238D01*
X69685962Y-50317372D01*
X69677591Y-50323062D01*
X69478577Y-50483074D01*
X69471223Y-50490028D01*
X69342587Y-50632892D01*
X69316749Y-50598354D01*
X69310055Y-50590762D01*
X69126363Y-50413372D01*
X69118542Y-50406947D01*
X68908850Y-50261208D01*
X68900103Y-50256117D01*
X68669808Y-50145778D01*
X68660359Y-50142151D01*
X68415386Y-50070052D01*
X68405479Y-50067982D01*
X68152129Y-50035976D01*
X68142018Y-50035517D01*
X67886811Y-50044429D01*
X67876757Y-50045593D01*
X67626257Y-50095193D01*
X67616518Y-50097948D01*
X67377172Y-50186960D01*
X67367999Y-50191238D01*
X67145962Y-50317372D01*
X67137591Y-50323062D01*
X67103249Y-50350674D01*
X67100120Y-50344662D01*
X66969010Y-50188410D01*
X66952121Y-50174239D01*
X66777880Y-50073641D01*
X66757163Y-50066100D01*
X66564462Y-50032122D01*
X66553501Y-50031163D01*
X64507742Y-50031163D01*
X64491366Y-50033319D01*
X64212142Y-50108137D01*
X64187662Y-50120880D01*
X64031410Y-50251990D01*
X64017239Y-50268879D01*
X63916641Y-50443120D01*
X63909100Y-50463837D01*
X63875122Y-50656538D01*
X63874163Y-50667499D01*
X63874163Y-52650090D01*
X63622553Y-52901700D01*
X63607997Y-52910884D01*
X63594325Y-52922520D01*
X63538326Y-52985927D01*
X63518342Y-53005910D01*
X63512470Y-53012683D01*
X63499993Y-53029330D01*
X63449613Y-53086375D01*
X63439756Y-53101381D01*
X63429295Y-53123661D01*
X63414531Y-53143361D01*
X63405909Y-53159109D01*
X63379190Y-53230382D01*
X63346768Y-53299439D01*
X63341460Y-53316993D01*
X63337971Y-53340334D01*
X63329172Y-53363808D01*
X63325317Y-53381342D01*
X63318862Y-53468201D01*
X63315693Y-53489404D01*
X63315000Y-53498727D01*
X63315000Y-53520174D01*
X63309117Y-53599348D01*
X63310338Y-53617259D01*
X63315000Y-53639098D01*
X63314999Y-58840201D01*
X63246942Y-58858437D01*
X63222462Y-58871180D01*
X63066210Y-59002290D01*
X63052039Y-59019179D01*
X62951441Y-59193420D01*
X62943900Y-59214137D01*
X62909922Y-59406838D01*
X62908963Y-59417799D01*
X61848000Y-59417799D01*
X61848000Y-49656000D01*
X76624963Y-49656000D01*
X76624963Y-50822546D01*
G37*
X76624963Y-50822546D02*
X75973026Y-51474483D01*
X75771402Y-51449011D01*
X75761290Y-51448552D01*
X75508656Y-51457374D01*
X75498601Y-51458538D01*
X75250628Y-51507639D01*
X75240889Y-51510394D01*
X75003956Y-51598508D01*
X74994783Y-51602786D01*
X74774984Y-51727649D01*
X74766613Y-51733338D01*
X74569606Y-51891737D01*
X74562252Y-51898691D01*
X74393104Y-52086548D01*
X74386956Y-52094589D01*
X74250019Y-52307075D01*
X74245236Y-52315994D01*
X74144032Y-52547639D01*
X74140737Y-52557209D01*
X74077871Y-52802056D01*
X74076148Y-52812030D01*
X74053238Y-53063777D01*
X74053132Y-53073898D01*
X74070766Y-53326071D01*
X74072279Y-53336078D01*
X74122048Y-53548268D01*
X73980775Y-53450081D01*
X73972028Y-53444990D01*
X73744056Y-53335764D01*
X73734607Y-53332137D01*
X73492104Y-53260765D01*
X73482197Y-53258695D01*
X73365350Y-53243933D01*
X73280000Y-53319178D01*
X73280000Y-54992000D01*
X71601708Y-54992000D01*
X71526039Y-55087471D01*
X71590004Y-55360187D01*
X71593098Y-55369824D01*
X71666052Y-55546824D01*
X71664985Y-55547309D01*
X71649860Y-55556982D01*
X71583887Y-55613828D01*
X71566642Y-55626589D01*
X71559559Y-55632692D01*
X71544396Y-55647856D01*
X71484250Y-55699682D01*
X71472448Y-55713210D01*
X71460302Y-55731949D01*
X71242550Y-55949702D01*
X71227997Y-55958884D01*
X71214325Y-55970520D01*
X71158326Y-56033927D01*
X71138342Y-56053910D01*
X71132470Y-56060683D01*
X71119993Y-56077330D01*
X71069613Y-56134375D01*
X71059756Y-56149381D01*
X71049295Y-56171661D01*
X71034531Y-56191361D01*
X71025909Y-56207109D01*
X70999190Y-56278382D01*
X70966768Y-56347439D01*
X70961460Y-56364993D01*
X70957971Y-56388334D01*
X70949172Y-56411808D01*
X70945317Y-56429342D01*
X70938862Y-56516201D01*
X70935693Y-56537404D01*
X70935000Y-56546727D01*
X70935000Y-56568174D01*
X70929117Y-56647348D01*
X70930338Y-56665259D01*
X70935000Y-56687098D01*
X70934999Y-59001467D01*
X70931202Y-59018248D01*
X70929762Y-59036143D01*
X70934999Y-59120552D01*
X70934999Y-59148834D01*
X70935636Y-59157776D01*
X70938587Y-59178382D01*
X70943299Y-59254331D01*
X70946939Y-59271910D01*
X70955297Y-59295063D01*
X70958787Y-59319433D01*
X70963826Y-59336665D01*
X70995330Y-59405954D01*
X71003090Y-59427452D01*
X70807132Y-59540588D01*
X70798119Y-59546899D01*
X70614366Y-59701087D01*
X70606587Y-59708866D01*
X70452399Y-59892619D01*
X70446088Y-59901632D01*
X70326152Y-60109368D01*
X70321502Y-60119340D01*
X70239460Y-60344747D01*
X70236613Y-60355374D01*
X70194959Y-60591603D01*
X70194000Y-60602564D01*
X70194000Y-60842436D01*
X70194959Y-60853397D01*
X70236613Y-61089626D01*
X70239460Y-61100253D01*
X70321502Y-61325660D01*
X70326152Y-61335632D01*
X70446088Y-61543368D01*
X70452399Y-61552381D01*
X70606587Y-61736134D01*
X70614366Y-61743913D01*
X70798119Y-61898101D01*
X70807132Y-61904412D01*
X71014868Y-62024348D01*
X71024840Y-62028998D01*
X71250247Y-62111040D01*
X71260874Y-62113887D01*
X71497103Y-62155541D01*
X71508064Y-62156500D01*
X71747936Y-62156500D01*
X71758897Y-62155541D01*
X71992002Y-62114438D01*
X71992001Y-64189653D01*
X71872214Y-64309440D01*
X71758897Y-64289459D01*
X71747936Y-64288500D01*
X71508064Y-64288500D01*
X71497103Y-64289459D01*
X71260874Y-64331113D01*
X71250247Y-64333960D01*
X71024840Y-64416002D01*
X71014868Y-64420652D01*
X70807132Y-64540588D01*
X70798119Y-64546899D01*
X70614366Y-64701087D01*
X70606587Y-64708866D01*
X70452399Y-64892619D01*
X70446088Y-64901632D01*
X70326152Y-65109368D01*
X70321502Y-65119340D01*
X70239460Y-65344747D01*
X70236613Y-65355374D01*
X70194959Y-65591603D01*
X70194000Y-65602564D01*
X70194000Y-65842436D01*
X70194959Y-65853397D01*
X70236613Y-66089626D01*
X70239460Y-66100253D01*
X70321502Y-66325660D01*
X70326152Y-66335632D01*
X70446088Y-66543368D01*
X70452399Y-66552381D01*
X70606587Y-66736134D01*
X70614366Y-66743913D01*
X70798119Y-66898101D01*
X70807132Y-66904412D01*
X71014868Y-67024348D01*
X71024840Y-67028998D01*
X71250247Y-67111040D01*
X71260874Y-67113887D01*
X71497103Y-67155541D01*
X71508064Y-67156500D01*
X71747936Y-67156500D01*
X71758897Y-67155541D01*
X71995126Y-67113887D01*
X72005753Y-67111040D01*
X72231160Y-67028998D01*
X72241132Y-67024348D01*
X72448868Y-66904412D01*
X72457881Y-66898101D01*
X72641634Y-66743913D01*
X72649413Y-66736134D01*
X72803601Y-66552381D01*
X72809912Y-66543368D01*
X72929848Y-66335632D01*
X72934498Y-66325660D01*
X73016540Y-66100253D01*
X73019387Y-66089626D01*
X73061041Y-65853397D01*
X73062000Y-65842436D01*
X73062000Y-65806469D01*
X73114004Y-66028187D01*
X73117098Y-66037824D01*
X73213428Y-66271538D01*
X73218023Y-66280556D01*
X73350480Y-66495862D01*
X73356458Y-66504030D01*
X73509690Y-66681553D01*
X73407204Y-66687821D01*
X73397939Y-66689082D01*
X73130299Y-66745971D01*
X73121322Y-66748588D01*
X72865031Y-66844411D01*
X72856539Y-66848325D01*
X72617226Y-66980979D01*
X72609406Y-66986105D01*
X72392330Y-67152675D01*
X72385354Y-67158901D01*
X72195282Y-67355726D01*
X72189303Y-67362915D01*
X72030412Y-67585673D01*
X72025561Y-67593667D01*
X71901341Y-67837463D01*
X71897725Y-67846086D01*
X71810904Y-68105565D01*
X71808602Y-68114628D01*
X71761088Y-68384090D01*
X71760152Y-68393394D01*
X71752989Y-68666919D01*
X71753437Y-68676259D01*
X71786784Y-68947839D01*
X71788608Y-68957010D01*
X71859286Y-69211869D01*
X69889854Y-71181301D01*
X69875298Y-71190485D01*
X69861626Y-71202121D01*
X69805627Y-71265528D01*
X69785643Y-71285511D01*
X69780916Y-71290963D01*
X69435342Y-71290963D01*
X69418966Y-71293119D01*
X69139742Y-71367937D01*
X69115262Y-71380680D01*
X68959010Y-71511790D01*
X68944839Y-71528679D01*
X68875031Y-71649590D01*
X68867137Y-71642229D01*
X68859021Y-71635819D01*
X68648632Y-71496036D01*
X68639578Y-71491038D01*
X68409183Y-71387495D01*
X68399434Y-71384043D01*
X68273610Y-71350798D01*
X68557408Y-71067001D01*
X69284450Y-71067001D01*
X69301231Y-71070798D01*
X69319127Y-71072238D01*
X69403536Y-71067001D01*
X69431819Y-71067001D01*
X69440760Y-71066364D01*
X69461366Y-71063414D01*
X69537315Y-71058701D01*
X69554895Y-71055060D01*
X69578042Y-71046704D01*
X69602417Y-71043213D01*
X69619650Y-71038174D01*
X69688937Y-71006670D01*
X69760696Y-70980765D01*
X69776864Y-70972105D01*
X69795833Y-70958068D01*
X69818653Y-70947693D01*
X69833778Y-70938020D01*
X69899758Y-70881168D01*
X69916995Y-70868413D01*
X69924078Y-70862310D01*
X69939236Y-70847151D01*
X69999388Y-70795320D01*
X70011190Y-70781791D01*
X70023337Y-70763051D01*
X70759454Y-70026935D01*
X70774001Y-70017757D01*
X70787674Y-70006121D01*
X70843663Y-69942726D01*
X70863659Y-69922731D01*
X70869532Y-69915956D01*
X70882014Y-69899302D01*
X70932387Y-69842266D01*
X70942244Y-69827260D01*
X70952706Y-69804977D01*
X70967469Y-69785280D01*
X70976091Y-69769532D01*
X71002806Y-69698268D01*
X71035233Y-69629201D01*
X71040542Y-69611646D01*
X71044030Y-69588302D01*
X71052828Y-69564834D01*
X71056683Y-69547300D01*
X71063137Y-69460455D01*
X71066308Y-69439236D01*
X71067001Y-69429913D01*
X71067001Y-69408453D01*
X71072883Y-69329293D01*
X71071662Y-69311382D01*
X71067001Y-69289547D01*
X71067001Y-67729587D01*
X71070797Y-67712811D01*
X71072237Y-67694916D01*
X71067001Y-67610516D01*
X71067001Y-67582222D01*
X71066364Y-67573280D01*
X71063413Y-67552674D01*
X71058701Y-67476727D01*
X71055061Y-67459147D01*
X71046703Y-67435995D01*
X71043213Y-67411623D01*
X71038174Y-67394392D01*
X71006672Y-67325107D01*
X70980765Y-67253344D01*
X70972105Y-67237177D01*
X70958066Y-67218203D01*
X70947692Y-67195388D01*
X70938020Y-67180263D01*
X70881176Y-67114293D01*
X70868414Y-67097046D01*
X70862310Y-67089963D01*
X70847140Y-67074793D01*
X70795321Y-67014654D01*
X70781792Y-67002852D01*
X70763054Y-66990707D01*
X69739060Y-65966714D01*
X69759041Y-65853397D01*
X69760000Y-65842436D01*
X69760000Y-65602564D01*
X69759041Y-65591603D01*
X69717387Y-65355374D01*
X69714540Y-65344747D01*
X69632498Y-65119340D01*
X69627848Y-65109368D01*
X69507912Y-64901632D01*
X69501601Y-64892619D01*
X69347413Y-64708866D01*
X69339634Y-64701087D01*
X69155881Y-64546899D01*
X69146868Y-64540588D01*
X68939132Y-64420652D01*
X68929160Y-64416002D01*
X68703753Y-64333960D01*
X68693126Y-64331113D01*
X68456897Y-64289459D01*
X68445936Y-64288500D01*
X68206064Y-64288500D01*
X68195103Y-64289459D01*
X67958874Y-64331113D01*
X67948247Y-64333960D01*
X67722840Y-64416002D01*
X67712868Y-64420652D01*
X67505132Y-64540588D01*
X67496119Y-64546899D01*
X67312366Y-64701087D01*
X67304587Y-64708866D01*
X67150399Y-64892619D01*
X67144088Y-64901632D01*
X67024152Y-65109368D01*
X67019502Y-65119340D01*
X66937460Y-65344747D01*
X66934613Y-65355374D01*
X66892959Y-65591603D01*
X66892000Y-65602564D01*
X66892000Y-65842436D01*
X66892959Y-65853397D01*
X66934613Y-66089626D01*
X66937460Y-66100253D01*
X67019502Y-66325660D01*
X67024152Y-66335632D01*
X67144088Y-66543368D01*
X67150399Y-66552381D01*
X67304587Y-66736134D01*
X67312366Y-66743913D01*
X67496119Y-66898101D01*
X67505132Y-66904412D01*
X67588511Y-66952551D01*
X67537226Y-66980979D01*
X67529406Y-66986105D01*
X67312330Y-67152675D01*
X67305354Y-67158901D01*
X67115282Y-67355726D01*
X67109303Y-67362915D01*
X66950412Y-67585673D01*
X66945561Y-67593667D01*
X66821341Y-67837463D01*
X66817725Y-67846086D01*
X66730904Y-68105565D01*
X66728602Y-68114628D01*
X66726484Y-68126638D01*
X66637708Y-68007969D01*
X66631014Y-68000377D01*
X66449174Y-67824776D01*
X66441353Y-67818351D01*
X66233775Y-67674081D01*
X66225028Y-67668990D01*
X65997056Y-67559764D01*
X65987607Y-67556137D01*
X65745103Y-67484765D01*
X65735196Y-67482695D01*
X65484402Y-67451011D01*
X65474290Y-67450552D01*
X65221656Y-67459374D01*
X65211601Y-67460538D01*
X64963628Y-67509639D01*
X64953889Y-67512394D01*
X64716956Y-67600508D01*
X64707783Y-67604786D01*
X64487984Y-67729649D01*
X64479613Y-67735338D01*
X64426632Y-67777936D01*
X64417120Y-67759662D01*
X64286010Y-67603410D01*
X64269121Y-67589239D01*
X64094880Y-67488641D01*
X64074163Y-67481100D01*
X63881462Y-67447122D01*
X63870501Y-67446163D01*
X61856741Y-67446163D01*
X61848000Y-67447314D01*
X61848000Y-59417799D01*
X62908963Y-59417799D01*
X62908963Y-61361958D01*
X62911119Y-61378334D01*
X62985937Y-61657559D01*
X62998680Y-61682039D01*
X63129790Y-61838290D01*
X63146679Y-61852461D01*
X63271238Y-61924375D01*
X63193647Y-62020193D01*
X63187820Y-62028736D01*
X63063054Y-62248364D01*
X63058699Y-62257744D01*
X62971479Y-62494800D01*
X62968716Y-62504766D01*
X62921385Y-62752884D01*
X62920286Y-62763167D01*
X62914114Y-63015685D01*
X62914710Y-63026009D01*
X62949864Y-63276143D01*
X62952137Y-63286232D01*
X63027673Y-63527266D01*
X63031564Y-63536848D01*
X63145452Y-63762308D01*
X63150855Y-63771126D01*
X63300038Y-63974958D01*
X63306809Y-63982775D01*
X63487280Y-64159504D01*
X63495236Y-64166110D01*
X63539326Y-64196983D01*
X63359754Y-64356414D01*
X63352609Y-64363891D01*
X63193647Y-64560193D01*
X63187820Y-64568736D01*
X63063054Y-64788364D01*
X63058699Y-64797744D01*
X62971479Y-65034800D01*
X62968716Y-65044766D01*
X62921385Y-65292884D01*
X62920286Y-65303167D01*
X62914114Y-65555685D01*
X62914710Y-65566009D01*
X62949864Y-65816143D01*
X62952137Y-65826232D01*
X63027673Y-66067266D01*
X63031564Y-66076848D01*
X63145452Y-66302308D01*
X63150855Y-66311126D01*
X63300038Y-66514958D01*
X63306809Y-66522775D01*
X63487280Y-66699504D01*
X63495237Y-66706110D01*
X63702148Y-66850992D01*
X63711077Y-66856210D01*
X63938873Y-66965351D01*
X63948535Y-66969040D01*
X64191098Y-67039512D01*
X64201232Y-67041573D01*
X64452048Y-67071481D01*
X64462382Y-67071860D01*
X64714714Y-67060402D01*
X64724972Y-67059088D01*
X64972045Y-67006570D01*
X64981950Y-67003599D01*
X65217128Y-66911433D01*
X65226415Y-66906884D01*
X65443382Y-66777546D01*
X65451801Y-66771541D01*
X65644730Y-66608503D01*
X65652055Y-66601203D01*
X65815766Y-66408844D01*
X65821801Y-66400446D01*
X65951895Y-66183931D01*
X65956477Y-66174661D01*
X66049463Y-65939806D01*
X66052470Y-65929911D01*
X66106011Y-65682269D01*
X66107418Y-65670469D01*
X66115385Y-65344513D01*
X66114556Y-65332658D01*
X66073175Y-65082697D01*
X66070655Y-65072667D01*
X65989253Y-64833550D01*
X65985130Y-64824066D01*
X65865767Y-64601455D01*
X65860149Y-64592771D01*
X65706031Y-64392646D01*
X65699072Y-64384997D01*
X65514337Y-64212729D01*
X65506221Y-64206319D01*
X65492463Y-64197179D01*
X65644730Y-64068503D01*
X65652055Y-64061203D01*
X65815766Y-63868844D01*
X65821801Y-63860446D01*
X65885158Y-63755000D01*
X66027409Y-63755000D01*
X66044190Y-63758797D01*
X66062086Y-63760237D01*
X66146495Y-63755000D01*
X66174778Y-63755000D01*
X66183719Y-63754363D01*
X66204325Y-63751413D01*
X66280274Y-63746700D01*
X66297854Y-63743059D01*
X66321001Y-63734703D01*
X66345376Y-63731212D01*
X66362609Y-63726173D01*
X66431896Y-63694669D01*
X66503655Y-63668764D01*
X66519823Y-63660104D01*
X66538792Y-63646067D01*
X66561612Y-63635692D01*
X66576737Y-63626019D01*
X66642717Y-63569167D01*
X66659954Y-63556412D01*
X66667037Y-63550309D01*
X66682194Y-63535151D01*
X66742347Y-63483320D01*
X66754149Y-63469791D01*
X66766299Y-63451046D01*
X68081786Y-62135560D01*
X68195103Y-62155541D01*
X68206064Y-62156500D01*
X68445936Y-62156500D01*
X68456897Y-62155541D01*
X68693126Y-62113887D01*
X68703753Y-62111040D01*
X68929160Y-62028998D01*
X68939132Y-62024348D01*
X69146868Y-61904412D01*
X69155881Y-61898101D01*
X69339634Y-61743913D01*
X69347413Y-61736134D01*
X69501601Y-61552381D01*
X69507912Y-61543368D01*
X69627848Y-61335632D01*
X69632498Y-61325660D01*
X69714540Y-61100253D01*
X69717387Y-61089626D01*
X69759041Y-60853397D01*
X69760000Y-60842436D01*
X69760000Y-60602564D01*
X69759041Y-60591603D01*
X69717387Y-60355374D01*
X69714540Y-60344747D01*
X69632498Y-60119340D01*
X69627848Y-60109368D01*
X69507912Y-59901632D01*
X69501601Y-59892619D01*
X69347413Y-59708866D01*
X69339634Y-59701087D01*
X69155881Y-59546899D01*
X69146868Y-59540588D01*
X68939132Y-59420652D01*
X68929160Y-59416002D01*
X68703753Y-59333960D01*
X68693126Y-59331113D01*
X68456897Y-59289459D01*
X68445936Y-59288500D01*
X68206064Y-59288500D01*
X68195103Y-59289459D01*
X67958874Y-59331113D01*
X67948247Y-59333960D01*
X67722840Y-59416002D01*
X67712868Y-59420652D01*
X67505132Y-59540588D01*
X67496119Y-59546899D01*
X67312366Y-59701087D01*
X67304587Y-59708866D01*
X67150399Y-59892619D01*
X67144088Y-59901632D01*
X67024152Y-60109368D01*
X67019502Y-60119340D01*
X66937460Y-60344747D01*
X66934613Y-60355374D01*
X66892959Y-60591603D01*
X66892000Y-60602564D01*
X66892000Y-60842436D01*
X66892959Y-60853397D01*
X66912940Y-60966714D01*
X65845677Y-62033978D01*
X65761629Y-61924841D01*
X65785059Y-61918563D01*
X65809539Y-61905820D01*
X65965790Y-61774710D01*
X65979961Y-61757821D01*
X66080559Y-61583580D01*
X66088100Y-61562863D01*
X66122078Y-61370162D01*
X66123037Y-61359201D01*
X66123037Y-59438185D01*
X66322131Y-59347873D01*
X66330983Y-59342966D01*
X66541536Y-59203074D01*
X66549489Y-59196815D01*
X66734968Y-59025061D01*
X66741819Y-59017610D01*
X66897451Y-58818411D01*
X66903023Y-58809961D01*
X67024804Y-58588441D01*
X67028953Y-58579209D01*
X67113751Y-58341068D01*
X67116370Y-58331292D01*
X67162063Y-58082332D01*
X67163097Y-58071599D01*
X67166082Y-57786596D01*
X67165273Y-57775844D01*
X67124804Y-57525981D01*
X67122390Y-57516152D01*
X67042597Y-57276287D01*
X67038642Y-57266971D01*
X66921527Y-57042949D01*
X66916134Y-57034384D01*
X66764708Y-56831969D01*
X66758014Y-56824377D01*
X66576174Y-56648776D01*
X66568353Y-56642351D01*
X66371935Y-56505837D01*
X66540258Y-56505837D01*
X66556634Y-56503681D01*
X66835859Y-56428863D01*
X66860339Y-56416120D01*
X67016590Y-56285010D01*
X67030761Y-56268121D01*
X67131359Y-56093880D01*
X67138900Y-56073163D01*
X67172878Y-55880462D01*
X67173837Y-55869501D01*
X67173837Y-54653912D01*
X71530327Y-54653912D01*
X71605273Y-54736000D01*
X72950191Y-54736000D01*
X73024000Y-54662191D01*
X73024000Y-53317424D01*
X72931952Y-53241815D01*
X72710628Y-53285639D01*
X72700889Y-53288394D01*
X72463956Y-53376508D01*
X72454783Y-53380786D01*
X72234984Y-53505649D01*
X72226613Y-53511338D01*
X72029606Y-53669737D01*
X72022252Y-53676691D01*
X71853104Y-53864548D01*
X71846956Y-53872589D01*
X71710019Y-54085075D01*
X71705236Y-54093994D01*
X71604032Y-54325639D01*
X71600737Y-54335209D01*
X71537872Y-54580052D01*
X71536150Y-54590017D01*
X71530327Y-54653912D01*
X67173837Y-54653912D01*
X67173837Y-53861114D01*
X67244056Y-53835765D01*
X67260224Y-53827105D01*
X67279193Y-53813068D01*
X67302013Y-53802693D01*
X67317138Y-53793020D01*
X67383118Y-53736168D01*
X67400355Y-53723413D01*
X67407438Y-53717310D01*
X67422596Y-53702151D01*
X67482748Y-53650320D01*
X67494550Y-53636791D01*
X67506697Y-53618051D01*
X67805008Y-53319741D01*
X67842383Y-53327958D01*
X67852411Y-53329332D01*
X68107375Y-53343587D01*
X68117494Y-53343340D01*
X68371458Y-53316647D01*
X68381406Y-53314785D01*
X68500501Y-53282428D01*
X68596552Y-53261924D01*
X68613400Y-53255725D01*
X68628422Y-53247620D01*
X68637360Y-53244402D01*
X68869913Y-53138912D01*
X68878765Y-53134005D01*
X69091463Y-52992688D01*
X69099416Y-52986429D01*
X69286784Y-52812925D01*
X69293635Y-52805475D01*
X69342270Y-52743225D01*
X69446364Y-52863819D01*
X69453570Y-52870926D01*
X69649190Y-53035070D01*
X69657440Y-53040933D01*
X69876787Y-53171689D01*
X69885868Y-53176158D01*
X70123297Y-53270164D01*
X70132977Y-53273123D01*
X70382383Y-53327958D01*
X70392411Y-53329332D01*
X70647375Y-53343587D01*
X70657494Y-53343340D01*
X70911458Y-53316647D01*
X70921406Y-53314785D01*
X71167836Y-53247831D01*
X71177358Y-53244403D01*
X71409913Y-53138912D01*
X71418765Y-53134005D01*
X71631463Y-52992688D01*
X71639416Y-52986429D01*
X71826784Y-52812926D01*
X71833635Y-52805475D01*
X71990851Y-52604246D01*
X71996423Y-52595797D01*
X72119445Y-52372021D01*
X72123594Y-52362789D01*
X72209256Y-52122223D01*
X72211875Y-52112446D01*
X72258033Y-51860954D01*
X72259067Y-51850221D01*
X72262082Y-51562308D01*
X72261273Y-51551556D01*
X72220393Y-51299152D01*
X72217979Y-51289323D01*
X72137373Y-51047015D01*
X72133418Y-51037699D01*
X72015110Y-50811395D01*
X72009717Y-50802830D01*
X71856749Y-50598354D01*
X71850055Y-50590762D01*
X71666363Y-50413372D01*
X71658542Y-50406947D01*
X71448850Y-50261208D01*
X71440103Y-50256117D01*
X71209808Y-50145778D01*
X71200359Y-50142151D01*
X70955386Y-50070052D01*
X70945479Y-50067982D01*
X70692129Y-50035976D01*
X70682018Y-50035517D01*
X70426811Y-50044429D01*
X70416757Y-50045593D01*
X70166257Y-50095193D01*
X70156518Y-50097948D01*
X69917172Y-50186960D01*
X69907999Y-50191238D01*
X69685962Y-50317372D01*
X69677591Y-50323062D01*
X69478577Y-50483074D01*
X69471223Y-50490028D01*
X69342587Y-50632892D01*
X69316749Y-50598354D01*
X69310055Y-50590762D01*
X69126363Y-50413372D01*
X69118542Y-50406947D01*
X68908850Y-50261208D01*
X68900103Y-50256117D01*
X68669808Y-50145778D01*
X68660359Y-50142151D01*
X68415386Y-50070052D01*
X68405479Y-50067982D01*
X68152129Y-50035976D01*
X68142018Y-50035517D01*
X67886811Y-50044429D01*
X67876757Y-50045593D01*
X67626257Y-50095193D01*
X67616518Y-50097948D01*
X67377172Y-50186960D01*
X67367999Y-50191238D01*
X67145962Y-50317372D01*
X67137591Y-50323062D01*
X67103249Y-50350674D01*
X67100120Y-50344662D01*
X66969010Y-50188410D01*
X66952121Y-50174239D01*
X66777880Y-50073641D01*
X66757163Y-50066100D01*
X66564462Y-50032122D01*
X66553501Y-50031163D01*
X64507742Y-50031163D01*
X64491366Y-50033319D01*
X64212142Y-50108137D01*
X64187662Y-50120880D01*
X64031410Y-50251990D01*
X64017239Y-50268879D01*
X63916641Y-50443120D01*
X63909100Y-50463837D01*
X63875122Y-50656538D01*
X63874163Y-50667499D01*
X63874163Y-52650090D01*
X63622553Y-52901700D01*
X63607997Y-52910884D01*
X63594325Y-52922520D01*
X63538326Y-52985927D01*
X63518342Y-53005910D01*
X63512470Y-53012683D01*
X63499993Y-53029330D01*
X63449613Y-53086375D01*
X63439756Y-53101381D01*
X63429295Y-53123661D01*
X63414531Y-53143361D01*
X63405909Y-53159109D01*
X63379190Y-53230382D01*
X63346768Y-53299439D01*
X63341460Y-53316993D01*
X63337971Y-53340334D01*
X63329172Y-53363808D01*
X63325317Y-53381342D01*
X63318862Y-53468201D01*
X63315693Y-53489404D01*
X63315000Y-53498727D01*
X63315000Y-53520174D01*
X63309117Y-53599348D01*
X63310338Y-53617259D01*
X63315000Y-53639098D01*
X63314999Y-58840201D01*
X63246942Y-58858437D01*
X63222462Y-58871180D01*
X63066210Y-59002290D01*
X63052039Y-59019179D01*
X62951441Y-59193420D01*
X62943900Y-59214137D01*
X62909922Y-59406838D01*
X62908963Y-59417799D01*
X61848000Y-59417799D01*
X61848000Y-49656000D01*
X76624963Y-49656000D01*
X76624963Y-50822546D01*
G36*
X77314329Y-53323339D02*
G01*
X77318604Y-53339294D01*
X77378368Y-53483576D01*
X77407027Y-53552763D01*
X77415285Y-53567067D01*
X77555944Y-53750378D01*
X77567623Y-53762057D01*
X77610362Y-53794852D01*
X81697826Y-57882317D01*
X81696148Y-57892030D01*
X81673238Y-58143777D01*
X81673132Y-58153898D01*
X81690766Y-58406071D01*
X81692279Y-58416078D01*
X81750004Y-58662187D01*
X81753098Y-58671824D01*
X81849428Y-58905538D01*
X81854023Y-58914556D01*
X81901297Y-58991398D01*
X81854628Y-59000639D01*
X81844889Y-59003394D01*
X81607956Y-59091508D01*
X81598783Y-59095786D01*
X81378984Y-59220649D01*
X81370613Y-59226338D01*
X81173606Y-59384737D01*
X81166252Y-59391691D01*
X80997104Y-59579548D01*
X80990956Y-59587589D01*
X80854019Y-59800075D01*
X80849236Y-59808994D01*
X80748032Y-60040639D01*
X80744737Y-60050209D01*
X80681872Y-60295052D01*
X80680150Y-60305017D01*
X80674327Y-60368912D01*
X80749273Y-60451000D01*
X82424000Y-60451000D01*
X82424000Y-60707000D01*
X80745708Y-60707000D01*
X80670039Y-60802471D01*
X80734004Y-61075187D01*
X80737098Y-61084824D01*
X80833428Y-61318538D01*
X80838023Y-61327556D01*
X80970480Y-61542862D01*
X80976458Y-61551030D01*
X81141634Y-61742390D01*
X81148841Y-61749497D01*
X81267610Y-61849155D01*
X81173606Y-61924737D01*
X81166252Y-61931691D01*
X80997104Y-62119548D01*
X80990956Y-62127589D01*
X80854019Y-62340075D01*
X80849236Y-62348994D01*
X80748032Y-62580639D01*
X80744737Y-62590209D01*
X80681871Y-62835056D01*
X80680148Y-62845030D01*
X80657238Y-63096777D01*
X80657132Y-63106898D01*
X80674766Y-63359071D01*
X80676279Y-63369078D01*
X80734004Y-63615187D01*
X80737098Y-63624824D01*
X80833428Y-63858538D01*
X80838023Y-63867556D01*
X80970480Y-64082862D01*
X80976458Y-64091030D01*
X81141634Y-64282390D01*
X81148841Y-64289497D01*
X81190318Y-64324300D01*
X81173606Y-64337737D01*
X81166252Y-64344691D01*
X80997104Y-64532548D01*
X80990956Y-64540589D01*
X80854019Y-64753075D01*
X80849236Y-64761994D01*
X80748032Y-64993639D01*
X80744737Y-65003209D01*
X80681872Y-65248052D01*
X80680150Y-65258017D01*
X80674327Y-65321912D01*
X80749273Y-65404000D01*
X82424000Y-65404000D01*
X82424000Y-67077741D01*
X82507379Y-67152815D01*
X82592504Y-67143869D01*
X82602453Y-67142007D01*
X82846398Y-67075728D01*
X82855920Y-67072300D01*
X82860001Y-67070449D01*
X82860002Y-70686007D01*
X82432846Y-71113163D01*
X81081242Y-71113163D01*
X81064866Y-71115319D01*
X80785642Y-71190137D01*
X80761162Y-71202880D01*
X80614041Y-71326329D01*
X80612863Y-71325900D01*
X80420162Y-71291922D01*
X80409201Y-71290963D01*
X79000309Y-71290963D01*
X78201182Y-70491837D01*
X78538191Y-70491837D01*
X78612000Y-70418028D01*
X78867999Y-70418028D01*
X78941808Y-70491837D01*
X80018258Y-70491837D01*
X80034634Y-70489681D01*
X80313859Y-70414863D01*
X80338339Y-70402120D01*
X80494590Y-70271010D01*
X80508761Y-70254121D01*
X80609359Y-70079880D01*
X80616900Y-70059163D01*
X80650878Y-69866462D01*
X80651837Y-69855501D01*
X80651837Y-68781809D01*
X80578028Y-68708000D01*
X78941809Y-68707999D01*
X78868000Y-68781808D01*
X78867999Y-70418028D01*
X78612000Y-70418028D01*
X78612001Y-68781808D01*
X78612000Y-68781807D01*
X78612000Y-68378191D01*
X78867999Y-68378191D01*
X78941808Y-68452000D01*
X80578028Y-68452001D01*
X80651837Y-68378192D01*
X80651837Y-67301742D01*
X80649681Y-67285366D01*
X80574863Y-67006142D01*
X80562120Y-66981662D01*
X80431010Y-66825410D01*
X80414121Y-66811239D01*
X80239880Y-66710641D01*
X80219163Y-66703100D01*
X80026462Y-66669122D01*
X80015501Y-66668163D01*
X78941809Y-66668163D01*
X78868000Y-66741972D01*
X78867999Y-68378191D01*
X78612000Y-68378191D01*
X78612001Y-66741972D01*
X78538192Y-66668163D01*
X77905999Y-66668163D01*
X77905999Y-65755471D01*
X80670039Y-65755471D01*
X80734004Y-66028187D01*
X80737098Y-66037824D01*
X80833428Y-66271538D01*
X80838023Y-66280556D01*
X80970480Y-66495862D01*
X80976458Y-66504030D01*
X81141634Y-66695390D01*
X81148841Y-66702497D01*
X81342489Y-66864986D01*
X81350739Y-66870849D01*
X81567873Y-67000287D01*
X81576955Y-67004756D01*
X81811991Y-67097813D01*
X81821670Y-67100772D01*
X82073904Y-67156229D01*
X82168000Y-67080574D01*
X82168000Y-65733809D01*
X82094191Y-65660000D01*
X80745708Y-65660000D01*
X80670039Y-65755471D01*
X77905999Y-65755471D01*
X77905999Y-65615089D01*
X77909796Y-65598308D01*
X77911236Y-65580413D01*
X77905999Y-65496004D01*
X77905999Y-65467721D01*
X77905362Y-65458779D01*
X77902411Y-65438173D01*
X77897699Y-65362224D01*
X77894059Y-65344645D01*
X77885701Y-65321492D01*
X77882211Y-65297122D01*
X77877172Y-65279890D01*
X77845668Y-65210601D01*
X77819763Y-65138842D01*
X77811103Y-65122675D01*
X77797064Y-65103703D01*
X77786691Y-65080887D01*
X77777018Y-65065762D01*
X77720173Y-64999790D01*
X77707412Y-64982545D01*
X77701308Y-64975461D01*
X77686143Y-64960297D01*
X77634319Y-64900152D01*
X77620790Y-64888350D01*
X77602048Y-64876202D01*
X76260954Y-63535109D01*
X76306063Y-63289332D01*
X76307097Y-63278599D01*
X76310082Y-62993596D01*
X76309273Y-62982844D01*
X76268804Y-62732981D01*
X76266390Y-62723152D01*
X76186597Y-62483287D01*
X76182642Y-62473971D01*
X76065527Y-62249949D01*
X76060134Y-62241384D01*
X75908708Y-62038969D01*
X75902014Y-62031377D01*
X75720173Y-61855776D01*
X75712352Y-61849351D01*
X75710500Y-61848064D01*
X75878968Y-61692061D01*
X75885819Y-61684610D01*
X76041451Y-61485411D01*
X76047023Y-61476961D01*
X76168804Y-61255441D01*
X76172953Y-61246209D01*
X76257751Y-61008068D01*
X76260370Y-60998292D01*
X76306063Y-60749332D01*
X76307097Y-60738599D01*
X76310082Y-60453596D01*
X76309273Y-60442844D01*
X76268804Y-60192981D01*
X76266390Y-60183152D01*
X76186597Y-59943287D01*
X76182642Y-59933971D01*
X76087424Y-59751834D01*
X76242398Y-59709728D01*
X76251920Y-59706300D01*
X76482131Y-59601873D01*
X76490983Y-59596966D01*
X76701536Y-59457074D01*
X76709489Y-59450815D01*
X76894968Y-59279061D01*
X76901819Y-59271610D01*
X77057451Y-59072411D01*
X77063023Y-59063961D01*
X77184804Y-58842441D01*
X77188953Y-58833209D01*
X77273751Y-58595068D01*
X77276370Y-58585292D01*
X77322063Y-58336332D01*
X77323097Y-58325599D01*
X77326082Y-58040596D01*
X77325273Y-58029844D01*
X77284804Y-57779981D01*
X77282390Y-57770152D01*
X77202597Y-57530287D01*
X77198642Y-57520971D01*
X77081527Y-57296949D01*
X77076134Y-57288384D01*
X76924708Y-57085969D01*
X76918014Y-57078377D01*
X76736173Y-56902776D01*
X76728352Y-56896351D01*
X76726500Y-56895064D01*
X76894968Y-56739061D01*
X76901819Y-56731610D01*
X77057451Y-56532411D01*
X77063023Y-56523961D01*
X77184804Y-56302441D01*
X77188953Y-56293209D01*
X77273751Y-56055068D01*
X77276370Y-56045292D01*
X77322063Y-55796332D01*
X77323097Y-55785599D01*
X77326082Y-55500596D01*
X77325273Y-55489844D01*
X77284804Y-55239981D01*
X77282390Y-55230152D01*
X77202597Y-54990287D01*
X77198642Y-54980971D01*
X77081527Y-54756949D01*
X77076134Y-54748384D01*
X76924708Y-54545969D01*
X76918014Y-54538377D01*
X76736173Y-54362776D01*
X76728352Y-54356351D01*
X76726500Y-54355064D01*
X76894968Y-54199061D01*
X76901819Y-54191610D01*
X77057451Y-53992411D01*
X77063023Y-53983961D01*
X77184804Y-53762441D01*
X77188953Y-53753209D01*
X77273751Y-53515068D01*
X77276370Y-53505292D01*
X77312423Y-53308858D01*
X77314329Y-53323339D01*
G37*
X77314329Y-53323339D02*
X77318604Y-53339294D01*
X77378368Y-53483576D01*
X77407027Y-53552763D01*
X77415285Y-53567067D01*
X77555944Y-53750378D01*
X77567623Y-53762057D01*
X77610362Y-53794852D01*
X81697826Y-57882317D01*
X81696148Y-57892030D01*
X81673238Y-58143777D01*
X81673132Y-58153898D01*
X81690766Y-58406071D01*
X81692279Y-58416078D01*
X81750004Y-58662187D01*
X81753098Y-58671824D01*
X81849428Y-58905538D01*
X81854023Y-58914556D01*
X81901297Y-58991398D01*
X81854628Y-59000639D01*
X81844889Y-59003394D01*
X81607956Y-59091508D01*
X81598783Y-59095786D01*
X81378984Y-59220649D01*
X81370613Y-59226338D01*
X81173606Y-59384737D01*
X81166252Y-59391691D01*
X80997104Y-59579548D01*
X80990956Y-59587589D01*
X80854019Y-59800075D01*
X80849236Y-59808994D01*
X80748032Y-60040639D01*
X80744737Y-60050209D01*
X80681872Y-60295052D01*
X80680150Y-60305017D01*
X80674327Y-60368912D01*
X80749273Y-60451000D01*
X82424000Y-60451000D01*
X82424000Y-60707000D01*
X80745708Y-60707000D01*
X80670039Y-60802471D01*
X80734004Y-61075187D01*
X80737098Y-61084824D01*
X80833428Y-61318538D01*
X80838023Y-61327556D01*
X80970480Y-61542862D01*
X80976458Y-61551030D01*
X81141634Y-61742390D01*
X81148841Y-61749497D01*
X81267610Y-61849155D01*
X81173606Y-61924737D01*
X81166252Y-61931691D01*
X80997104Y-62119548D01*
X80990956Y-62127589D01*
X80854019Y-62340075D01*
X80849236Y-62348994D01*
X80748032Y-62580639D01*
X80744737Y-62590209D01*
X80681871Y-62835056D01*
X80680148Y-62845030D01*
X80657238Y-63096777D01*
X80657132Y-63106898D01*
X80674766Y-63359071D01*
X80676279Y-63369078D01*
X80734004Y-63615187D01*
X80737098Y-63624824D01*
X80833428Y-63858538D01*
X80838023Y-63867556D01*
X80970480Y-64082862D01*
X80976458Y-64091030D01*
X81141634Y-64282390D01*
X81148841Y-64289497D01*
X81190318Y-64324300D01*
X81173606Y-64337737D01*
X81166252Y-64344691D01*
X80997104Y-64532548D01*
X80990956Y-64540589D01*
X80854019Y-64753075D01*
X80849236Y-64761994D01*
X80748032Y-64993639D01*
X80744737Y-65003209D01*
X80681872Y-65248052D01*
X80680150Y-65258017D01*
X80674327Y-65321912D01*
X80749273Y-65404000D01*
X82424000Y-65404000D01*
X82424000Y-67077741D01*
X82507379Y-67152815D01*
X82592504Y-67143869D01*
X82602453Y-67142007D01*
X82846398Y-67075728D01*
X82855920Y-67072300D01*
X82860001Y-67070449D01*
X82860002Y-70686007D01*
X82432846Y-71113163D01*
X81081242Y-71113163D01*
X81064866Y-71115319D01*
X80785642Y-71190137D01*
X80761162Y-71202880D01*
X80614041Y-71326329D01*
X80612863Y-71325900D01*
X80420162Y-71291922D01*
X80409201Y-71290963D01*
X79000309Y-71290963D01*
X78201182Y-70491837D01*
X78538191Y-70491837D01*
X78612000Y-70418028D01*
X78867999Y-70418028D01*
X78941808Y-70491837D01*
X80018258Y-70491837D01*
X80034634Y-70489681D01*
X80313859Y-70414863D01*
X80338339Y-70402120D01*
X80494590Y-70271010D01*
X80508761Y-70254121D01*
X80609359Y-70079880D01*
X80616900Y-70059163D01*
X80650878Y-69866462D01*
X80651837Y-69855501D01*
X80651837Y-68781809D01*
X80578028Y-68708000D01*
X78941809Y-68707999D01*
X78868000Y-68781808D01*
X78867999Y-70418028D01*
X78612000Y-70418028D01*
X78612001Y-68781808D01*
X78612000Y-68781807D01*
X78612000Y-68378191D01*
X78867999Y-68378191D01*
X78941808Y-68452000D01*
X80578028Y-68452001D01*
X80651837Y-68378192D01*
X80651837Y-67301742D01*
X80649681Y-67285366D01*
X80574863Y-67006142D01*
X80562120Y-66981662D01*
X80431010Y-66825410D01*
X80414121Y-66811239D01*
X80239880Y-66710641D01*
X80219163Y-66703100D01*
X80026462Y-66669122D01*
X80015501Y-66668163D01*
X78941809Y-66668163D01*
X78868000Y-66741972D01*
X78867999Y-68378191D01*
X78612000Y-68378191D01*
X78612001Y-66741972D01*
X78538192Y-66668163D01*
X77905999Y-66668163D01*
X77905999Y-65755471D01*
X80670039Y-65755471D01*
X80734004Y-66028187D01*
X80737098Y-66037824D01*
X80833428Y-66271538D01*
X80838023Y-66280556D01*
X80970480Y-66495862D01*
X80976458Y-66504030D01*
X81141634Y-66695390D01*
X81148841Y-66702497D01*
X81342489Y-66864986D01*
X81350739Y-66870849D01*
X81567873Y-67000287D01*
X81576955Y-67004756D01*
X81811991Y-67097813D01*
X81821670Y-67100772D01*
X82073904Y-67156229D01*
X82168000Y-67080574D01*
X82168000Y-65733809D01*
X82094191Y-65660000D01*
X80745708Y-65660000D01*
X80670039Y-65755471D01*
X77905999Y-65755471D01*
X77905999Y-65615089D01*
X77909796Y-65598308D01*
X77911236Y-65580413D01*
X77905999Y-65496004D01*
X77905999Y-65467721D01*
X77905362Y-65458779D01*
X77902411Y-65438173D01*
X77897699Y-65362224D01*
X77894059Y-65344645D01*
X77885701Y-65321492D01*
X77882211Y-65297122D01*
X77877172Y-65279890D01*
X77845668Y-65210601D01*
X77819763Y-65138842D01*
X77811103Y-65122675D01*
X77797064Y-65103703D01*
X77786691Y-65080887D01*
X77777018Y-65065762D01*
X77720173Y-64999790D01*
X77707412Y-64982545D01*
X77701308Y-64975461D01*
X77686143Y-64960297D01*
X77634319Y-64900152D01*
X77620790Y-64888350D01*
X77602048Y-64876202D01*
X76260954Y-63535109D01*
X76306063Y-63289332D01*
X76307097Y-63278599D01*
X76310082Y-62993596D01*
X76309273Y-62982844D01*
X76268804Y-62732981D01*
X76266390Y-62723152D01*
X76186597Y-62483287D01*
X76182642Y-62473971D01*
X76065527Y-62249949D01*
X76060134Y-62241384D01*
X75908708Y-62038969D01*
X75902014Y-62031377D01*
X75720173Y-61855776D01*
X75712352Y-61849351D01*
X75710500Y-61848064D01*
X75878968Y-61692061D01*
X75885819Y-61684610D01*
X76041451Y-61485411D01*
X76047023Y-61476961D01*
X76168804Y-61255441D01*
X76172953Y-61246209D01*
X76257751Y-61008068D01*
X76260370Y-60998292D01*
X76306063Y-60749332D01*
X76307097Y-60738599D01*
X76310082Y-60453596D01*
X76309273Y-60442844D01*
X76268804Y-60192981D01*
X76266390Y-60183152D01*
X76186597Y-59943287D01*
X76182642Y-59933971D01*
X76087424Y-59751834D01*
X76242398Y-59709728D01*
X76251920Y-59706300D01*
X76482131Y-59601873D01*
X76490983Y-59596966D01*
X76701536Y-59457074D01*
X76709489Y-59450815D01*
X76894968Y-59279061D01*
X76901819Y-59271610D01*
X77057451Y-59072411D01*
X77063023Y-59063961D01*
X77184804Y-58842441D01*
X77188953Y-58833209D01*
X77273751Y-58595068D01*
X77276370Y-58585292D01*
X77322063Y-58336332D01*
X77323097Y-58325599D01*
X77326082Y-58040596D01*
X77325273Y-58029844D01*
X77284804Y-57779981D01*
X77282390Y-57770152D01*
X77202597Y-57530287D01*
X77198642Y-57520971D01*
X77081527Y-57296949D01*
X77076134Y-57288384D01*
X76924708Y-57085969D01*
X76918014Y-57078377D01*
X76736173Y-56902776D01*
X76728352Y-56896351D01*
X76726500Y-56895064D01*
X76894968Y-56739061D01*
X76901819Y-56731610D01*
X77057451Y-56532411D01*
X77063023Y-56523961D01*
X77184804Y-56302441D01*
X77188953Y-56293209D01*
X77273751Y-56055068D01*
X77276370Y-56045292D01*
X77322063Y-55796332D01*
X77323097Y-55785599D01*
X77326082Y-55500596D01*
X77325273Y-55489844D01*
X77284804Y-55239981D01*
X77282390Y-55230152D01*
X77202597Y-54990287D01*
X77198642Y-54980971D01*
X77081527Y-54756949D01*
X77076134Y-54748384D01*
X76924708Y-54545969D01*
X76918014Y-54538377D01*
X76736173Y-54362776D01*
X76728352Y-54356351D01*
X76726500Y-54355064D01*
X76894968Y-54199061D01*
X76901819Y-54191610D01*
X77057451Y-53992411D01*
X77063023Y-53983961D01*
X77184804Y-53762441D01*
X77188953Y-53753209D01*
X77273751Y-53515068D01*
X77276370Y-53505292D01*
X77312423Y-53308858D01*
X77314329Y-53323339D01*
G36*
X84202000Y-51714633D02*
G01*
X84140775Y-51672081D01*
X84132028Y-51666990D01*
X83904056Y-51557764D01*
X83894607Y-51554137D01*
X83652103Y-51482765D01*
X83642196Y-51480695D01*
X83391402Y-51449011D01*
X83381290Y-51448552D01*
X83128656Y-51457374D01*
X83118601Y-51458538D01*
X82870628Y-51507639D01*
X82860889Y-51510394D01*
X82623956Y-51598508D01*
X82614783Y-51602786D01*
X82394984Y-51727649D01*
X82386613Y-51733338D01*
X82189606Y-51891737D01*
X82182252Y-51898691D01*
X82013104Y-52086548D01*
X82006956Y-52094589D01*
X81870019Y-52307075D01*
X81865236Y-52315994D01*
X81764032Y-52547639D01*
X81760737Y-52557209D01*
X81697871Y-52802056D01*
X81696148Y-52812030D01*
X81673238Y-53063777D01*
X81673132Y-53073898D01*
X81690766Y-53326071D01*
X81692279Y-53336078D01*
X81750004Y-53582187D01*
X81753098Y-53591824D01*
X81849428Y-53825538D01*
X81854023Y-53834556D01*
X81986480Y-54049862D01*
X81992458Y-54058030D01*
X82157634Y-54249390D01*
X82164841Y-54256497D01*
X82283610Y-54356155D01*
X82189606Y-54431737D01*
X82182252Y-54438691D01*
X82013104Y-54626548D01*
X82006956Y-54634589D01*
X81870019Y-54847075D01*
X81865236Y-54855994D01*
X81764032Y-55087639D01*
X81760737Y-55097209D01*
X81722525Y-55246035D01*
X79172800Y-52696310D01*
X79172800Y-52153037D01*
X79205458Y-52153037D01*
X79221834Y-52150881D01*
X79501059Y-52076063D01*
X79525539Y-52063320D01*
X79681790Y-51932210D01*
X79695961Y-51915321D01*
X79766025Y-51793966D01*
X79958148Y-51928492D01*
X79967077Y-51933710D01*
X80194873Y-52042851D01*
X80204535Y-52046540D01*
X80447098Y-52117012D01*
X80457232Y-52119073D01*
X80559309Y-52131246D01*
X80644000Y-52056054D01*
X80644000Y-50747809D01*
X80900000Y-50747809D01*
X80900000Y-52058301D01*
X80993412Y-52133944D01*
X81228045Y-52084070D01*
X81237950Y-52081099D01*
X81473128Y-51988933D01*
X81482415Y-51984384D01*
X81699382Y-51855046D01*
X81707801Y-51849041D01*
X81900730Y-51686003D01*
X81908055Y-51678703D01*
X82071766Y-51486344D01*
X82077801Y-51477946D01*
X82207895Y-51261431D01*
X82212477Y-51252161D01*
X82305463Y-51017306D01*
X82308470Y-51007411D01*
X82360285Y-50767753D01*
X82284636Y-50674000D01*
X80973809Y-50674000D01*
X80900000Y-50747809D01*
X80644000Y-50747809D01*
X80644000Y-50418000D01*
X82281634Y-50418000D01*
X82357119Y-50328991D01*
X82329174Y-50160196D01*
X82326655Y-50150166D01*
X82245253Y-49911050D01*
X82241130Y-49901566D01*
X82121767Y-49678955D01*
X82116149Y-49670271D01*
X82105159Y-49656000D01*
X84202000Y-49656000D01*
X84202000Y-51714633D01*
G37*
X84202000Y-51714633D02*
X84140775Y-51672081D01*
X84132028Y-51666990D01*
X83904056Y-51557764D01*
X83894607Y-51554137D01*
X83652103Y-51482765D01*
X83642196Y-51480695D01*
X83391402Y-51449011D01*
X83381290Y-51448552D01*
X83128656Y-51457374D01*
X83118601Y-51458538D01*
X82870628Y-51507639D01*
X82860889Y-51510394D01*
X82623956Y-51598508D01*
X82614783Y-51602786D01*
X82394984Y-51727649D01*
X82386613Y-51733338D01*
X82189606Y-51891737D01*
X82182252Y-51898691D01*
X82013104Y-52086548D01*
X82006956Y-52094589D01*
X81870019Y-52307075D01*
X81865236Y-52315994D01*
X81764032Y-52547639D01*
X81760737Y-52557209D01*
X81697871Y-52802056D01*
X81696148Y-52812030D01*
X81673238Y-53063777D01*
X81673132Y-53073898D01*
X81690766Y-53326071D01*
X81692279Y-53336078D01*
X81750004Y-53582187D01*
X81753098Y-53591824D01*
X81849428Y-53825538D01*
X81854023Y-53834556D01*
X81986480Y-54049862D01*
X81992458Y-54058030D01*
X82157634Y-54249390D01*
X82164841Y-54256497D01*
X82283610Y-54356155D01*
X82189606Y-54431737D01*
X82182252Y-54438691D01*
X82013104Y-54626548D01*
X82006956Y-54634589D01*
X81870019Y-54847075D01*
X81865236Y-54855994D01*
X81764032Y-55087639D01*
X81760737Y-55097209D01*
X81722525Y-55246035D01*
X79172800Y-52696310D01*
X79172800Y-52153037D01*
X79205458Y-52153037D01*
X79221834Y-52150881D01*
X79501059Y-52076063D01*
X79525539Y-52063320D01*
X79681790Y-51932210D01*
X79695961Y-51915321D01*
X79766025Y-51793966D01*
X79958148Y-51928492D01*
X79967077Y-51933710D01*
X80194873Y-52042851D01*
X80204535Y-52046540D01*
X80447098Y-52117012D01*
X80457232Y-52119073D01*
X80559309Y-52131246D01*
X80644000Y-52056054D01*
X80644000Y-50747809D01*
X80900000Y-50747809D01*
X80900000Y-52058301D01*
X80993412Y-52133944D01*
X81228045Y-52084070D01*
X81237950Y-52081099D01*
X81473128Y-51988933D01*
X81482415Y-51984384D01*
X81699382Y-51855046D01*
X81707801Y-51849041D01*
X81900730Y-51686003D01*
X81908055Y-51678703D01*
X82071766Y-51486344D01*
X82077801Y-51477946D01*
X82207895Y-51261431D01*
X82212477Y-51252161D01*
X82305463Y-51017306D01*
X82308470Y-51007411D01*
X82360285Y-50767753D01*
X82284636Y-50674000D01*
X80973809Y-50674000D01*
X80900000Y-50747809D01*
X80644000Y-50747809D01*
X80644000Y-50418000D01*
X82281634Y-50418000D01*
X82357119Y-50328991D01*
X82329174Y-50160196D01*
X82326655Y-50150166D01*
X82245253Y-49911050D01*
X82241130Y-49901566D01*
X82121767Y-49678955D01*
X82116149Y-49670271D01*
X82105159Y-49656000D01*
X84202000Y-49656000D01*
X84202000Y-51714633D01*
M02*
