G04 #@! TF.GenerationSoftware,KiCad,Pcbnew,(5.99.0-1200-g9ab2fcda7)*
G04 #@! TF.CreationDate,2020-04-02T19:41:38+03:00*
G04 #@! TF.ProjectId,superduro,73757065-7264-4757-926f-2e6b69636164,rev?*
G04 #@! TF.SameCoordinates,Original*
G04 #@! TF.FileFunction,Copper,L2,Bot*
G04 #@! TF.FilePolarity,Positive*
%FSLAX46Y46*%
G04 Gerber Fmt 4.6, Leading zero omitted, Abs format (unit mm)*
G04 Created by KiCad (PCBNEW (5.99.0-1200-g9ab2fcda7)) date 2020-04-02 19:41:38*
%MOMM*%
%LPD*%
G01*
G04 APERTURE LIST*
G04 #@! TA.AperFunction,NonConductor*
%ADD10C,0.100000*%
G04 #@! TD*
G04 #@! TA.AperFunction,ComponentPad*
%ADD11O,1.930400X1.930400*%
G04 #@! TD*
G04 #@! TA.AperFunction,ComponentPad*
%ADD12R,1.930400X1.930400*%
G04 #@! TD*
G04 #@! TA.AperFunction,ComponentPad*
%ADD13C,1.600000*%
G04 #@! TD*
G04 #@! TA.AperFunction,ComponentPad*
%ADD14O,2.000000X2.000000*%
G04 #@! TD*
G04 #@! TA.AperFunction,ComponentPad*
%ADD15O,2.032000X2.032000*%
G04 #@! TD*
G04 #@! TA.AperFunction,ComponentPad*
%ADD16R,2.032000X2.032000*%
G04 #@! TD*
G04 #@! TA.AperFunction,SMDPad,CuDef*
%ADD17R,0.900000X0.800000*%
G04 #@! TD*
G04 #@! TA.AperFunction,ComponentPad*
%ADD18R,2.000000X2.000000*%
G04 #@! TD*
G04 #@! TA.AperFunction,ComponentPad*
%ADD19O,2.540000X2.540000*%
G04 #@! TD*
G04 #@! TA.AperFunction,ComponentPad*
%ADD20R,2.540000X2.540000*%
G04 #@! TD*
G04 #@! TA.AperFunction,ComponentPad*
%ADD21C,1.800000*%
G04 #@! TD*
G04 #@! TA.AperFunction,ComponentPad*
%ADD22R,1.800000X1.800000*%
G04 #@! TD*
G04 #@! TA.AperFunction,ViaPad*
%ADD23C,0.800000*%
G04 #@! TD*
G04 #@! TA.AperFunction,Conductor*
%ADD24C,0.381000*%
G04 #@! TD*
G04 #@! TA.AperFunction,Conductor*
%ADD25C,0.609600*%
G04 #@! TD*
G04 #@! TA.AperFunction,Conductor*
%ADD26C,0.254000*%
G04 #@! TD*
G04 APERTURE END LIST*
D10*
X68456600Y-62735371D02*
X68278028Y-63268704D01*
X68099457Y-62735371D01*
X67670885Y-62468704D02*
X67599457Y-62468704D01*
X67528028Y-62506800D01*
X67492314Y-62544895D01*
X67456600Y-62621085D01*
X67420885Y-62773466D01*
X67420885Y-62963942D01*
X67456600Y-63116323D01*
X67492314Y-63192514D01*
X67528028Y-63230609D01*
X67599457Y-63268704D01*
X67670885Y-63268704D01*
X67742314Y-63230609D01*
X67778028Y-63192514D01*
X67813742Y-63116323D01*
X67849457Y-62963942D01*
X67849457Y-62773466D01*
X67813742Y-62621085D01*
X67778028Y-62544895D01*
X67742314Y-62506800D01*
X67670885Y-62468704D01*
X67099457Y-63192514D02*
X67063742Y-63230609D01*
X67099457Y-63268704D01*
X67135171Y-63230609D01*
X67099457Y-63192514D01*
X67099457Y-63268704D01*
X66778028Y-62544895D02*
X66742314Y-62506800D01*
X66670885Y-62468704D01*
X66492314Y-62468704D01*
X66420885Y-62506800D01*
X66385171Y-62544895D01*
X66349457Y-62621085D01*
X66349457Y-62697276D01*
X66385171Y-62811561D01*
X66813742Y-63268704D01*
X66349457Y-63268704D01*
X73635171Y-63832895D02*
X73599457Y-63794800D01*
X73528028Y-63756704D01*
X73349457Y-63756704D01*
X73278028Y-63794800D01*
X73242314Y-63832895D01*
X73206600Y-63909085D01*
X73206600Y-63985276D01*
X73242314Y-64099561D01*
X73670885Y-64556704D01*
X73206600Y-64556704D01*
X72742314Y-63756704D02*
X72670885Y-63756704D01*
X72599457Y-63794800D01*
X72563742Y-63832895D01*
X72528028Y-63909085D01*
X72492314Y-64061466D01*
X72492314Y-64251942D01*
X72528028Y-64404323D01*
X72563742Y-64480514D01*
X72599457Y-64518609D01*
X72670885Y-64556704D01*
X72742314Y-64556704D01*
X72813742Y-64518609D01*
X72849457Y-64480514D01*
X72885171Y-64404323D01*
X72920885Y-64251942D01*
X72920885Y-64061466D01*
X72885171Y-63909085D01*
X72849457Y-63832895D01*
X72813742Y-63794800D01*
X72742314Y-63756704D01*
X72206600Y-63832895D02*
X72170885Y-63794800D01*
X72099457Y-63756704D01*
X71920885Y-63756704D01*
X71849457Y-63794800D01*
X71813742Y-63832895D01*
X71778028Y-63909085D01*
X71778028Y-63985276D01*
X71813742Y-64099561D01*
X72242314Y-64556704D01*
X71778028Y-64556704D01*
X71313742Y-63756704D02*
X71242314Y-63756704D01*
X71170885Y-63794800D01*
X71135171Y-63832895D01*
X71099457Y-63909085D01*
X71063742Y-64061466D01*
X71063742Y-64251942D01*
X71099457Y-64404323D01*
X71135171Y-64480514D01*
X71170885Y-64518609D01*
X71242314Y-64556704D01*
X71313742Y-64556704D01*
X71385171Y-64518609D01*
X71420885Y-64480514D01*
X71456600Y-64404323D01*
X71492314Y-64251942D01*
X71492314Y-64061466D01*
X71456600Y-63909085D01*
X71420885Y-63832895D01*
X71385171Y-63794800D01*
X71313742Y-63756704D01*
X70742314Y-64251942D02*
X70170885Y-64251942D01*
X69670885Y-63756704D02*
X69599457Y-63756704D01*
X69528028Y-63794800D01*
X69492314Y-63832895D01*
X69456600Y-63909085D01*
X69420885Y-64061466D01*
X69420885Y-64251942D01*
X69456600Y-64404323D01*
X69492314Y-64480514D01*
X69528028Y-64518609D01*
X69599457Y-64556704D01*
X69670885Y-64556704D01*
X69742314Y-64518609D01*
X69778028Y-64480514D01*
X69813742Y-64404323D01*
X69849457Y-64251942D01*
X69849457Y-64061466D01*
X69813742Y-63909085D01*
X69778028Y-63832895D01*
X69742314Y-63794800D01*
X69670885Y-63756704D01*
X68778028Y-64023371D02*
X68778028Y-64556704D01*
X68956600Y-63718609D02*
X69135171Y-64290038D01*
X68670885Y-64290038D01*
X68385171Y-64251942D02*
X67813742Y-64251942D01*
X67313742Y-63756704D02*
X67242314Y-63756704D01*
X67170885Y-63794800D01*
X67135171Y-63832895D01*
X67099457Y-63909085D01*
X67063742Y-64061466D01*
X67063742Y-64251942D01*
X67099457Y-64404323D01*
X67135171Y-64480514D01*
X67170885Y-64518609D01*
X67242314Y-64556704D01*
X67313742Y-64556704D01*
X67385171Y-64518609D01*
X67420885Y-64480514D01*
X67456600Y-64404323D01*
X67492314Y-64251942D01*
X67492314Y-64061466D01*
X67456600Y-63909085D01*
X67420885Y-63832895D01*
X67385171Y-63794800D01*
X67313742Y-63756704D01*
X66778028Y-63832895D02*
X66742314Y-63794800D01*
X66670885Y-63756704D01*
X66492314Y-63756704D01*
X66420885Y-63794800D01*
X66385171Y-63832895D01*
X66349457Y-63909085D01*
X66349457Y-63985276D01*
X66385171Y-64099561D01*
X66813742Y-64556704D01*
X66349457Y-64556704D01*
D11*
X80772000Y-50546000D03*
D12*
X78232000Y-50546000D03*
D11*
X77470000Y-76835000D03*
X74930000Y-76835000D03*
X72390000Y-76835000D03*
D12*
X69850000Y-76835000D03*
D13*
X71628000Y-60722500D03*
X71628000Y-65722500D03*
X68326000Y-60722500D03*
X68326000Y-65722500D03*
D14*
X82296000Y-63119000D03*
X74676000Y-63119000D03*
D15*
X70612000Y-51689000D03*
X68072000Y-51689000D03*
D16*
X65532000Y-51689000D03*
D14*
X83312000Y-55626000D03*
X75692000Y-55626000D03*
X75692000Y-58166000D03*
X83312000Y-58166000D03*
D17*
X70596000Y-56642000D03*
X68596000Y-55692000D03*
X68596000Y-57592000D03*
D18*
X62865000Y-69088000D03*
D14*
X62865000Y-76708000D03*
D18*
X65532000Y-54864000D03*
D14*
X73152000Y-54864000D03*
D18*
X73152000Y-57912000D03*
D14*
X65532000Y-57912000D03*
D11*
X67868800Y-72898000D03*
D12*
X70408800Y-72898000D03*
D15*
X82105500Y-75438000D03*
D16*
X82105500Y-72771000D03*
D19*
X68580000Y-68580000D03*
X73660000Y-68580000D03*
D20*
X78740000Y-68580000D03*
D11*
X64516000Y-65468500D03*
X64516000Y-62928500D03*
D12*
X64516000Y-60388500D03*
D14*
X65405000Y-69088000D03*
X65405000Y-76708000D03*
X82296000Y-65532000D03*
X74676000Y-65532000D03*
X83312000Y-53086000D03*
X75692000Y-53086000D03*
X82296000Y-60579000D03*
X74676000Y-60579000D03*
D21*
X73660000Y-71945500D03*
D22*
X73660000Y-74485500D03*
D11*
X76898500Y-72898000D03*
D12*
X79438500Y-72898000D03*
D23*
X77825600Y-55295800D03*
D24*
X70662800Y-63119000D02*
X74676000Y-63119000D01*
X68199000Y-61976000D02*
X69545200Y-61976000D01*
X69545200Y-61976000D02*
X70662800Y-63093600D01*
X70662800Y-63093600D02*
X70662800Y-63119000D01*
X70332379Y-61188821D02*
X71056559Y-61913001D01*
X69866058Y-60722500D02*
X70332379Y-61188821D01*
X68326000Y-60722500D02*
X69866058Y-60722500D01*
X71844401Y-61913001D02*
X73341999Y-61913001D01*
X71056559Y-61913001D02*
X71844401Y-61913001D01*
X67755499Y-58304401D02*
X68568449Y-59117351D01*
X68568449Y-59117351D02*
X70022851Y-59117351D01*
X70022851Y-59117351D02*
X71628000Y-60722500D01*
X66090800Y-61976000D02*
X68199000Y-61976000D01*
X64516000Y-60401200D02*
X66090800Y-61976000D01*
X64516000Y-60388500D02*
X64516000Y-60401200D01*
D25*
X68596000Y-57592000D02*
X69550801Y-56637199D01*
X69550801Y-56637199D02*
X69550801Y-55928557D01*
X69550801Y-55928557D02*
X72393358Y-53086000D01*
X72393358Y-53086000D02*
X75692000Y-53086000D01*
X68596000Y-57592000D02*
X72832000Y-57592000D01*
X72832000Y-57592000D02*
X73152000Y-57912000D01*
D24*
X65532000Y-51689000D02*
X66938501Y-50282499D01*
X66938501Y-50282499D02*
X75335197Y-50282499D01*
X75335197Y-50282499D02*
X78138698Y-53086000D01*
X78138698Y-53086000D02*
X83312000Y-53086000D01*
X74676000Y-60579000D02*
X79756000Y-60579000D01*
X79756000Y-60579000D02*
X82296000Y-63119000D01*
X73341999Y-61913001D02*
X74676000Y-60579000D01*
D25*
X82105500Y-72771000D02*
X79689301Y-70354801D01*
X79689301Y-70354801D02*
X66671801Y-70354801D01*
X66671801Y-70354801D02*
X65405000Y-69088000D01*
D24*
X68596000Y-55692000D02*
X68596000Y-53705000D01*
X68596000Y-53705000D02*
X70612000Y-51689000D01*
X68596000Y-55692000D02*
X67755499Y-56532501D01*
X67755499Y-56532501D02*
X67755499Y-58304401D01*
X68326000Y-60722500D02*
X65532000Y-57928500D01*
X65532000Y-57928500D02*
X65532000Y-57912000D01*
X62865000Y-69088000D02*
X62865000Y-64579500D01*
X62865000Y-64579500D02*
X64516000Y-62928500D01*
X70596000Y-56642000D02*
X70716501Y-56521499D01*
X70716501Y-56521499D02*
X74542501Y-56521499D01*
X74542501Y-56521499D02*
X75692000Y-55372000D01*
X68580000Y-68580000D02*
X65468500Y-65468500D01*
X65468500Y-65468500D02*
X64516000Y-65468500D01*
X77470000Y-75057000D02*
X77470000Y-76835000D01*
X76835000Y-74422000D02*
X77470000Y-75057000D01*
X76835000Y-72898000D02*
X76835000Y-74422000D01*
G36*
X84202001Y-78487000D02*
G01*
X61848000Y-78487000D01*
X61848000Y-77987713D01*
X61911489Y-78040986D01*
X61919739Y-78046849D01*
X62136873Y-78176287D01*
X62145955Y-78180756D01*
X62380991Y-78273813D01*
X62390670Y-78276772D01*
X62637561Y-78331054D01*
X62647589Y-78332428D01*
X62899983Y-78346539D01*
X62910101Y-78346292D01*
X63161504Y-78319869D01*
X63171453Y-78318007D01*
X63415398Y-78251728D01*
X63424920Y-78248300D01*
X63655131Y-78143873D01*
X63663983Y-78138966D01*
X63874536Y-77999074D01*
X63882489Y-77992815D01*
X64067968Y-77821061D01*
X64074819Y-77813610D01*
X64134654Y-77737025D01*
X64250634Y-77871390D01*
X64257841Y-77878497D01*
X64451489Y-78040986D01*
X64459739Y-78046849D01*
X64676873Y-78176287D01*
X64685955Y-78180756D01*
X64920991Y-78273813D01*
X64930670Y-78276772D01*
X65177561Y-78331054D01*
X65187589Y-78332428D01*
X65439983Y-78346539D01*
X65450101Y-78346292D01*
X65701504Y-78319869D01*
X65711453Y-78318007D01*
X65955398Y-78251728D01*
X65964920Y-78248300D01*
X66195131Y-78143873D01*
X66203983Y-78138966D01*
X66414536Y-77999074D01*
X66422489Y-77992815D01*
X66607968Y-77821061D01*
X66614819Y-77813610D01*
X66770451Y-77614411D01*
X66776023Y-77605961D01*
X66897804Y-77384441D01*
X66901953Y-77375209D01*
X66986751Y-77137068D01*
X66989370Y-77127292D01*
X67035063Y-76878332D01*
X67036097Y-76867599D01*
X67039082Y-76582596D01*
X67038273Y-76571844D01*
X66997804Y-76321981D01*
X66995390Y-76312152D01*
X66915597Y-76072287D01*
X66911642Y-76062971D01*
X66794527Y-75838949D01*
X66789134Y-75830384D01*
X66637708Y-75627969D01*
X66631014Y-75620377D01*
X66449174Y-75444776D01*
X66441353Y-75438351D01*
X66233775Y-75294081D01*
X66225028Y-75288990D01*
X65997056Y-75179764D01*
X65987607Y-75176137D01*
X65745103Y-75104765D01*
X65735196Y-75102695D01*
X65484402Y-75071011D01*
X65474290Y-75070552D01*
X65221656Y-75079374D01*
X65211601Y-75080538D01*
X64963628Y-75129639D01*
X64953889Y-75132394D01*
X64716956Y-75220508D01*
X64707783Y-75224786D01*
X64487984Y-75349649D01*
X64479613Y-75355338D01*
X64282606Y-75513737D01*
X64275252Y-75520691D01*
X64134443Y-75677074D01*
X64097708Y-75627969D01*
X64091014Y-75620377D01*
X63909174Y-75444776D01*
X63901353Y-75438351D01*
X63693775Y-75294081D01*
X63685028Y-75288990D01*
X63457056Y-75179764D01*
X63447607Y-75176137D01*
X63205103Y-75104765D01*
X63195196Y-75102695D01*
X62944402Y-75071011D01*
X62934290Y-75070552D01*
X62681656Y-75079374D01*
X62671601Y-75080538D01*
X62423628Y-75129639D01*
X62413889Y-75132394D01*
X62176956Y-75220508D01*
X62167783Y-75224786D01*
X61947984Y-75349649D01*
X61939613Y-75355338D01*
X61848000Y-75428997D01*
X61848000Y-73112672D01*
X66283976Y-73112672D01*
X66302664Y-73245644D01*
X66304937Y-73255732D01*
X66380473Y-73496766D01*
X66384364Y-73506348D01*
X66498252Y-73731808D01*
X66503655Y-73740626D01*
X66652838Y-73944458D01*
X66659609Y-73952275D01*
X66840080Y-74129004D01*
X66848037Y-74135610D01*
X67054948Y-74280492D01*
X67063877Y-74285710D01*
X67291673Y-74394851D01*
X67301335Y-74398540D01*
X67543898Y-74469012D01*
X67554032Y-74471073D01*
X67656109Y-74483246D01*
X67740800Y-74408054D01*
X67740801Y-73099809D01*
X67666992Y-73026000D01*
X66359319Y-73025999D01*
X66283976Y-73112672D01*
X61848000Y-73112672D01*
X61848000Y-72678631D01*
X66282531Y-72678631D01*
X66358118Y-72770000D01*
X67666991Y-72770001D01*
X67740800Y-72696192D01*
X67740801Y-71382957D01*
X67644986Y-71307286D01*
X67375313Y-71371531D01*
X67365483Y-71374743D01*
X67132627Y-71472627D01*
X67123454Y-71477402D01*
X66909712Y-71612003D01*
X66901442Y-71618212D01*
X66712554Y-71785914D01*
X66705409Y-71793391D01*
X66546447Y-71989693D01*
X66540620Y-71998236D01*
X66415854Y-72217864D01*
X66411499Y-72227244D01*
X66324279Y-72464300D01*
X66321516Y-72474266D01*
X66282531Y-72678631D01*
X61848000Y-72678631D01*
X61848000Y-70728783D01*
X61848538Y-70728878D01*
X61859499Y-70729837D01*
X63873258Y-70729837D01*
X63889634Y-70727681D01*
X64168859Y-70652863D01*
X64193339Y-70640120D01*
X64349590Y-70509010D01*
X64363761Y-70492121D01*
X64420058Y-70394612D01*
X64451489Y-70420986D01*
X64459739Y-70426849D01*
X64676873Y-70556287D01*
X64685955Y-70560756D01*
X64920991Y-70653813D01*
X64930670Y-70656772D01*
X65177561Y-70711054D01*
X65187589Y-70712428D01*
X65439983Y-70726539D01*
X65450101Y-70726292D01*
X65687817Y-70701308D01*
X65962952Y-70976443D01*
X65995744Y-71019179D01*
X66007423Y-71030858D01*
X66190734Y-71171517D01*
X66205038Y-71179776D01*
X66418508Y-71268197D01*
X66434462Y-71272472D01*
X66601957Y-71294523D01*
X66663542Y-71302631D01*
X66680059Y-71302631D01*
X66733456Y-71295601D01*
X69409703Y-71295601D01*
X69139742Y-71367937D01*
X69115262Y-71380680D01*
X68959010Y-71511790D01*
X68944839Y-71528679D01*
X68875031Y-71649590D01*
X68867137Y-71642229D01*
X68859021Y-71635819D01*
X68648632Y-71496036D01*
X68639578Y-71491038D01*
X68409183Y-71387495D01*
X68399434Y-71384043D01*
X68155223Y-71319519D01*
X68145042Y-71317706D01*
X68079202Y-71311482D01*
X67996800Y-71386461D01*
X67996799Y-72696192D01*
X67996800Y-72696193D01*
X67996799Y-74410301D01*
X68090210Y-74485944D01*
X68324845Y-74436070D01*
X68334750Y-74433099D01*
X68569928Y-74340933D01*
X68579215Y-74336384D01*
X68796182Y-74207046D01*
X68804601Y-74201041D01*
X68872474Y-74143684D01*
X68878737Y-74167059D01*
X68891480Y-74191539D01*
X69022590Y-74347790D01*
X69039479Y-74361961D01*
X69213720Y-74462559D01*
X69234437Y-74470100D01*
X69427138Y-74504078D01*
X69438099Y-74505037D01*
X71382258Y-74505037D01*
X71398634Y-74502881D01*
X71677859Y-74428063D01*
X71702339Y-74415320D01*
X71858590Y-74284210D01*
X71872761Y-74267321D01*
X71973359Y-74093080D01*
X71980900Y-74072363D01*
X72014878Y-73879662D01*
X72015837Y-73868701D01*
X72015837Y-71924542D01*
X72013681Y-71908166D01*
X71938863Y-71628942D01*
X71926120Y-71604462D01*
X71795010Y-71448210D01*
X71778121Y-71434039D01*
X71603880Y-71333441D01*
X71583163Y-71325900D01*
X71411327Y-71295601D01*
X72270420Y-71295601D01*
X72215090Y-71415347D01*
X72211448Y-71425379D01*
X72146422Y-71666378D01*
X72144523Y-71676880D01*
X72121032Y-71925391D01*
X72120930Y-71936062D01*
X72139646Y-72184977D01*
X72141343Y-72195513D01*
X72201731Y-72437718D01*
X72205179Y-72447817D01*
X72305512Y-72676384D01*
X72310613Y-72685758D01*
X72448023Y-72894150D01*
X72454630Y-72902531D01*
X72543298Y-72997284D01*
X72456142Y-73020637D01*
X72431662Y-73033380D01*
X72275410Y-73164490D01*
X72261239Y-73181379D01*
X72160641Y-73355620D01*
X72153100Y-73376337D01*
X72119122Y-73569038D01*
X72118163Y-73579999D01*
X72118163Y-75255726D01*
X71896513Y-75308531D01*
X71886683Y-75311743D01*
X71653827Y-75409627D01*
X71644654Y-75414402D01*
X71430912Y-75549003D01*
X71422642Y-75555212D01*
X71385923Y-75587812D01*
X71380063Y-75565942D01*
X71367320Y-75541462D01*
X71236210Y-75385210D01*
X71219321Y-75371039D01*
X71045080Y-75270441D01*
X71024363Y-75262900D01*
X70831662Y-75228922D01*
X70820701Y-75227963D01*
X68876542Y-75227963D01*
X68860166Y-75230119D01*
X68580942Y-75304937D01*
X68556462Y-75317680D01*
X68400210Y-75448790D01*
X68386039Y-75465679D01*
X68285441Y-75639920D01*
X68277900Y-75660637D01*
X68243922Y-75853338D01*
X68242963Y-75864299D01*
X68242963Y-77808458D01*
X68245119Y-77824834D01*
X68319937Y-78104059D01*
X68332680Y-78128539D01*
X68463790Y-78284790D01*
X68480679Y-78298961D01*
X68654920Y-78399559D01*
X68675637Y-78407100D01*
X68868338Y-78441078D01*
X68879299Y-78442037D01*
X70823458Y-78442037D01*
X70839834Y-78439881D01*
X71119059Y-78365063D01*
X71143539Y-78352320D01*
X71299790Y-78221210D01*
X71313961Y-78204321D01*
X71384025Y-78082966D01*
X71576148Y-78217492D01*
X71585077Y-78222710D01*
X71812873Y-78331851D01*
X71822535Y-78335540D01*
X72065098Y-78406012D01*
X72075232Y-78408073D01*
X72177309Y-78420246D01*
X72262000Y-78345054D01*
X72262000Y-76707000D01*
X72518000Y-76707000D01*
X72518000Y-78347301D01*
X72611412Y-78422944D01*
X72846045Y-78373070D01*
X72855950Y-78370099D01*
X73091128Y-78277933D01*
X73100415Y-78273384D01*
X73317382Y-78144046D01*
X73325801Y-78138041D01*
X73518730Y-77975003D01*
X73526055Y-77967703D01*
X73661060Y-77809073D01*
X73714038Y-77881458D01*
X73720809Y-77889275D01*
X73901280Y-78066004D01*
X73909237Y-78072610D01*
X74116148Y-78217492D01*
X74125077Y-78222710D01*
X74352873Y-78331851D01*
X74362535Y-78335540D01*
X74605098Y-78406012D01*
X74615232Y-78408073D01*
X74866048Y-78437981D01*
X74876382Y-78438360D01*
X75128714Y-78426902D01*
X75138972Y-78425588D01*
X75386045Y-78373070D01*
X75395950Y-78370099D01*
X75631128Y-78277933D01*
X75640415Y-78273384D01*
X75857382Y-78144046D01*
X75865801Y-78138041D01*
X76058730Y-77975003D01*
X76066055Y-77967703D01*
X76201060Y-77809073D01*
X76254038Y-77881458D01*
X76260809Y-77889275D01*
X76441280Y-78066004D01*
X76449237Y-78072610D01*
X76656148Y-78217492D01*
X76665077Y-78222710D01*
X76892873Y-78331851D01*
X76902535Y-78335540D01*
X77145098Y-78406012D01*
X77155232Y-78408073D01*
X77406048Y-78437981D01*
X77416382Y-78438360D01*
X77668714Y-78426902D01*
X77678972Y-78425588D01*
X77926045Y-78373070D01*
X77935950Y-78370099D01*
X78171128Y-78277933D01*
X78180415Y-78273384D01*
X78397382Y-78144046D01*
X78405801Y-78138041D01*
X78598730Y-77975003D01*
X78606055Y-77967703D01*
X78769766Y-77775344D01*
X78775801Y-77766946D01*
X78905895Y-77550431D01*
X78910477Y-77541161D01*
X79003463Y-77306306D01*
X79006470Y-77296411D01*
X79060011Y-77048769D01*
X79061418Y-77036969D01*
X79069385Y-76711013D01*
X79068556Y-76699158D01*
X79027175Y-76449197D01*
X79024655Y-76439167D01*
X78943253Y-76200050D01*
X78939130Y-76190566D01*
X78819767Y-75967955D01*
X78814149Y-75959271D01*
X78660031Y-75759146D01*
X78653072Y-75751497D01*
X78556531Y-75661471D01*
X80463104Y-75661471D01*
X80528220Y-75939094D01*
X80531314Y-75948731D01*
X80628625Y-76184826D01*
X80633220Y-76193844D01*
X80767026Y-76411344D01*
X80773004Y-76419511D01*
X80939864Y-76612819D01*
X80947070Y-76619926D01*
X81142690Y-76784070D01*
X81150940Y-76789933D01*
X81370287Y-76920689D01*
X81379368Y-76925158D01*
X81616797Y-77019164D01*
X81626477Y-77022123D01*
X81883404Y-77078612D01*
X81977500Y-77002957D01*
X81977500Y-75639809D01*
X82233500Y-75639809D01*
X82233500Y-76999830D01*
X82316881Y-77074906D01*
X82404959Y-77065647D01*
X82414907Y-77063785D01*
X82661336Y-76996831D01*
X82670858Y-76993403D01*
X82903413Y-76887912D01*
X82912265Y-76883005D01*
X83124963Y-76741688D01*
X83132916Y-76735429D01*
X83320284Y-76561926D01*
X83327135Y-76554475D01*
X83484351Y-76353246D01*
X83489923Y-76344797D01*
X83612945Y-76121021D01*
X83617094Y-76111789D01*
X83702756Y-75871223D01*
X83705375Y-75861446D01*
X83742955Y-75656692D01*
X83667393Y-75566000D01*
X82307309Y-75566000D01*
X82233500Y-75639809D01*
X81977500Y-75639809D01*
X81903691Y-75566000D01*
X80538773Y-75566000D01*
X80463104Y-75661471D01*
X78556531Y-75661471D01*
X78468337Y-75579229D01*
X78460221Y-75572819D01*
X78296500Y-75464043D01*
X78296500Y-75149590D01*
X78300297Y-75132809D01*
X78301737Y-75114914D01*
X78296500Y-75030505D01*
X78296500Y-75002222D01*
X78295863Y-74993280D01*
X78292912Y-74972674D01*
X78288200Y-74896725D01*
X78284560Y-74879146D01*
X78276202Y-74855993D01*
X78272712Y-74831623D01*
X78267673Y-74814391D01*
X78236169Y-74745102D01*
X78210264Y-74673344D01*
X78201605Y-74657177D01*
X78187566Y-74638205D01*
X78177191Y-74615387D01*
X78167518Y-74600262D01*
X78110683Y-74534303D01*
X78097914Y-74517046D01*
X78091810Y-74509962D01*
X78076634Y-74494786D01*
X78024818Y-74434653D01*
X78011290Y-74422852D01*
X77992557Y-74410709D01*
X77802708Y-74220861D01*
X77825882Y-74207046D01*
X77834301Y-74201041D01*
X77902174Y-74143684D01*
X77908437Y-74167059D01*
X77921180Y-74191539D01*
X78052290Y-74347790D01*
X78069179Y-74361961D01*
X78243420Y-74462559D01*
X78264137Y-74470100D01*
X78456838Y-74504078D01*
X78467799Y-74505037D01*
X80411958Y-74505037D01*
X80428334Y-74502881D01*
X80707559Y-74428063D01*
X80732040Y-74415319D01*
X80804487Y-74354528D01*
X80841490Y-74375891D01*
X80793852Y-74428798D01*
X80787704Y-74436839D01*
X80649372Y-74651489D01*
X80644589Y-74660409D01*
X80542355Y-74894413D01*
X80539060Y-74903983D01*
X80475554Y-75151325D01*
X80473831Y-75161300D01*
X80467769Y-75227927D01*
X80542714Y-75310000D01*
X83666473Y-75310000D01*
X83741940Y-75221327D01*
X83713893Y-75048153D01*
X83711479Y-75038323D01*
X83630873Y-74796015D01*
X83626918Y-74786699D01*
X83508610Y-74560395D01*
X83503217Y-74551830D01*
X83365601Y-74367875D01*
X83425359Y-74351863D01*
X83449839Y-74339120D01*
X83606090Y-74208010D01*
X83620261Y-74191121D01*
X83720859Y-74016880D01*
X83728400Y-73996163D01*
X83762378Y-73803462D01*
X83763337Y-73792501D01*
X83763337Y-71746742D01*
X83761181Y-71730366D01*
X83686363Y-71451142D01*
X83673620Y-71426662D01*
X83542510Y-71270410D01*
X83525621Y-71256239D01*
X83351380Y-71155641D01*
X83330663Y-71148100D01*
X83137962Y-71114122D01*
X83127001Y-71113163D01*
X81778154Y-71113163D01*
X80632977Y-69967987D01*
X80650878Y-69866462D01*
X80651837Y-69855501D01*
X80651837Y-68781809D01*
X80578028Y-68708000D01*
X78941808Y-68707999D01*
X78941807Y-68708000D01*
X76901972Y-68707999D01*
X76828163Y-68781808D01*
X76828163Y-69414001D01*
X75373817Y-69414001D01*
X75398620Y-69368319D01*
X75402460Y-69359794D01*
X75496043Y-69102675D01*
X75498581Y-69093676D01*
X75553297Y-68824741D01*
X75554543Y-68813809D01*
X75564183Y-68445665D01*
X75563511Y-68434683D01*
X75522946Y-68163252D01*
X75520882Y-68154132D01*
X75440883Y-67892468D01*
X75437494Y-67883753D01*
X75319698Y-67636789D01*
X75315058Y-67628671D01*
X75162052Y-67401831D01*
X75156264Y-67394488D01*
X75073805Y-67304499D01*
X76828163Y-67304499D01*
X76828163Y-68378191D01*
X76901972Y-68452000D01*
X78538191Y-68452001D01*
X78612000Y-68378192D01*
X78612000Y-68378191D01*
X78867999Y-68378191D01*
X78941808Y-68452000D01*
X80578028Y-68452001D01*
X80651837Y-68378192D01*
X80651837Y-67301742D01*
X80649681Y-67285366D01*
X80574863Y-67006142D01*
X80562120Y-66981662D01*
X80431010Y-66825410D01*
X80414121Y-66811239D01*
X80239880Y-66710641D01*
X80219163Y-66703100D01*
X80026462Y-66669122D01*
X80015501Y-66668163D01*
X78941809Y-66668163D01*
X78868000Y-66741972D01*
X78867999Y-68378191D01*
X78612000Y-68378191D01*
X78612001Y-66741972D01*
X78538192Y-66668163D01*
X77461742Y-66668163D01*
X77445366Y-66670319D01*
X77166142Y-66745137D01*
X77141662Y-66757880D01*
X76985410Y-66888990D01*
X76971239Y-66905879D01*
X76870641Y-67080120D01*
X76863100Y-67100837D01*
X76829122Y-67293538D01*
X76828163Y-67304499D01*
X75073805Y-67304499D01*
X74971410Y-67192754D01*
X74964599Y-67186347D01*
X74919077Y-67149484D01*
X74972504Y-67143869D01*
X74982453Y-67142007D01*
X75226398Y-67075728D01*
X75235920Y-67072300D01*
X75466131Y-66967873D01*
X75474983Y-66962966D01*
X75685536Y-66823074D01*
X75693489Y-66816815D01*
X75878968Y-66645061D01*
X75885819Y-66637610D01*
X76041451Y-66438411D01*
X76047023Y-66429961D01*
X76168804Y-66208441D01*
X76172953Y-66199209D01*
X76257751Y-65961068D01*
X76260370Y-65951292D01*
X76296310Y-65755471D01*
X80670039Y-65755471D01*
X80734004Y-66028187D01*
X80737098Y-66037824D01*
X80833428Y-66271538D01*
X80838023Y-66280556D01*
X80970480Y-66495862D01*
X80976458Y-66504030D01*
X81141634Y-66695390D01*
X81148841Y-66702497D01*
X81342489Y-66864986D01*
X81350739Y-66870849D01*
X81567873Y-67000287D01*
X81576955Y-67004756D01*
X81811991Y-67097813D01*
X81821670Y-67100772D01*
X82073904Y-67156229D01*
X82168000Y-67080574D01*
X82168000Y-65733809D01*
X82424000Y-65733809D01*
X82424000Y-67077741D01*
X82507379Y-67152815D01*
X82592504Y-67143869D01*
X82602453Y-67142007D01*
X82846398Y-67075728D01*
X82855920Y-67072300D01*
X83086131Y-66967873D01*
X83094983Y-66962966D01*
X83305536Y-66823074D01*
X83313489Y-66816815D01*
X83498968Y-66645061D01*
X83505819Y-66637610D01*
X83661451Y-66438411D01*
X83667023Y-66429961D01*
X83788804Y-66208441D01*
X83792953Y-66199209D01*
X83877751Y-65961069D01*
X83880370Y-65951292D01*
X83917188Y-65750693D01*
X83841626Y-65660000D01*
X82497809Y-65660000D01*
X82424000Y-65733809D01*
X82168000Y-65733809D01*
X82094191Y-65660000D01*
X80745708Y-65660000D01*
X80670039Y-65755471D01*
X76296310Y-65755471D01*
X76306063Y-65702332D01*
X76307097Y-65691599D01*
X76310082Y-65406596D01*
X76309273Y-65395844D01*
X76268804Y-65145981D01*
X76266390Y-65136152D01*
X76186597Y-64896287D01*
X76182642Y-64886971D01*
X76065527Y-64662949D01*
X76060134Y-64654384D01*
X75908708Y-64451969D01*
X75902014Y-64444377D01*
X75778497Y-64325098D01*
X75878968Y-64232061D01*
X75885819Y-64224610D01*
X76041451Y-64025411D01*
X76047023Y-64016961D01*
X76168804Y-63795441D01*
X76172953Y-63786209D01*
X76257751Y-63548068D01*
X76260370Y-63538292D01*
X76306063Y-63289332D01*
X76307097Y-63278599D01*
X76310082Y-62993596D01*
X76309273Y-62982844D01*
X76268804Y-62732981D01*
X76266390Y-62723152D01*
X76186597Y-62483287D01*
X76182642Y-62473971D01*
X76065527Y-62249949D01*
X76060134Y-62241384D01*
X75908708Y-62038969D01*
X75902014Y-62031377D01*
X75720173Y-61855776D01*
X75712352Y-61849351D01*
X75710500Y-61848064D01*
X75878968Y-61692061D01*
X75885819Y-61684610D01*
X76041451Y-61485411D01*
X76047023Y-61476961D01*
X76086309Y-61405500D01*
X79413655Y-61405500D01*
X80714833Y-62706679D01*
X80681871Y-62835056D01*
X80680148Y-62845030D01*
X80657238Y-63096777D01*
X80657132Y-63106898D01*
X80674766Y-63359071D01*
X80676279Y-63369078D01*
X80734004Y-63615187D01*
X80737098Y-63624824D01*
X80833428Y-63858538D01*
X80838023Y-63867556D01*
X80970480Y-64082862D01*
X80976458Y-64091030D01*
X81141634Y-64282390D01*
X81148841Y-64289497D01*
X81190318Y-64324300D01*
X81173606Y-64337737D01*
X81166252Y-64344691D01*
X80997104Y-64532548D01*
X80990956Y-64540589D01*
X80854019Y-64753075D01*
X80849236Y-64761994D01*
X80748032Y-64993639D01*
X80744737Y-65003209D01*
X80681872Y-65248052D01*
X80680150Y-65258017D01*
X80674327Y-65321912D01*
X80749273Y-65404000D01*
X83840765Y-65404000D01*
X83916233Y-65315326D01*
X83888804Y-65145981D01*
X83886390Y-65136152D01*
X83806597Y-64896287D01*
X83802642Y-64886971D01*
X83685527Y-64662949D01*
X83680134Y-64654384D01*
X83528708Y-64451969D01*
X83522014Y-64444377D01*
X83398497Y-64325098D01*
X83498968Y-64232061D01*
X83505819Y-64224610D01*
X83661451Y-64025411D01*
X83667023Y-64016961D01*
X83788804Y-63795441D01*
X83792953Y-63786209D01*
X83877751Y-63548068D01*
X83880370Y-63538292D01*
X83926063Y-63289332D01*
X83927097Y-63278599D01*
X83930082Y-62993596D01*
X83929273Y-62982844D01*
X83888804Y-62732981D01*
X83886390Y-62723152D01*
X83806597Y-62483287D01*
X83802642Y-62473971D01*
X83685527Y-62249949D01*
X83680134Y-62241384D01*
X83528708Y-62038969D01*
X83522014Y-62031377D01*
X83340173Y-61855776D01*
X83332352Y-61849351D01*
X83330500Y-61848064D01*
X83498968Y-61692061D01*
X83505819Y-61684610D01*
X83661451Y-61485411D01*
X83667023Y-61476961D01*
X83788804Y-61255441D01*
X83792953Y-61246209D01*
X83877751Y-61008069D01*
X83880370Y-60998292D01*
X83917188Y-60797693D01*
X83841626Y-60707000D01*
X82168000Y-60707000D01*
X82168000Y-60451000D01*
X83840765Y-60451000D01*
X83916233Y-60362326D01*
X83888804Y-60192981D01*
X83886390Y-60183152D01*
X83806597Y-59943287D01*
X83802642Y-59933971D01*
X83707424Y-59751834D01*
X83862398Y-59709728D01*
X83871920Y-59706300D01*
X84102131Y-59601873D01*
X84110983Y-59596966D01*
X84202000Y-59536494D01*
X84202001Y-78487000D01*
G37*
D26*
X84202001Y-78487000D02*
X61848000Y-78487000D01*
X61848000Y-77987713D01*
X61911489Y-78040986D01*
X61919739Y-78046849D01*
X62136873Y-78176287D01*
X62145955Y-78180756D01*
X62380991Y-78273813D01*
X62390670Y-78276772D01*
X62637561Y-78331054D01*
X62647589Y-78332428D01*
X62899983Y-78346539D01*
X62910101Y-78346292D01*
X63161504Y-78319869D01*
X63171453Y-78318007D01*
X63415398Y-78251728D01*
X63424920Y-78248300D01*
X63655131Y-78143873D01*
X63663983Y-78138966D01*
X63874536Y-77999074D01*
X63882489Y-77992815D01*
X64067968Y-77821061D01*
X64074819Y-77813610D01*
X64134654Y-77737025D01*
X64250634Y-77871390D01*
X64257841Y-77878497D01*
X64451489Y-78040986D01*
X64459739Y-78046849D01*
X64676873Y-78176287D01*
X64685955Y-78180756D01*
X64920991Y-78273813D01*
X64930670Y-78276772D01*
X65177561Y-78331054D01*
X65187589Y-78332428D01*
X65439983Y-78346539D01*
X65450101Y-78346292D01*
X65701504Y-78319869D01*
X65711453Y-78318007D01*
X65955398Y-78251728D01*
X65964920Y-78248300D01*
X66195131Y-78143873D01*
X66203983Y-78138966D01*
X66414536Y-77999074D01*
X66422489Y-77992815D01*
X66607968Y-77821061D01*
X66614819Y-77813610D01*
X66770451Y-77614411D01*
X66776023Y-77605961D01*
X66897804Y-77384441D01*
X66901953Y-77375209D01*
X66986751Y-77137068D01*
X66989370Y-77127292D01*
X67035063Y-76878332D01*
X67036097Y-76867599D01*
X67039082Y-76582596D01*
X67038273Y-76571844D01*
X66997804Y-76321981D01*
X66995390Y-76312152D01*
X66915597Y-76072287D01*
X66911642Y-76062971D01*
X66794527Y-75838949D01*
X66789134Y-75830384D01*
X66637708Y-75627969D01*
X66631014Y-75620377D01*
X66449174Y-75444776D01*
X66441353Y-75438351D01*
X66233775Y-75294081D01*
X66225028Y-75288990D01*
X65997056Y-75179764D01*
X65987607Y-75176137D01*
X65745103Y-75104765D01*
X65735196Y-75102695D01*
X65484402Y-75071011D01*
X65474290Y-75070552D01*
X65221656Y-75079374D01*
X65211601Y-75080538D01*
X64963628Y-75129639D01*
X64953889Y-75132394D01*
X64716956Y-75220508D01*
X64707783Y-75224786D01*
X64487984Y-75349649D01*
X64479613Y-75355338D01*
X64282606Y-75513737D01*
X64275252Y-75520691D01*
X64134443Y-75677074D01*
X64097708Y-75627969D01*
X64091014Y-75620377D01*
X63909174Y-75444776D01*
X63901353Y-75438351D01*
X63693775Y-75294081D01*
X63685028Y-75288990D01*
X63457056Y-75179764D01*
X63447607Y-75176137D01*
X63205103Y-75104765D01*
X63195196Y-75102695D01*
X62944402Y-75071011D01*
X62934290Y-75070552D01*
X62681656Y-75079374D01*
X62671601Y-75080538D01*
X62423628Y-75129639D01*
X62413889Y-75132394D01*
X62176956Y-75220508D01*
X62167783Y-75224786D01*
X61947984Y-75349649D01*
X61939613Y-75355338D01*
X61848000Y-75428997D01*
X61848000Y-73112672D01*
X66283976Y-73112672D01*
X66302664Y-73245644D01*
X66304937Y-73255732D01*
X66380473Y-73496766D01*
X66384364Y-73506348D01*
X66498252Y-73731808D01*
X66503655Y-73740626D01*
X66652838Y-73944458D01*
X66659609Y-73952275D01*
X66840080Y-74129004D01*
X66848037Y-74135610D01*
X67054948Y-74280492D01*
X67063877Y-74285710D01*
X67291673Y-74394851D01*
X67301335Y-74398540D01*
X67543898Y-74469012D01*
X67554032Y-74471073D01*
X67656109Y-74483246D01*
X67740800Y-74408054D01*
X67740801Y-73099809D01*
X67666992Y-73026000D01*
X66359319Y-73025999D01*
X66283976Y-73112672D01*
X61848000Y-73112672D01*
X61848000Y-72678631D01*
X66282531Y-72678631D01*
X66358118Y-72770000D01*
X67666991Y-72770001D01*
X67740800Y-72696192D01*
X67740801Y-71382957D01*
X67644986Y-71307286D01*
X67375313Y-71371531D01*
X67365483Y-71374743D01*
X67132627Y-71472627D01*
X67123454Y-71477402D01*
X66909712Y-71612003D01*
X66901442Y-71618212D01*
X66712554Y-71785914D01*
X66705409Y-71793391D01*
X66546447Y-71989693D01*
X66540620Y-71998236D01*
X66415854Y-72217864D01*
X66411499Y-72227244D01*
X66324279Y-72464300D01*
X66321516Y-72474266D01*
X66282531Y-72678631D01*
X61848000Y-72678631D01*
X61848000Y-70728783D01*
X61848538Y-70728878D01*
X61859499Y-70729837D01*
X63873258Y-70729837D01*
X63889634Y-70727681D01*
X64168859Y-70652863D01*
X64193339Y-70640120D01*
X64349590Y-70509010D01*
X64363761Y-70492121D01*
X64420058Y-70394612D01*
X64451489Y-70420986D01*
X64459739Y-70426849D01*
X64676873Y-70556287D01*
X64685955Y-70560756D01*
X64920991Y-70653813D01*
X64930670Y-70656772D01*
X65177561Y-70711054D01*
X65187589Y-70712428D01*
X65439983Y-70726539D01*
X65450101Y-70726292D01*
X65687817Y-70701308D01*
X65962952Y-70976443D01*
X65995744Y-71019179D01*
X66007423Y-71030858D01*
X66190734Y-71171517D01*
X66205038Y-71179776D01*
X66418508Y-71268197D01*
X66434462Y-71272472D01*
X66601957Y-71294523D01*
X66663542Y-71302631D01*
X66680059Y-71302631D01*
X66733456Y-71295601D01*
X69409703Y-71295601D01*
X69139742Y-71367937D01*
X69115262Y-71380680D01*
X68959010Y-71511790D01*
X68944839Y-71528679D01*
X68875031Y-71649590D01*
X68867137Y-71642229D01*
X68859021Y-71635819D01*
X68648632Y-71496036D01*
X68639578Y-71491038D01*
X68409183Y-71387495D01*
X68399434Y-71384043D01*
X68155223Y-71319519D01*
X68145042Y-71317706D01*
X68079202Y-71311482D01*
X67996800Y-71386461D01*
X67996799Y-72696192D01*
X67996800Y-72696193D01*
X67996799Y-74410301D01*
X68090210Y-74485944D01*
X68324845Y-74436070D01*
X68334750Y-74433099D01*
X68569928Y-74340933D01*
X68579215Y-74336384D01*
X68796182Y-74207046D01*
X68804601Y-74201041D01*
X68872474Y-74143684D01*
X68878737Y-74167059D01*
X68891480Y-74191539D01*
X69022590Y-74347790D01*
X69039479Y-74361961D01*
X69213720Y-74462559D01*
X69234437Y-74470100D01*
X69427138Y-74504078D01*
X69438099Y-74505037D01*
X71382258Y-74505037D01*
X71398634Y-74502881D01*
X71677859Y-74428063D01*
X71702339Y-74415320D01*
X71858590Y-74284210D01*
X71872761Y-74267321D01*
X71973359Y-74093080D01*
X71980900Y-74072363D01*
X72014878Y-73879662D01*
X72015837Y-73868701D01*
X72015837Y-71924542D01*
X72013681Y-71908166D01*
X71938863Y-71628942D01*
X71926120Y-71604462D01*
X71795010Y-71448210D01*
X71778121Y-71434039D01*
X71603880Y-71333441D01*
X71583163Y-71325900D01*
X71411327Y-71295601D01*
X72270420Y-71295601D01*
X72215090Y-71415347D01*
X72211448Y-71425379D01*
X72146422Y-71666378D01*
X72144523Y-71676880D01*
X72121032Y-71925391D01*
X72120930Y-71936062D01*
X72139646Y-72184977D01*
X72141343Y-72195513D01*
X72201731Y-72437718D01*
X72205179Y-72447817D01*
X72305512Y-72676384D01*
X72310613Y-72685758D01*
X72448023Y-72894150D01*
X72454630Y-72902531D01*
X72543298Y-72997284D01*
X72456142Y-73020637D01*
X72431662Y-73033380D01*
X72275410Y-73164490D01*
X72261239Y-73181379D01*
X72160641Y-73355620D01*
X72153100Y-73376337D01*
X72119122Y-73569038D01*
X72118163Y-73579999D01*
X72118163Y-75255726D01*
X71896513Y-75308531D01*
X71886683Y-75311743D01*
X71653827Y-75409627D01*
X71644654Y-75414402D01*
X71430912Y-75549003D01*
X71422642Y-75555212D01*
X71385923Y-75587812D01*
X71380063Y-75565942D01*
X71367320Y-75541462D01*
X71236210Y-75385210D01*
X71219321Y-75371039D01*
X71045080Y-75270441D01*
X71024363Y-75262900D01*
X70831662Y-75228922D01*
X70820701Y-75227963D01*
X68876542Y-75227963D01*
X68860166Y-75230119D01*
X68580942Y-75304937D01*
X68556462Y-75317680D01*
X68400210Y-75448790D01*
X68386039Y-75465679D01*
X68285441Y-75639920D01*
X68277900Y-75660637D01*
X68243922Y-75853338D01*
X68242963Y-75864299D01*
X68242963Y-77808458D01*
X68245119Y-77824834D01*
X68319937Y-78104059D01*
X68332680Y-78128539D01*
X68463790Y-78284790D01*
X68480679Y-78298961D01*
X68654920Y-78399559D01*
X68675637Y-78407100D01*
X68868338Y-78441078D01*
X68879299Y-78442037D01*
X70823458Y-78442037D01*
X70839834Y-78439881D01*
X71119059Y-78365063D01*
X71143539Y-78352320D01*
X71299790Y-78221210D01*
X71313961Y-78204321D01*
X71384025Y-78082966D01*
X71576148Y-78217492D01*
X71585077Y-78222710D01*
X71812873Y-78331851D01*
X71822535Y-78335540D01*
X72065098Y-78406012D01*
X72075232Y-78408073D01*
X72177309Y-78420246D01*
X72262000Y-78345054D01*
X72262000Y-76707000D01*
X72518000Y-76707000D01*
X72518000Y-78347301D01*
X72611412Y-78422944D01*
X72846045Y-78373070D01*
X72855950Y-78370099D01*
X73091128Y-78277933D01*
X73100415Y-78273384D01*
X73317382Y-78144046D01*
X73325801Y-78138041D01*
X73518730Y-77975003D01*
X73526055Y-77967703D01*
X73661060Y-77809073D01*
X73714038Y-77881458D01*
X73720809Y-77889275D01*
X73901280Y-78066004D01*
X73909237Y-78072610D01*
X74116148Y-78217492D01*
X74125077Y-78222710D01*
X74352873Y-78331851D01*
X74362535Y-78335540D01*
X74605098Y-78406012D01*
X74615232Y-78408073D01*
X74866048Y-78437981D01*
X74876382Y-78438360D01*
X75128714Y-78426902D01*
X75138972Y-78425588D01*
X75386045Y-78373070D01*
X75395950Y-78370099D01*
X75631128Y-78277933D01*
X75640415Y-78273384D01*
X75857382Y-78144046D01*
X75865801Y-78138041D01*
X76058730Y-77975003D01*
X76066055Y-77967703D01*
X76201060Y-77809073D01*
X76254038Y-77881458D01*
X76260809Y-77889275D01*
X76441280Y-78066004D01*
X76449237Y-78072610D01*
X76656148Y-78217492D01*
X76665077Y-78222710D01*
X76892873Y-78331851D01*
X76902535Y-78335540D01*
X77145098Y-78406012D01*
X77155232Y-78408073D01*
X77406048Y-78437981D01*
X77416382Y-78438360D01*
X77668714Y-78426902D01*
X77678972Y-78425588D01*
X77926045Y-78373070D01*
X77935950Y-78370099D01*
X78171128Y-78277933D01*
X78180415Y-78273384D01*
X78397382Y-78144046D01*
X78405801Y-78138041D01*
X78598730Y-77975003D01*
X78606055Y-77967703D01*
X78769766Y-77775344D01*
X78775801Y-77766946D01*
X78905895Y-77550431D01*
X78910477Y-77541161D01*
X79003463Y-77306306D01*
X79006470Y-77296411D01*
X79060011Y-77048769D01*
X79061418Y-77036969D01*
X79069385Y-76711013D01*
X79068556Y-76699158D01*
X79027175Y-76449197D01*
X79024655Y-76439167D01*
X78943253Y-76200050D01*
X78939130Y-76190566D01*
X78819767Y-75967955D01*
X78814149Y-75959271D01*
X78660031Y-75759146D01*
X78653072Y-75751497D01*
X78556531Y-75661471D01*
X80463104Y-75661471D01*
X80528220Y-75939094D01*
X80531314Y-75948731D01*
X80628625Y-76184826D01*
X80633220Y-76193844D01*
X80767026Y-76411344D01*
X80773004Y-76419511D01*
X80939864Y-76612819D01*
X80947070Y-76619926D01*
X81142690Y-76784070D01*
X81150940Y-76789933D01*
X81370287Y-76920689D01*
X81379368Y-76925158D01*
X81616797Y-77019164D01*
X81626477Y-77022123D01*
X81883404Y-77078612D01*
X81977500Y-77002957D01*
X81977500Y-75639809D01*
X82233500Y-75639809D01*
X82233500Y-76999830D01*
X82316881Y-77074906D01*
X82404959Y-77065647D01*
X82414907Y-77063785D01*
X82661336Y-76996831D01*
X82670858Y-76993403D01*
X82903413Y-76887912D01*
X82912265Y-76883005D01*
X83124963Y-76741688D01*
X83132916Y-76735429D01*
X83320284Y-76561926D01*
X83327135Y-76554475D01*
X83484351Y-76353246D01*
X83489923Y-76344797D01*
X83612945Y-76121021D01*
X83617094Y-76111789D01*
X83702756Y-75871223D01*
X83705375Y-75861446D01*
X83742955Y-75656692D01*
X83667393Y-75566000D01*
X82307309Y-75566000D01*
X82233500Y-75639809D01*
X81977500Y-75639809D01*
X81903691Y-75566000D01*
X80538773Y-75566000D01*
X80463104Y-75661471D01*
X78556531Y-75661471D01*
X78468337Y-75579229D01*
X78460221Y-75572819D01*
X78296500Y-75464043D01*
X78296500Y-75149590D01*
X78300297Y-75132809D01*
X78301737Y-75114914D01*
X78296500Y-75030505D01*
X78296500Y-75002222D01*
X78295863Y-74993280D01*
X78292912Y-74972674D01*
X78288200Y-74896725D01*
X78284560Y-74879146D01*
X78276202Y-74855993D01*
X78272712Y-74831623D01*
X78267673Y-74814391D01*
X78236169Y-74745102D01*
X78210264Y-74673344D01*
X78201605Y-74657177D01*
X78187566Y-74638205D01*
X78177191Y-74615387D01*
X78167518Y-74600262D01*
X78110683Y-74534303D01*
X78097914Y-74517046D01*
X78091810Y-74509962D01*
X78076634Y-74494786D01*
X78024818Y-74434653D01*
X78011290Y-74422852D01*
X77992557Y-74410709D01*
X77802708Y-74220861D01*
X77825882Y-74207046D01*
X77834301Y-74201041D01*
X77902174Y-74143684D01*
X77908437Y-74167059D01*
X77921180Y-74191539D01*
X78052290Y-74347790D01*
X78069179Y-74361961D01*
X78243420Y-74462559D01*
X78264137Y-74470100D01*
X78456838Y-74504078D01*
X78467799Y-74505037D01*
X80411958Y-74505037D01*
X80428334Y-74502881D01*
X80707559Y-74428063D01*
X80732040Y-74415319D01*
X80804487Y-74354528D01*
X80841490Y-74375891D01*
X80793852Y-74428798D01*
X80787704Y-74436839D01*
X80649372Y-74651489D01*
X80644589Y-74660409D01*
X80542355Y-74894413D01*
X80539060Y-74903983D01*
X80475554Y-75151325D01*
X80473831Y-75161300D01*
X80467769Y-75227927D01*
X80542714Y-75310000D01*
X83666473Y-75310000D01*
X83741940Y-75221327D01*
X83713893Y-75048153D01*
X83711479Y-75038323D01*
X83630873Y-74796015D01*
X83626918Y-74786699D01*
X83508610Y-74560395D01*
X83503217Y-74551830D01*
X83365601Y-74367875D01*
X83425359Y-74351863D01*
X83449839Y-74339120D01*
X83606090Y-74208010D01*
X83620261Y-74191121D01*
X83720859Y-74016880D01*
X83728400Y-73996163D01*
X83762378Y-73803462D01*
X83763337Y-73792501D01*
X83763337Y-71746742D01*
X83761181Y-71730366D01*
X83686363Y-71451142D01*
X83673620Y-71426662D01*
X83542510Y-71270410D01*
X83525621Y-71256239D01*
X83351380Y-71155641D01*
X83330663Y-71148100D01*
X83137962Y-71114122D01*
X83127001Y-71113163D01*
X81778154Y-71113163D01*
X80632977Y-69967987D01*
X80650878Y-69866462D01*
X80651837Y-69855501D01*
X80651837Y-68781809D01*
X80578028Y-68708000D01*
X78941808Y-68707999D01*
X78941807Y-68708000D01*
X76901972Y-68707999D01*
X76828163Y-68781808D01*
X76828163Y-69414001D01*
X75373817Y-69414001D01*
X75398620Y-69368319D01*
X75402460Y-69359794D01*
X75496043Y-69102675D01*
X75498581Y-69093676D01*
X75553297Y-68824741D01*
X75554543Y-68813809D01*
X75564183Y-68445665D01*
X75563511Y-68434683D01*
X75522946Y-68163252D01*
X75520882Y-68154132D01*
X75440883Y-67892468D01*
X75437494Y-67883753D01*
X75319698Y-67636789D01*
X75315058Y-67628671D01*
X75162052Y-67401831D01*
X75156264Y-67394488D01*
X75073805Y-67304499D01*
X76828163Y-67304499D01*
X76828163Y-68378191D01*
X76901972Y-68452000D01*
X78538191Y-68452001D01*
X78612000Y-68378192D01*
X78612000Y-68378191D01*
X78867999Y-68378191D01*
X78941808Y-68452000D01*
X80578028Y-68452001D01*
X80651837Y-68378192D01*
X80651837Y-67301742D01*
X80649681Y-67285366D01*
X80574863Y-67006142D01*
X80562120Y-66981662D01*
X80431010Y-66825410D01*
X80414121Y-66811239D01*
X80239880Y-66710641D01*
X80219163Y-66703100D01*
X80026462Y-66669122D01*
X80015501Y-66668163D01*
X78941809Y-66668163D01*
X78868000Y-66741972D01*
X78867999Y-68378191D01*
X78612000Y-68378191D01*
X78612001Y-66741972D01*
X78538192Y-66668163D01*
X77461742Y-66668163D01*
X77445366Y-66670319D01*
X77166142Y-66745137D01*
X77141662Y-66757880D01*
X76985410Y-66888990D01*
X76971239Y-66905879D01*
X76870641Y-67080120D01*
X76863100Y-67100837D01*
X76829122Y-67293538D01*
X76828163Y-67304499D01*
X75073805Y-67304499D01*
X74971410Y-67192754D01*
X74964599Y-67186347D01*
X74919077Y-67149484D01*
X74972504Y-67143869D01*
X74982453Y-67142007D01*
X75226398Y-67075728D01*
X75235920Y-67072300D01*
X75466131Y-66967873D01*
X75474983Y-66962966D01*
X75685536Y-66823074D01*
X75693489Y-66816815D01*
X75878968Y-66645061D01*
X75885819Y-66637610D01*
X76041451Y-66438411D01*
X76047023Y-66429961D01*
X76168804Y-66208441D01*
X76172953Y-66199209D01*
X76257751Y-65961068D01*
X76260370Y-65951292D01*
X76296310Y-65755471D01*
X80670039Y-65755471D01*
X80734004Y-66028187D01*
X80737098Y-66037824D01*
X80833428Y-66271538D01*
X80838023Y-66280556D01*
X80970480Y-66495862D01*
X80976458Y-66504030D01*
X81141634Y-66695390D01*
X81148841Y-66702497D01*
X81342489Y-66864986D01*
X81350739Y-66870849D01*
X81567873Y-67000287D01*
X81576955Y-67004756D01*
X81811991Y-67097813D01*
X81821670Y-67100772D01*
X82073904Y-67156229D01*
X82168000Y-67080574D01*
X82168000Y-65733809D01*
X82424000Y-65733809D01*
X82424000Y-67077741D01*
X82507379Y-67152815D01*
X82592504Y-67143869D01*
X82602453Y-67142007D01*
X82846398Y-67075728D01*
X82855920Y-67072300D01*
X83086131Y-66967873D01*
X83094983Y-66962966D01*
X83305536Y-66823074D01*
X83313489Y-66816815D01*
X83498968Y-66645061D01*
X83505819Y-66637610D01*
X83661451Y-66438411D01*
X83667023Y-66429961D01*
X83788804Y-66208441D01*
X83792953Y-66199209D01*
X83877751Y-65961069D01*
X83880370Y-65951292D01*
X83917188Y-65750693D01*
X83841626Y-65660000D01*
X82497809Y-65660000D01*
X82424000Y-65733809D01*
X82168000Y-65733809D01*
X82094191Y-65660000D01*
X80745708Y-65660000D01*
X80670039Y-65755471D01*
X76296310Y-65755471D01*
X76306063Y-65702332D01*
X76307097Y-65691599D01*
X76310082Y-65406596D01*
X76309273Y-65395844D01*
X76268804Y-65145981D01*
X76266390Y-65136152D01*
X76186597Y-64896287D01*
X76182642Y-64886971D01*
X76065527Y-64662949D01*
X76060134Y-64654384D01*
X75908708Y-64451969D01*
X75902014Y-64444377D01*
X75778497Y-64325098D01*
X75878968Y-64232061D01*
X75885819Y-64224610D01*
X76041451Y-64025411D01*
X76047023Y-64016961D01*
X76168804Y-63795441D01*
X76172953Y-63786209D01*
X76257751Y-63548068D01*
X76260370Y-63538292D01*
X76306063Y-63289332D01*
X76307097Y-63278599D01*
X76310082Y-62993596D01*
X76309273Y-62982844D01*
X76268804Y-62732981D01*
X76266390Y-62723152D01*
X76186597Y-62483287D01*
X76182642Y-62473971D01*
X76065527Y-62249949D01*
X76060134Y-62241384D01*
X75908708Y-62038969D01*
X75902014Y-62031377D01*
X75720173Y-61855776D01*
X75712352Y-61849351D01*
X75710500Y-61848064D01*
X75878968Y-61692061D01*
X75885819Y-61684610D01*
X76041451Y-61485411D01*
X76047023Y-61476961D01*
X76086309Y-61405500D01*
X79413655Y-61405500D01*
X80714833Y-62706679D01*
X80681871Y-62835056D01*
X80680148Y-62845030D01*
X80657238Y-63096777D01*
X80657132Y-63106898D01*
X80674766Y-63359071D01*
X80676279Y-63369078D01*
X80734004Y-63615187D01*
X80737098Y-63624824D01*
X80833428Y-63858538D01*
X80838023Y-63867556D01*
X80970480Y-64082862D01*
X80976458Y-64091030D01*
X81141634Y-64282390D01*
X81148841Y-64289497D01*
X81190318Y-64324300D01*
X81173606Y-64337737D01*
X81166252Y-64344691D01*
X80997104Y-64532548D01*
X80990956Y-64540589D01*
X80854019Y-64753075D01*
X80849236Y-64761994D01*
X80748032Y-64993639D01*
X80744737Y-65003209D01*
X80681872Y-65248052D01*
X80680150Y-65258017D01*
X80674327Y-65321912D01*
X80749273Y-65404000D01*
X83840765Y-65404000D01*
X83916233Y-65315326D01*
X83888804Y-65145981D01*
X83886390Y-65136152D01*
X83806597Y-64896287D01*
X83802642Y-64886971D01*
X83685527Y-64662949D01*
X83680134Y-64654384D01*
X83528708Y-64451969D01*
X83522014Y-64444377D01*
X83398497Y-64325098D01*
X83498968Y-64232061D01*
X83505819Y-64224610D01*
X83661451Y-64025411D01*
X83667023Y-64016961D01*
X83788804Y-63795441D01*
X83792953Y-63786209D01*
X83877751Y-63548068D01*
X83880370Y-63538292D01*
X83926063Y-63289332D01*
X83927097Y-63278599D01*
X83930082Y-62993596D01*
X83929273Y-62982844D01*
X83888804Y-62732981D01*
X83886390Y-62723152D01*
X83806597Y-62483287D01*
X83802642Y-62473971D01*
X83685527Y-62249949D01*
X83680134Y-62241384D01*
X83528708Y-62038969D01*
X83522014Y-62031377D01*
X83340173Y-61855776D01*
X83332352Y-61849351D01*
X83330500Y-61848064D01*
X83498968Y-61692061D01*
X83505819Y-61684610D01*
X83661451Y-61485411D01*
X83667023Y-61476961D01*
X83788804Y-61255441D01*
X83792953Y-61246209D01*
X83877751Y-61008069D01*
X83880370Y-60998292D01*
X83917188Y-60797693D01*
X83841626Y-60707000D01*
X82168000Y-60707000D01*
X82168000Y-60451000D01*
X83840765Y-60451000D01*
X83916233Y-60362326D01*
X83888804Y-60192981D01*
X83886390Y-60183152D01*
X83806597Y-59943287D01*
X83802642Y-59933971D01*
X83707424Y-59751834D01*
X83862398Y-59709728D01*
X83871920Y-59706300D01*
X84102131Y-59601873D01*
X84110983Y-59596966D01*
X84202000Y-59536494D01*
X84202001Y-78487000D01*
G36*
X77488801Y-53604950D02*
G01*
X77497984Y-53619504D01*
X77509619Y-53633175D01*
X77573026Y-53689174D01*
X77593009Y-53709158D01*
X77599783Y-53715031D01*
X77616431Y-53727508D01*
X77673473Y-53777886D01*
X77688478Y-53787743D01*
X77710761Y-53798205D01*
X77730460Y-53812969D01*
X77746208Y-53821590D01*
X77817466Y-53848303D01*
X77886537Y-53880732D01*
X77904091Y-53886040D01*
X77927441Y-53889530D01*
X77950907Y-53898327D01*
X77968440Y-53902181D01*
X78055267Y-53908634D01*
X78076503Y-53911807D01*
X78085826Y-53912500D01*
X78107290Y-53912500D01*
X78186446Y-53918382D01*
X78204358Y-53917161D01*
X78226192Y-53912500D01*
X81901974Y-53912500D01*
X81986480Y-54049863D01*
X81992458Y-54058030D01*
X82157634Y-54249390D01*
X82164841Y-54256497D01*
X82283610Y-54356155D01*
X82189606Y-54431737D01*
X82182252Y-54438691D01*
X82013104Y-54626548D01*
X82006956Y-54634589D01*
X81870019Y-54847075D01*
X81865236Y-54855994D01*
X81764032Y-55087639D01*
X81760737Y-55097209D01*
X81697872Y-55342052D01*
X81696150Y-55352017D01*
X81690327Y-55415912D01*
X81765273Y-55498000D01*
X83440000Y-55498000D01*
X83440000Y-55754000D01*
X81761708Y-55754000D01*
X81686039Y-55849471D01*
X81750004Y-56122187D01*
X81753098Y-56131824D01*
X81849428Y-56365538D01*
X81854023Y-56374556D01*
X81986480Y-56589862D01*
X81992458Y-56598030D01*
X82157634Y-56789390D01*
X82164841Y-56796497D01*
X82283610Y-56896155D01*
X82189606Y-56971737D01*
X82182252Y-56978691D01*
X82013104Y-57166548D01*
X82006956Y-57174589D01*
X81870019Y-57387075D01*
X81865236Y-57395994D01*
X81764032Y-57627639D01*
X81760737Y-57637209D01*
X81697871Y-57882056D01*
X81696148Y-57892030D01*
X81673238Y-58143777D01*
X81673132Y-58153898D01*
X81690766Y-58406071D01*
X81692279Y-58416078D01*
X81750004Y-58662187D01*
X81753098Y-58671824D01*
X81849428Y-58905538D01*
X81854023Y-58914556D01*
X81901297Y-58991398D01*
X81854628Y-59000639D01*
X81844889Y-59003394D01*
X81607956Y-59091508D01*
X81598783Y-59095786D01*
X81378984Y-59220649D01*
X81370613Y-59226338D01*
X81173606Y-59384737D01*
X81166252Y-59391691D01*
X80997104Y-59579548D01*
X80990956Y-59587589D01*
X80854019Y-59800075D01*
X80849236Y-59808994D01*
X80748032Y-60040639D01*
X80744737Y-60050209D01*
X80681871Y-60295056D01*
X80680148Y-60305030D01*
X80677706Y-60331861D01*
X80405901Y-60060056D01*
X80396715Y-60045497D01*
X80385079Y-60031825D01*
X80321663Y-59975818D01*
X80301689Y-59955843D01*
X80294914Y-59949970D01*
X80278276Y-59937500D01*
X80221225Y-59887114D01*
X80206220Y-59877257D01*
X80183934Y-59866793D01*
X80164237Y-59852031D01*
X80148489Y-59843410D01*
X80077231Y-59816697D01*
X80008160Y-59784268D01*
X79990604Y-59778959D01*
X79967260Y-59775471D01*
X79943792Y-59766673D01*
X79926258Y-59762818D01*
X79839413Y-59756364D01*
X79818195Y-59753193D01*
X79808872Y-59752500D01*
X79787412Y-59752500D01*
X79708252Y-59746618D01*
X79690341Y-59747839D01*
X79668506Y-59752500D01*
X76087772Y-59752500D01*
X76087424Y-59751834D01*
X76242398Y-59709728D01*
X76251920Y-59706300D01*
X76482131Y-59601873D01*
X76490983Y-59596966D01*
X76701536Y-59457074D01*
X76709489Y-59450815D01*
X76894968Y-59279061D01*
X76901819Y-59271610D01*
X77057451Y-59072411D01*
X77063023Y-59063961D01*
X77184804Y-58842441D01*
X77188953Y-58833209D01*
X77273751Y-58595068D01*
X77276370Y-58585292D01*
X77322063Y-58336332D01*
X77323097Y-58325599D01*
X77326082Y-58040596D01*
X77325273Y-58029844D01*
X77284804Y-57779981D01*
X77282390Y-57770152D01*
X77202597Y-57530287D01*
X77198642Y-57520971D01*
X77081527Y-57296949D01*
X77076134Y-57288384D01*
X76924708Y-57085969D01*
X76918014Y-57078377D01*
X76736173Y-56902776D01*
X76728352Y-56896351D01*
X76726500Y-56895064D01*
X76894968Y-56739061D01*
X76901819Y-56731610D01*
X77057451Y-56532411D01*
X77063023Y-56523961D01*
X77184804Y-56302441D01*
X77188953Y-56293209D01*
X77273751Y-56055068D01*
X77276370Y-56045292D01*
X77322063Y-55796332D01*
X77323097Y-55785599D01*
X77326082Y-55500596D01*
X77325273Y-55489844D01*
X77284804Y-55239981D01*
X77282390Y-55230152D01*
X77202597Y-54990287D01*
X77198642Y-54980971D01*
X77081527Y-54756949D01*
X77076134Y-54748384D01*
X76924708Y-54545969D01*
X76918014Y-54538377D01*
X76736173Y-54362776D01*
X76728352Y-54356351D01*
X76726500Y-54355064D01*
X76894968Y-54199061D01*
X76901819Y-54191610D01*
X77057451Y-53992411D01*
X77063023Y-53983961D01*
X77184804Y-53762441D01*
X77188953Y-53753209D01*
X77273751Y-53515068D01*
X77276370Y-53505292D01*
X77293858Y-53410007D01*
X77488801Y-53604950D01*
G37*
X77488801Y-53604950D02*
X77497984Y-53619504D01*
X77509619Y-53633175D01*
X77573026Y-53689174D01*
X77593009Y-53709158D01*
X77599783Y-53715031D01*
X77616431Y-53727508D01*
X77673473Y-53777886D01*
X77688478Y-53787743D01*
X77710761Y-53798205D01*
X77730460Y-53812969D01*
X77746208Y-53821590D01*
X77817466Y-53848303D01*
X77886537Y-53880732D01*
X77904091Y-53886040D01*
X77927441Y-53889530D01*
X77950907Y-53898327D01*
X77968440Y-53902181D01*
X78055267Y-53908634D01*
X78076503Y-53911807D01*
X78085826Y-53912500D01*
X78107290Y-53912500D01*
X78186446Y-53918382D01*
X78204358Y-53917161D01*
X78226192Y-53912500D01*
X81901974Y-53912500D01*
X81986480Y-54049863D01*
X81992458Y-54058030D01*
X82157634Y-54249390D01*
X82164841Y-54256497D01*
X82283610Y-54356155D01*
X82189606Y-54431737D01*
X82182252Y-54438691D01*
X82013104Y-54626548D01*
X82006956Y-54634589D01*
X81870019Y-54847075D01*
X81865236Y-54855994D01*
X81764032Y-55087639D01*
X81760737Y-55097209D01*
X81697872Y-55342052D01*
X81696150Y-55352017D01*
X81690327Y-55415912D01*
X81765273Y-55498000D01*
X83440000Y-55498000D01*
X83440000Y-55754000D01*
X81761708Y-55754000D01*
X81686039Y-55849471D01*
X81750004Y-56122187D01*
X81753098Y-56131824D01*
X81849428Y-56365538D01*
X81854023Y-56374556D01*
X81986480Y-56589862D01*
X81992458Y-56598030D01*
X82157634Y-56789390D01*
X82164841Y-56796497D01*
X82283610Y-56896155D01*
X82189606Y-56971737D01*
X82182252Y-56978691D01*
X82013104Y-57166548D01*
X82006956Y-57174589D01*
X81870019Y-57387075D01*
X81865236Y-57395994D01*
X81764032Y-57627639D01*
X81760737Y-57637209D01*
X81697871Y-57882056D01*
X81696148Y-57892030D01*
X81673238Y-58143777D01*
X81673132Y-58153898D01*
X81690766Y-58406071D01*
X81692279Y-58416078D01*
X81750004Y-58662187D01*
X81753098Y-58671824D01*
X81849428Y-58905538D01*
X81854023Y-58914556D01*
X81901297Y-58991398D01*
X81854628Y-59000639D01*
X81844889Y-59003394D01*
X81607956Y-59091508D01*
X81598783Y-59095786D01*
X81378984Y-59220649D01*
X81370613Y-59226338D01*
X81173606Y-59384737D01*
X81166252Y-59391691D01*
X80997104Y-59579548D01*
X80990956Y-59587589D01*
X80854019Y-59800075D01*
X80849236Y-59808994D01*
X80748032Y-60040639D01*
X80744737Y-60050209D01*
X80681871Y-60295056D01*
X80680148Y-60305030D01*
X80677706Y-60331861D01*
X80405901Y-60060056D01*
X80396715Y-60045497D01*
X80385079Y-60031825D01*
X80321663Y-59975818D01*
X80301689Y-59955843D01*
X80294914Y-59949970D01*
X80278276Y-59937500D01*
X80221225Y-59887114D01*
X80206220Y-59877257D01*
X80183934Y-59866793D01*
X80164237Y-59852031D01*
X80148489Y-59843410D01*
X80077231Y-59816697D01*
X80008160Y-59784268D01*
X79990604Y-59778959D01*
X79967260Y-59775471D01*
X79943792Y-59766673D01*
X79926258Y-59762818D01*
X79839413Y-59756364D01*
X79818195Y-59753193D01*
X79808872Y-59752500D01*
X79787412Y-59752500D01*
X79708252Y-59746618D01*
X79690341Y-59747839D01*
X79668506Y-59752500D01*
X76087772Y-59752500D01*
X76087424Y-59751834D01*
X76242398Y-59709728D01*
X76251920Y-59706300D01*
X76482131Y-59601873D01*
X76490983Y-59596966D01*
X76701536Y-59457074D01*
X76709489Y-59450815D01*
X76894968Y-59279061D01*
X76901819Y-59271610D01*
X77057451Y-59072411D01*
X77063023Y-59063961D01*
X77184804Y-58842441D01*
X77188953Y-58833209D01*
X77273751Y-58595068D01*
X77276370Y-58585292D01*
X77322063Y-58336332D01*
X77323097Y-58325599D01*
X77326082Y-58040596D01*
X77325273Y-58029844D01*
X77284804Y-57779981D01*
X77282390Y-57770152D01*
X77202597Y-57530287D01*
X77198642Y-57520971D01*
X77081527Y-57296949D01*
X77076134Y-57288384D01*
X76924708Y-57085969D01*
X76918014Y-57078377D01*
X76736173Y-56902776D01*
X76728352Y-56896351D01*
X76726500Y-56895064D01*
X76894968Y-56739061D01*
X76901819Y-56731610D01*
X77057451Y-56532411D01*
X77063023Y-56523961D01*
X77184804Y-56302441D01*
X77188953Y-56293209D01*
X77273751Y-56055068D01*
X77276370Y-56045292D01*
X77322063Y-55796332D01*
X77323097Y-55785599D01*
X77326082Y-55500596D01*
X77325273Y-55489844D01*
X77284804Y-55239981D01*
X77282390Y-55230152D01*
X77202597Y-54990287D01*
X77198642Y-54980971D01*
X77081527Y-54756949D01*
X77076134Y-54748384D01*
X76924708Y-54545969D01*
X76918014Y-54538377D01*
X76736173Y-54362776D01*
X76728352Y-54356351D01*
X76726500Y-54355064D01*
X76894968Y-54199061D01*
X76901819Y-54191610D01*
X77057451Y-53992411D01*
X77063023Y-53983961D01*
X77184804Y-53762441D01*
X77188953Y-53753209D01*
X77273751Y-53515068D01*
X77276370Y-53505292D01*
X77293858Y-53410007D01*
X77488801Y-53604950D01*
G36*
X84202000Y-51714633D02*
G01*
X84140775Y-51672081D01*
X84132028Y-51666990D01*
X83904056Y-51557764D01*
X83894607Y-51554137D01*
X83652103Y-51482765D01*
X83642196Y-51480695D01*
X83391402Y-51449011D01*
X83381290Y-51448552D01*
X83128656Y-51457374D01*
X83118601Y-51458538D01*
X82870628Y-51507639D01*
X82860889Y-51510394D01*
X82623956Y-51598508D01*
X82614783Y-51602786D01*
X82394984Y-51727649D01*
X82386613Y-51733338D01*
X82189606Y-51891737D01*
X82182252Y-51898691D01*
X82013104Y-52086548D01*
X82006956Y-52094589D01*
X81900678Y-52259500D01*
X78481044Y-52259500D01*
X78374581Y-52153037D01*
X79205458Y-52153037D01*
X79221834Y-52150881D01*
X79501059Y-52076063D01*
X79525539Y-52063320D01*
X79681790Y-51932210D01*
X79695961Y-51915321D01*
X79766025Y-51793966D01*
X79958148Y-51928492D01*
X79967077Y-51933710D01*
X80194873Y-52042851D01*
X80204535Y-52046540D01*
X80447098Y-52117012D01*
X80457232Y-52119073D01*
X80559309Y-52131246D01*
X80644000Y-52056054D01*
X80644000Y-50747809D01*
X80900000Y-50747809D01*
X80900000Y-52058301D01*
X80993412Y-52133944D01*
X81228045Y-52084070D01*
X81237950Y-52081099D01*
X81473128Y-51988933D01*
X81482415Y-51984384D01*
X81699382Y-51855046D01*
X81707801Y-51849041D01*
X81900730Y-51686003D01*
X81908055Y-51678703D01*
X82071766Y-51486344D01*
X82077801Y-51477946D01*
X82207895Y-51261431D01*
X82212477Y-51252161D01*
X82305463Y-51017306D01*
X82308470Y-51007411D01*
X82360285Y-50767753D01*
X82284636Y-50674000D01*
X80973809Y-50674000D01*
X80900000Y-50747809D01*
X80644000Y-50747809D01*
X80644000Y-50418000D01*
X82281634Y-50418000D01*
X82357119Y-50328991D01*
X82329174Y-50160196D01*
X82326655Y-50150166D01*
X82245253Y-49911050D01*
X82241130Y-49901566D01*
X82121767Y-49678955D01*
X82116149Y-49670271D01*
X82105159Y-49656000D01*
X84202000Y-49656000D01*
X84202000Y-51714633D01*
G37*
X84202000Y-51714633D02*
X84140775Y-51672081D01*
X84132028Y-51666990D01*
X83904056Y-51557764D01*
X83894607Y-51554137D01*
X83652103Y-51482765D01*
X83642196Y-51480695D01*
X83391402Y-51449011D01*
X83381290Y-51448552D01*
X83128656Y-51457374D01*
X83118601Y-51458538D01*
X82870628Y-51507639D01*
X82860889Y-51510394D01*
X82623956Y-51598508D01*
X82614783Y-51602786D01*
X82394984Y-51727649D01*
X82386613Y-51733338D01*
X82189606Y-51891737D01*
X82182252Y-51898691D01*
X82013104Y-52086548D01*
X82006956Y-52094589D01*
X81900678Y-52259500D01*
X78481044Y-52259500D01*
X78374581Y-52153037D01*
X79205458Y-52153037D01*
X79221834Y-52150881D01*
X79501059Y-52076063D01*
X79525539Y-52063320D01*
X79681790Y-51932210D01*
X79695961Y-51915321D01*
X79766025Y-51793966D01*
X79958148Y-51928492D01*
X79967077Y-51933710D01*
X80194873Y-52042851D01*
X80204535Y-52046540D01*
X80447098Y-52117012D01*
X80457232Y-52119073D01*
X80559309Y-52131246D01*
X80644000Y-52056054D01*
X80644000Y-50747809D01*
X80900000Y-50747809D01*
X80900000Y-52058301D01*
X80993412Y-52133944D01*
X81228045Y-52084070D01*
X81237950Y-52081099D01*
X81473128Y-51988933D01*
X81482415Y-51984384D01*
X81699382Y-51855046D01*
X81707801Y-51849041D01*
X81900730Y-51686003D01*
X81908055Y-51678703D01*
X82071766Y-51486344D01*
X82077801Y-51477946D01*
X82207895Y-51261431D01*
X82212477Y-51252161D01*
X82305463Y-51017306D01*
X82308470Y-51007411D01*
X82360285Y-50767753D01*
X82284636Y-50674000D01*
X80973809Y-50674000D01*
X80900000Y-50747809D01*
X80644000Y-50747809D01*
X80644000Y-50418000D01*
X82281634Y-50418000D01*
X82357119Y-50328991D01*
X82329174Y-50160196D01*
X82326655Y-50150166D01*
X82245253Y-49911050D01*
X82241130Y-49901566D01*
X82121767Y-49678955D01*
X82116149Y-49670271D01*
X82105159Y-49656000D01*
X84202000Y-49656000D01*
X84202000Y-51714633D01*
M02*
