G04 #@! TF.GenerationSoftware,KiCad,Pcbnew,(5.99.0-1129-g103b0c18d)*
G04 #@! TF.CreationDate,2020-03-21T11:47:11+02:00*
G04 #@! TF.ProjectId,superduro,73757065-7264-4757-926f-2e6b69636164,rev?*
G04 #@! TF.SameCoordinates,Original*
G04 #@! TF.FileFunction,Soldermask,Top*
G04 #@! TF.FilePolarity,Negative*
%FSLAX46Y46*%
G04 Gerber Fmt 4.6, Leading zero omitted, Abs format (unit mm)*
G04 Created by KiCad (PCBNEW (5.99.0-1129-g103b0c18d)) date 2020-03-21 11:47:11*
%MOMM*%
%LPD*%
G01*
G04 APERTURE LIST*
G04 APERTURE END LIST*
G36*
X81680899Y-71960959D02*
G01*
X81697769Y-71972231D01*
X81709041Y-71989101D01*
X81715448Y-72021312D01*
X81715448Y-74028688D01*
X81712999Y-74041000D01*
X81709041Y-74060899D01*
X81697769Y-74077769D01*
X81680899Y-74089041D01*
X81661000Y-74092999D01*
X81648688Y-74095448D01*
X79641312Y-74095448D01*
X79609101Y-74089041D01*
X79592231Y-74077769D01*
X79580959Y-74060899D01*
X79574552Y-74028688D01*
X79574552Y-72021312D01*
X79580959Y-71989101D01*
X79592231Y-71972231D01*
X79609101Y-71960959D01*
X79641312Y-71954552D01*
X81648688Y-71954552D01*
X81680899Y-71960959D01*
G37*
G36*
X72447197Y-72009132D02*
G01*
X72496736Y-72009478D01*
X72545264Y-72019439D01*
X72589103Y-72024047D01*
X72637383Y-72038349D01*
X72691952Y-72049550D01*
X72731931Y-72066356D01*
X72768175Y-72077092D01*
X72818645Y-72102807D01*
X72875667Y-72126777D01*
X72906477Y-72147559D01*
X72934587Y-72161881D01*
X72984549Y-72200219D01*
X73040884Y-72238217D01*
X73062704Y-72260190D01*
X73082758Y-72275578D01*
X73129151Y-72327103D01*
X73181308Y-72379625D01*
X73195005Y-72400241D01*
X73207729Y-72414372D01*
X73247336Y-72479005D01*
X73291592Y-72545615D01*
X73298653Y-72562746D01*
X73305314Y-72573616D01*
X73334889Y-72650663D01*
X73367534Y-72729865D01*
X73369923Y-72741928D01*
X73372245Y-72747978D01*
X73388698Y-72836749D01*
X73406243Y-72925357D01*
X73403064Y-73152980D01*
X73399761Y-73167519D01*
X73399616Y-73173049D01*
X73378907Y-73259308D01*
X73358912Y-73347314D01*
X73356451Y-73352842D01*
X73356401Y-73353049D01*
X73280437Y-73523668D01*
X73280317Y-73523843D01*
X73277855Y-73529372D01*
X73225805Y-73603158D01*
X73174653Y-73677584D01*
X73170071Y-73682166D01*
X73162980Y-73692218D01*
X73100923Y-73751314D01*
X73042584Y-73809653D01*
X73032080Y-73816872D01*
X73018662Y-73829650D01*
X72951141Y-73872500D01*
X72888668Y-73915437D01*
X72871297Y-73923171D01*
X72850398Y-73936434D01*
X72781382Y-73963204D01*
X72718049Y-73991401D01*
X72693472Y-73997302D01*
X72664598Y-74008501D01*
X72597664Y-74020303D01*
X72536445Y-74035001D01*
X72504950Y-74036651D01*
X72468339Y-74043107D01*
X72406488Y-74041811D01*
X72349933Y-74044775D01*
X72312458Y-74039841D01*
X72269096Y-74038933D01*
X72214679Y-74026969D01*
X72164762Y-74020397D01*
X72122848Y-74006778D01*
X72074458Y-73996139D01*
X72029055Y-73976303D01*
X71987140Y-73962684D01*
X71942893Y-73938660D01*
X71891839Y-73916355D01*
X71856227Y-73891604D01*
X71823007Y-73873567D01*
X71778994Y-73837926D01*
X71728194Y-73802619D01*
X71702368Y-73775875D01*
X71677860Y-73756029D01*
X71636975Y-73708159D01*
X71589758Y-73659264D01*
X71572982Y-73633232D01*
X71556567Y-73614013D01*
X71521900Y-73553969D01*
X71481803Y-73491750D01*
X71472692Y-73468739D01*
X71463182Y-73452267D01*
X71437876Y-73380805D01*
X71408440Y-73306458D01*
X71405095Y-73288231D01*
X71400840Y-73276216D01*
X71387932Y-73194717D01*
X71372465Y-73110445D01*
X71372637Y-73098148D01*
X71371623Y-73091748D01*
X71373987Y-73001435D01*
X71375248Y-72911177D01*
X71376505Y-72905262D01*
X71376511Y-72905045D01*
X71415342Y-72722362D01*
X71415424Y-72722165D01*
X71416682Y-72716245D01*
X71452251Y-72633255D01*
X71486814Y-72549814D01*
X71490344Y-72544378D01*
X71495189Y-72533074D01*
X71543591Y-72462385D01*
X71588538Y-72393172D01*
X71597314Y-72383924D01*
X71607780Y-72368639D01*
X71664899Y-72312704D01*
X71717097Y-72257699D01*
X71732487Y-72246518D01*
X71750165Y-72229206D01*
X71812087Y-72188685D01*
X71868190Y-72147924D01*
X71891007Y-72137041D01*
X71916921Y-72120083D01*
X71979935Y-72094624D01*
X72036765Y-72067517D01*
X72067233Y-72059353D01*
X72101697Y-72045429D01*
X72162456Y-72033839D01*
X72217168Y-72019179D01*
X72254856Y-72016213D01*
X72297454Y-72008087D01*
X72353162Y-72008476D01*
X72403362Y-72004525D01*
X72447197Y-72009132D01*
G37*
G36*
X77527197Y-72009132D02*
G01*
X77576736Y-72009478D01*
X77625264Y-72019439D01*
X77669103Y-72024047D01*
X77717383Y-72038349D01*
X77771952Y-72049550D01*
X77811931Y-72066356D01*
X77848175Y-72077092D01*
X77898645Y-72102807D01*
X77955667Y-72126777D01*
X77986477Y-72147559D01*
X78014587Y-72161881D01*
X78064549Y-72200219D01*
X78120884Y-72238217D01*
X78142704Y-72260190D01*
X78162758Y-72275578D01*
X78209151Y-72327103D01*
X78261308Y-72379625D01*
X78275005Y-72400241D01*
X78287729Y-72414372D01*
X78327336Y-72479005D01*
X78371592Y-72545615D01*
X78378653Y-72562746D01*
X78385314Y-72573616D01*
X78414889Y-72650663D01*
X78447534Y-72729865D01*
X78449923Y-72741928D01*
X78452245Y-72747978D01*
X78468698Y-72836749D01*
X78486243Y-72925357D01*
X78483064Y-73152980D01*
X78479761Y-73167519D01*
X78479616Y-73173049D01*
X78458907Y-73259308D01*
X78438912Y-73347314D01*
X78436451Y-73352842D01*
X78436401Y-73353049D01*
X78360437Y-73523668D01*
X78360317Y-73523843D01*
X78357855Y-73529372D01*
X78305805Y-73603158D01*
X78254653Y-73677584D01*
X78250071Y-73682166D01*
X78242980Y-73692218D01*
X78180923Y-73751314D01*
X78122584Y-73809653D01*
X78112080Y-73816872D01*
X78098662Y-73829650D01*
X78031141Y-73872500D01*
X77968668Y-73915437D01*
X77951297Y-73923171D01*
X77930398Y-73936434D01*
X77861382Y-73963204D01*
X77798049Y-73991401D01*
X77773472Y-73997302D01*
X77744598Y-74008501D01*
X77677664Y-74020303D01*
X77616445Y-74035001D01*
X77584950Y-74036651D01*
X77548339Y-74043107D01*
X77486488Y-74041811D01*
X77429933Y-74044775D01*
X77392458Y-74039841D01*
X77349096Y-74038933D01*
X77294679Y-74026969D01*
X77244762Y-74020397D01*
X77202848Y-74006778D01*
X77154458Y-73996139D01*
X77109055Y-73976303D01*
X77067140Y-73962684D01*
X77022893Y-73938660D01*
X76971839Y-73916355D01*
X76936227Y-73891604D01*
X76903007Y-73873567D01*
X76858994Y-73837926D01*
X76808194Y-73802619D01*
X76782368Y-73775875D01*
X76757860Y-73756029D01*
X76716975Y-73708159D01*
X76669758Y-73659264D01*
X76652982Y-73633232D01*
X76636567Y-73614013D01*
X76601900Y-73553969D01*
X76561803Y-73491750D01*
X76552692Y-73468739D01*
X76543182Y-73452267D01*
X76517876Y-73380805D01*
X76488440Y-73306458D01*
X76485095Y-73288231D01*
X76480840Y-73276216D01*
X76467932Y-73194717D01*
X76452465Y-73110445D01*
X76452637Y-73098148D01*
X76451623Y-73091748D01*
X76453987Y-73001435D01*
X76455248Y-72911177D01*
X76456505Y-72905262D01*
X76456511Y-72905045D01*
X76495342Y-72722362D01*
X76495424Y-72722165D01*
X76496682Y-72716245D01*
X76532251Y-72633255D01*
X76566814Y-72549814D01*
X76570344Y-72544378D01*
X76575189Y-72533074D01*
X76623591Y-72462385D01*
X76668538Y-72393172D01*
X76677314Y-72383924D01*
X76687780Y-72368639D01*
X76744899Y-72312704D01*
X76797097Y-72257699D01*
X76812487Y-72246518D01*
X76830165Y-72229206D01*
X76892087Y-72188685D01*
X76948190Y-72147924D01*
X76971007Y-72137041D01*
X76996921Y-72120083D01*
X77059935Y-72094624D01*
X77116765Y-72067517D01*
X77147233Y-72059353D01*
X77181697Y-72045429D01*
X77242456Y-72033839D01*
X77297168Y-72019179D01*
X77334856Y-72016213D01*
X77377454Y-72008087D01*
X77433162Y-72008476D01*
X77483362Y-72004525D01*
X77527197Y-72009132D01*
G37*
G36*
X74987197Y-72009132D02*
G01*
X75036736Y-72009478D01*
X75085264Y-72019439D01*
X75129103Y-72024047D01*
X75177383Y-72038349D01*
X75231952Y-72049550D01*
X75271931Y-72066356D01*
X75308175Y-72077092D01*
X75358645Y-72102807D01*
X75415667Y-72126777D01*
X75446477Y-72147559D01*
X75474587Y-72161881D01*
X75524549Y-72200219D01*
X75580884Y-72238217D01*
X75602704Y-72260190D01*
X75622758Y-72275578D01*
X75669151Y-72327103D01*
X75721308Y-72379625D01*
X75735005Y-72400241D01*
X75747729Y-72414372D01*
X75787336Y-72479005D01*
X75831592Y-72545615D01*
X75838653Y-72562746D01*
X75845314Y-72573616D01*
X75874889Y-72650663D01*
X75907534Y-72729865D01*
X75909923Y-72741928D01*
X75912245Y-72747978D01*
X75928698Y-72836749D01*
X75946243Y-72925357D01*
X75943064Y-73152980D01*
X75939761Y-73167519D01*
X75939616Y-73173049D01*
X75918907Y-73259308D01*
X75898912Y-73347314D01*
X75896451Y-73352842D01*
X75896401Y-73353049D01*
X75820437Y-73523668D01*
X75820317Y-73523843D01*
X75817855Y-73529372D01*
X75765805Y-73603158D01*
X75714653Y-73677584D01*
X75710071Y-73682166D01*
X75702980Y-73692218D01*
X75640923Y-73751314D01*
X75582584Y-73809653D01*
X75572080Y-73816872D01*
X75558662Y-73829650D01*
X75491141Y-73872500D01*
X75428668Y-73915437D01*
X75411297Y-73923171D01*
X75390398Y-73936434D01*
X75321382Y-73963204D01*
X75258049Y-73991401D01*
X75233472Y-73997302D01*
X75204598Y-74008501D01*
X75137664Y-74020303D01*
X75076445Y-74035001D01*
X75044950Y-74036651D01*
X75008339Y-74043107D01*
X74946488Y-74041811D01*
X74889933Y-74044775D01*
X74852458Y-74039841D01*
X74809096Y-74038933D01*
X74754679Y-74026969D01*
X74704762Y-74020397D01*
X74662848Y-74006778D01*
X74614458Y-73996139D01*
X74569055Y-73976303D01*
X74527140Y-73962684D01*
X74482893Y-73938660D01*
X74431839Y-73916355D01*
X74396227Y-73891604D01*
X74363007Y-73873567D01*
X74318994Y-73837926D01*
X74268194Y-73802619D01*
X74242368Y-73775875D01*
X74217860Y-73756029D01*
X74176975Y-73708159D01*
X74129758Y-73659264D01*
X74112982Y-73633232D01*
X74096567Y-73614013D01*
X74061900Y-73553969D01*
X74021803Y-73491750D01*
X74012692Y-73468739D01*
X74003182Y-73452267D01*
X73977876Y-73380805D01*
X73948440Y-73306458D01*
X73945095Y-73288231D01*
X73940840Y-73276216D01*
X73927932Y-73194717D01*
X73912465Y-73110445D01*
X73912637Y-73098148D01*
X73911623Y-73091748D01*
X73913987Y-73001435D01*
X73915248Y-72911177D01*
X73916505Y-72905262D01*
X73916511Y-72905045D01*
X73955342Y-72722362D01*
X73955424Y-72722165D01*
X73956682Y-72716245D01*
X73992251Y-72633255D01*
X74026814Y-72549814D01*
X74030344Y-72544378D01*
X74035189Y-72533074D01*
X74083591Y-72462385D01*
X74128538Y-72393172D01*
X74137314Y-72383924D01*
X74147780Y-72368639D01*
X74204899Y-72312704D01*
X74257097Y-72257699D01*
X74272487Y-72246518D01*
X74290165Y-72229206D01*
X74352087Y-72188685D01*
X74408190Y-72147924D01*
X74431007Y-72137041D01*
X74456921Y-72120083D01*
X74519935Y-72094624D01*
X74576765Y-72067517D01*
X74607233Y-72059353D01*
X74641697Y-72045429D01*
X74702456Y-72033839D01*
X74757168Y-72019179D01*
X74794856Y-72016213D01*
X74837454Y-72008087D01*
X74893162Y-72008476D01*
X74943362Y-72004525D01*
X74987197Y-72009132D01*
G37*
G36*
X70835099Y-72011759D02*
G01*
X70851969Y-72023031D01*
X70863241Y-72039901D01*
X70869648Y-72072112D01*
X70869648Y-73977888D01*
X70867199Y-73990200D01*
X70863241Y-74010099D01*
X70851969Y-74026969D01*
X70835099Y-74038241D01*
X70815200Y-74042199D01*
X70802888Y-74044648D01*
X68897112Y-74044648D01*
X68864901Y-74038241D01*
X68848031Y-74026969D01*
X68836759Y-74010099D01*
X68830352Y-73977888D01*
X68830352Y-72072112D01*
X68836759Y-72039901D01*
X68848031Y-72023031D01*
X68864901Y-72011759D01*
X68897112Y-72005352D01*
X70802888Y-72005352D01*
X70835099Y-72011759D01*
G37*
G36*
X64231265Y-72077564D02*
G01*
X64272082Y-72079560D01*
X64320672Y-72091405D01*
X64375954Y-72099963D01*
X64414340Y-72114238D01*
X64448386Y-72122538D01*
X64499144Y-72145777D01*
X64557037Y-72167307D01*
X64586823Y-72185920D01*
X64613386Y-72198081D01*
X64663565Y-72233873D01*
X64720880Y-72269688D01*
X64742086Y-72289882D01*
X64761120Y-72303459D01*
X64807624Y-72352293D01*
X64860790Y-72402922D01*
X64874169Y-72422172D01*
X64886267Y-72434876D01*
X64925839Y-72496516D01*
X64971052Y-72561569D01*
X64977981Y-72577734D01*
X64984300Y-72587578D01*
X65013644Y-72660944D01*
X65047162Y-72739146D01*
X65049522Y-72750645D01*
X65051693Y-72756072D01*
X65067712Y-72839260D01*
X65086010Y-72928400D01*
X65085934Y-72950226D01*
X65085488Y-73120878D01*
X65085336Y-73121646D01*
X65085313Y-73128237D01*
X65066577Y-73216382D01*
X65050272Y-73298725D01*
X65047758Y-73304915D01*
X65045144Y-73317215D01*
X65011415Y-73394417D01*
X64982000Y-73466859D01*
X64975176Y-73477367D01*
X64967797Y-73494257D01*
X64922603Y-73558323D01*
X64883167Y-73619050D01*
X64870422Y-73632294D01*
X64856430Y-73652129D01*
X64803526Y-73701809D01*
X64757332Y-73749812D01*
X64737543Y-73763771D01*
X64715593Y-73784384D01*
X64658742Y-73819359D01*
X64609049Y-73854413D01*
X64581661Y-73866779D01*
X64551039Y-73885618D01*
X64493790Y-73906455D01*
X64443660Y-73929090D01*
X64408756Y-73937405D01*
X64369490Y-73951697D01*
X64314973Y-73959747D01*
X64267130Y-73971145D01*
X64225469Y-73972964D01*
X64178363Y-73979920D01*
X64129162Y-73977169D01*
X64085834Y-73979061D01*
X64038817Y-73972118D01*
X63985464Y-73969135D01*
X63943455Y-73958036D01*
X63906313Y-73952551D01*
X63855974Y-73934922D01*
X63798673Y-73919783D01*
X63764975Y-73903055D01*
X63735043Y-73892573D01*
X63683924Y-73862821D01*
X63625621Y-73833879D01*
X63600574Y-73814310D01*
X63578207Y-73801292D01*
X63529261Y-73758594D01*
X63473378Y-73714933D01*
X63456563Y-73695176D01*
X63441455Y-73681996D01*
X63397885Y-73626229D01*
X63348161Y-73567804D01*
X63338481Y-73550197D01*
X63329735Y-73539002D01*
X63294858Y-73470845D01*
X63255086Y-73398501D01*
X63250873Y-73384893D01*
X63247068Y-73377456D01*
X63224105Y-73298418D01*
X63197955Y-73213941D01*
X63197136Y-73205593D01*
X63196439Y-73203192D01*
X63188334Y-73115818D01*
X63179102Y-73021663D01*
X63188882Y-72928609D01*
X63197384Y-72841902D01*
X63198332Y-72838701D01*
X63199297Y-72829521D01*
X63225784Y-72746023D01*
X63248925Y-72667900D01*
X63253155Y-72659739D01*
X63257715Y-72645365D01*
X63297592Y-72574012D01*
X63332437Y-72506791D01*
X63341754Y-72494993D01*
X63351969Y-72476716D01*
X63401575Y-72419246D01*
X63444906Y-72364380D01*
X63460709Y-72350740D01*
X63478210Y-72330464D01*
X63533745Y-72287697D01*
X63582278Y-72245804D01*
X63605435Y-72232488D01*
X63631281Y-72212584D01*
X63689036Y-72184415D01*
X63739592Y-72155344D01*
X63770368Y-72144747D01*
X63804928Y-72127891D01*
X63861525Y-72113359D01*
X63911171Y-72096265D01*
X63949161Y-72090858D01*
X63992059Y-72079844D01*
X64044613Y-72077274D01*
X64090830Y-72070696D01*
X64134967Y-72072854D01*
X64185028Y-72070406D01*
X64231265Y-72077564D01*
G37*
G36*
X67594899Y-72076959D02*
G01*
X67611769Y-72088231D01*
X67623041Y-72105101D01*
X67629448Y-72137312D01*
X67629448Y-73912688D01*
X67624725Y-73936434D01*
X67623041Y-73944899D01*
X67611769Y-73961769D01*
X67594899Y-73973041D01*
X67575000Y-73976999D01*
X67562688Y-73979448D01*
X65787312Y-73979448D01*
X65755101Y-73973041D01*
X65738231Y-73961769D01*
X65726959Y-73944899D01*
X65720552Y-73912688D01*
X65720552Y-72137312D01*
X65726959Y-72105101D01*
X65738231Y-72088231D01*
X65755101Y-72076959D01*
X65787312Y-72070552D01*
X67562688Y-72070552D01*
X67594899Y-72076959D01*
G37*
G36*
X63559139Y-68164342D02*
G01*
X63610391Y-68164700D01*
X63660592Y-68175005D01*
X63705921Y-68179769D01*
X63755849Y-68194559D01*
X63812293Y-68206145D01*
X63853643Y-68223527D01*
X63891126Y-68234630D01*
X63943310Y-68261219D01*
X64002300Y-68286016D01*
X64034181Y-68307520D01*
X64063239Y-68322326D01*
X64114895Y-68361963D01*
X64173174Y-68401273D01*
X64195742Y-68423999D01*
X64216479Y-68439911D01*
X64264446Y-68493184D01*
X64318407Y-68547523D01*
X64332580Y-68568855D01*
X64345732Y-68583462D01*
X64386673Y-68650271D01*
X64432468Y-68719198D01*
X64439774Y-68736924D01*
X64446659Y-68748159D01*
X64477227Y-68827791D01*
X64511011Y-68909758D01*
X64513483Y-68922242D01*
X64515882Y-68928492D01*
X64532877Y-69020190D01*
X64551045Y-69111944D01*
X64547757Y-69347363D01*
X64544353Y-69362347D01*
X64544203Y-69368066D01*
X64522784Y-69457285D01*
X64502094Y-69548352D01*
X64499548Y-69554071D01*
X64499497Y-69554282D01*
X64420930Y-69730745D01*
X64420810Y-69730919D01*
X64418261Y-69736645D01*
X64364384Y-69813021D01*
X64311524Y-69889932D01*
X64306786Y-69894670D01*
X64299451Y-69905068D01*
X64235258Y-69966198D01*
X64174932Y-70026524D01*
X64164070Y-70033989D01*
X64150191Y-70047206D01*
X64080349Y-70091529D01*
X64015745Y-70135930D01*
X63997781Y-70143928D01*
X63976165Y-70157646D01*
X63904788Y-70185332D01*
X63839282Y-70214497D01*
X63813863Y-70220599D01*
X63784002Y-70232182D01*
X63714772Y-70244389D01*
X63651462Y-70259588D01*
X63618890Y-70261295D01*
X63581022Y-70267972D01*
X63517047Y-70266632D01*
X63458562Y-70269697D01*
X63419812Y-70264596D01*
X63374955Y-70263656D01*
X63318658Y-70251278D01*
X63267049Y-70244484D01*
X63223715Y-70230404D01*
X63173652Y-70219397D01*
X63126680Y-70198875D01*
X63083342Y-70184794D01*
X63037590Y-70159953D01*
X62984779Y-70136880D01*
X62947942Y-70111278D01*
X62913588Y-70092625D01*
X62868070Y-70055765D01*
X62815530Y-70019249D01*
X62788819Y-69991589D01*
X62763479Y-69971069D01*
X62721204Y-69921572D01*
X62672353Y-69870985D01*
X62654997Y-69844054D01*
X62638024Y-69824181D01*
X62602176Y-69762092D01*
X62560701Y-69697734D01*
X62551277Y-69673932D01*
X62541443Y-69656899D01*
X62515273Y-69582997D01*
X62484826Y-69506096D01*
X62481366Y-69487245D01*
X62476966Y-69474819D01*
X62463619Y-69390547D01*
X62447619Y-69303371D01*
X62447797Y-69290649D01*
X62446749Y-69284034D01*
X62449192Y-69190694D01*
X62450497Y-69097279D01*
X62451798Y-69091157D01*
X62451804Y-69090936D01*
X62491965Y-68901999D01*
X62492047Y-68901800D01*
X62493350Y-68895672D01*
X62530167Y-68809771D01*
X62565886Y-68723538D01*
X62569534Y-68717920D01*
X62574546Y-68706227D01*
X62624610Y-68633111D01*
X62671090Y-68561537D01*
X62680166Y-68551973D01*
X62690992Y-68536162D01*
X62750082Y-68478296D01*
X62804053Y-68421423D01*
X62819964Y-68409863D01*
X62838253Y-68391953D01*
X62902313Y-68350033D01*
X62960323Y-68307887D01*
X62983918Y-68296633D01*
X63010720Y-68279094D01*
X63075896Y-68252761D01*
X63134666Y-68224729D01*
X63166171Y-68216287D01*
X63201823Y-68201883D01*
X63264682Y-68189892D01*
X63321249Y-68174735D01*
X63360210Y-68171669D01*
X63404284Y-68163261D01*
X63461923Y-68163663D01*
X63513819Y-68159579D01*
X63559139Y-68164342D01*
G37*
G36*
X73723109Y-67259000D02*
G01*
X73775573Y-67259000D01*
X73836204Y-67269691D01*
X73892451Y-67275008D01*
X73944802Y-67288840D01*
X74003206Y-67299138D01*
X74054658Y-67317865D01*
X74102476Y-67330499D01*
X74158305Y-67355589D01*
X74220411Y-67378194D01*
X74261890Y-67402142D01*
X74300605Y-67419541D01*
X74357506Y-67457346D01*
X74420589Y-67493767D01*
X74452021Y-67520142D01*
X74481537Y-67539752D01*
X74536736Y-67591226D01*
X74597656Y-67642344D01*
X74619609Y-67668506D01*
X74640407Y-67687901D01*
X74690903Y-67753471D01*
X74746233Y-67819411D01*
X74759860Y-67843014D01*
X74772945Y-67860005D01*
X74815615Y-67939584D01*
X74861806Y-68019589D01*
X74868764Y-68038706D01*
X74875594Y-68051444D01*
X74907316Y-68144626D01*
X74940862Y-68236794D01*
X74943194Y-68250017D01*
X74945597Y-68257077D01*
X74963385Y-68364531D01*
X74981000Y-68464427D01*
X74981000Y-68695573D01*
X74974393Y-68733044D01*
X74973868Y-68754523D01*
X74956182Y-68836320D01*
X74940862Y-68923206D01*
X74932325Y-68946660D01*
X74928287Y-68965338D01*
X74894093Y-69051703D01*
X74861806Y-69140411D01*
X74852785Y-69156035D01*
X74848323Y-69167306D01*
X74796069Y-69254271D01*
X74746233Y-69340589D01*
X74739084Y-69349108D01*
X74736445Y-69353501D01*
X74661977Y-69441002D01*
X74597656Y-69517656D01*
X74527729Y-69576332D01*
X74429742Y-69659137D01*
X74427337Y-69660570D01*
X74420589Y-69666233D01*
X74333213Y-69716679D01*
X74243153Y-69770366D01*
X74234040Y-69773937D01*
X74220411Y-69781806D01*
X74129902Y-69814749D01*
X74040905Y-69849626D01*
X74024491Y-69853115D01*
X74003206Y-69860862D01*
X73914246Y-69876548D01*
X73828429Y-69894789D01*
X73804680Y-69895868D01*
X73775573Y-69901000D01*
X73691669Y-69901000D01*
X73611431Y-69904644D01*
X73580872Y-69901000D01*
X73544427Y-69901000D01*
X73468294Y-69887576D01*
X73395732Y-69878923D01*
X73359462Y-69868386D01*
X73316794Y-69860862D01*
X73250446Y-69836713D01*
X73187129Y-69818318D01*
X73146747Y-69798970D01*
X73099589Y-69781806D01*
X73044307Y-69749889D01*
X72991231Y-69724459D01*
X72948794Y-69694744D01*
X72899411Y-69666233D01*
X72855730Y-69629580D01*
X72813295Y-69599867D01*
X72771247Y-69558690D01*
X72722344Y-69517656D01*
X72690083Y-69479209D01*
X72658089Y-69447878D01*
X72619148Y-69394672D01*
X72573767Y-69340589D01*
X72552105Y-69303069D01*
X72529796Y-69272588D01*
X72496849Y-69207362D01*
X72458194Y-69140411D01*
X72445727Y-69106158D01*
X72431857Y-69078700D01*
X72407843Y-69002072D01*
X72379138Y-68923206D01*
X72374006Y-68894100D01*
X72366897Y-68871416D01*
X72354688Y-68784543D01*
X72339000Y-68695573D01*
X72339000Y-68672917D01*
X72336665Y-68656303D01*
X72339000Y-68560756D01*
X72339000Y-68464427D01*
X72341733Y-68448928D01*
X72341972Y-68439143D01*
X72361615Y-68336174D01*
X72379138Y-68236794D01*
X72382152Y-68228512D01*
X72382676Y-68225767D01*
X72426892Y-68105591D01*
X72458194Y-68019589D01*
X72508194Y-67932986D01*
X72564978Y-67833029D01*
X72568206Y-67829042D01*
X72573767Y-67819411D01*
X72637840Y-67743052D01*
X72701684Y-67664211D01*
X72710748Y-67656164D01*
X72722344Y-67642344D01*
X72794648Y-67581674D01*
X72864124Y-67519990D01*
X72880298Y-67509805D01*
X72899411Y-67493767D01*
X72975802Y-67449662D01*
X73047935Y-67404238D01*
X73072003Y-67394121D01*
X73099589Y-67378194D01*
X73176385Y-67350243D01*
X73248189Y-67320059D01*
X73280391Y-67312387D01*
X73316794Y-67299138D01*
X73390738Y-67286100D01*
X73459502Y-67269718D01*
X73499508Y-67266920D01*
X73544427Y-67259000D01*
X73612772Y-67259000D01*
X73676193Y-67254565D01*
X73723109Y-67259000D01*
G37*
G36*
X68643109Y-67259000D02*
G01*
X68695573Y-67259000D01*
X68756204Y-67269691D01*
X68812451Y-67275008D01*
X68864802Y-67288840D01*
X68923206Y-67299138D01*
X68974658Y-67317865D01*
X69022476Y-67330499D01*
X69078305Y-67355589D01*
X69140411Y-67378194D01*
X69181890Y-67402142D01*
X69220605Y-67419541D01*
X69277506Y-67457346D01*
X69340589Y-67493767D01*
X69372021Y-67520142D01*
X69401537Y-67539752D01*
X69456736Y-67591226D01*
X69517656Y-67642344D01*
X69539609Y-67668506D01*
X69560407Y-67687901D01*
X69610903Y-67753471D01*
X69666233Y-67819411D01*
X69679860Y-67843014D01*
X69692945Y-67860005D01*
X69735615Y-67939584D01*
X69781806Y-68019589D01*
X69788764Y-68038706D01*
X69795594Y-68051444D01*
X69827316Y-68144626D01*
X69860862Y-68236794D01*
X69863194Y-68250017D01*
X69865597Y-68257077D01*
X69883385Y-68364531D01*
X69901000Y-68464427D01*
X69901000Y-68695573D01*
X69894393Y-68733044D01*
X69893868Y-68754523D01*
X69876182Y-68836320D01*
X69860862Y-68923206D01*
X69852325Y-68946660D01*
X69848287Y-68965338D01*
X69814093Y-69051703D01*
X69781806Y-69140411D01*
X69772785Y-69156035D01*
X69768323Y-69167306D01*
X69716069Y-69254271D01*
X69666233Y-69340589D01*
X69659084Y-69349108D01*
X69656445Y-69353501D01*
X69581977Y-69441002D01*
X69517656Y-69517656D01*
X69447729Y-69576332D01*
X69349742Y-69659137D01*
X69347337Y-69660570D01*
X69340589Y-69666233D01*
X69253213Y-69716679D01*
X69163153Y-69770366D01*
X69154040Y-69773937D01*
X69140411Y-69781806D01*
X69049902Y-69814749D01*
X68960905Y-69849626D01*
X68944491Y-69853115D01*
X68923206Y-69860862D01*
X68834246Y-69876548D01*
X68748429Y-69894789D01*
X68724680Y-69895868D01*
X68695573Y-69901000D01*
X68611669Y-69901000D01*
X68531431Y-69904644D01*
X68500872Y-69901000D01*
X68464427Y-69901000D01*
X68388294Y-69887576D01*
X68315732Y-69878923D01*
X68279462Y-69868386D01*
X68236794Y-69860862D01*
X68170446Y-69836713D01*
X68107129Y-69818318D01*
X68066747Y-69798970D01*
X68019589Y-69781806D01*
X67964307Y-69749889D01*
X67911231Y-69724459D01*
X67868794Y-69694744D01*
X67819411Y-69666233D01*
X67775730Y-69629580D01*
X67733295Y-69599867D01*
X67691247Y-69558690D01*
X67642344Y-69517656D01*
X67610083Y-69479209D01*
X67578089Y-69447878D01*
X67539148Y-69394672D01*
X67493767Y-69340589D01*
X67472105Y-69303069D01*
X67449796Y-69272588D01*
X67416849Y-69207362D01*
X67378194Y-69140411D01*
X67365727Y-69106158D01*
X67351857Y-69078700D01*
X67327843Y-69002072D01*
X67299138Y-68923206D01*
X67294006Y-68894100D01*
X67286897Y-68871416D01*
X67274688Y-68784543D01*
X67259000Y-68695573D01*
X67259000Y-68672917D01*
X67256665Y-68656303D01*
X67259000Y-68560756D01*
X67259000Y-68464427D01*
X67261733Y-68448928D01*
X67261972Y-68439143D01*
X67281615Y-68336174D01*
X67299138Y-68236794D01*
X67302152Y-68228512D01*
X67302676Y-68225767D01*
X67346892Y-68105591D01*
X67378194Y-68019589D01*
X67428194Y-67932986D01*
X67484978Y-67833029D01*
X67488206Y-67829042D01*
X67493767Y-67819411D01*
X67557840Y-67743052D01*
X67621684Y-67664211D01*
X67630748Y-67656164D01*
X67642344Y-67642344D01*
X67714648Y-67581674D01*
X67784124Y-67519990D01*
X67800298Y-67509805D01*
X67819411Y-67493767D01*
X67895802Y-67449662D01*
X67967935Y-67404238D01*
X67992003Y-67394121D01*
X68019589Y-67378194D01*
X68096385Y-67350243D01*
X68168189Y-67320059D01*
X68200391Y-67312387D01*
X68236794Y-67299138D01*
X68310738Y-67286100D01*
X68379502Y-67269718D01*
X68419508Y-67266920D01*
X68464427Y-67259000D01*
X68532772Y-67259000D01*
X68596193Y-67254565D01*
X68643109Y-67259000D01*
G37*
G36*
X80029899Y-67261959D02*
G01*
X80046769Y-67273231D01*
X80058041Y-67290101D01*
X80064448Y-67322312D01*
X80064448Y-69837688D01*
X80058041Y-69869899D01*
X80046769Y-69886769D01*
X80029899Y-69898041D01*
X80010000Y-69901999D01*
X79997688Y-69904448D01*
X77482312Y-69904448D01*
X77450101Y-69898041D01*
X77433231Y-69886769D01*
X77421959Y-69869899D01*
X77415552Y-69837688D01*
X77415552Y-67322312D01*
X77421959Y-67290101D01*
X77433231Y-67273231D01*
X77450101Y-67261959D01*
X77482312Y-67255552D01*
X79997688Y-67255552D01*
X80029899Y-67261959D01*
G37*
G36*
X81784532Y-66687848D02*
G01*
X81836571Y-66688211D01*
X81887546Y-66698675D01*
X81933551Y-66703510D01*
X81984226Y-66718521D01*
X82041547Y-66730287D01*
X82083535Y-66747937D01*
X82121585Y-66759208D01*
X82174562Y-66786201D01*
X82234446Y-66811374D01*
X82266811Y-66833205D01*
X82296310Y-66848235D01*
X82348743Y-66888468D01*
X82407922Y-66928385D01*
X82430840Y-66951463D01*
X82451889Y-66967615D01*
X82500581Y-67021693D01*
X82555366Y-67076862D01*
X82569755Y-67098519D01*
X82583107Y-67113348D01*
X82624672Y-67181176D01*
X82671163Y-67251150D01*
X82678580Y-67269145D01*
X82685569Y-67280550D01*
X82716601Y-67361391D01*
X82750902Y-67444611D01*
X82753411Y-67457284D01*
X82755848Y-67463632D01*
X82773108Y-67556761D01*
X82791545Y-67649875D01*
X82788208Y-67888878D01*
X82784757Y-67904068D01*
X82784605Y-67909870D01*
X82762875Y-68000382D01*
X82741849Y-68092927D01*
X82739261Y-68098740D01*
X82739211Y-68098948D01*
X82659449Y-68278096D01*
X82659327Y-68278274D01*
X82656739Y-68284086D01*
X82602038Y-68361630D01*
X82548377Y-68439707D01*
X82543568Y-68444516D01*
X82536121Y-68455073D01*
X82470939Y-68517145D01*
X82409707Y-68578377D01*
X82398683Y-68585954D01*
X82384589Y-68599375D01*
X82313660Y-68644388D01*
X82248096Y-68689449D01*
X82229867Y-68697565D01*
X82207914Y-68711497D01*
X82135426Y-68739613D01*
X82068948Y-68769211D01*
X82043147Y-68775405D01*
X82012826Y-68787166D01*
X81942536Y-68799560D01*
X81878266Y-68814990D01*
X81845202Y-68816723D01*
X81806755Y-68823502D01*
X81741803Y-68822142D01*
X81682431Y-68825253D01*
X81643091Y-68820074D01*
X81597552Y-68819120D01*
X81540400Y-68806554D01*
X81488001Y-68799656D01*
X81444004Y-68785360D01*
X81393184Y-68774187D01*
X81345501Y-68753355D01*
X81301503Y-68739059D01*
X81255057Y-68713841D01*
X81201435Y-68690414D01*
X81164033Y-68664419D01*
X81129163Y-68645486D01*
X81082959Y-68608071D01*
X81029610Y-68570992D01*
X81002488Y-68542907D01*
X80976761Y-68522073D01*
X80933840Y-68471819D01*
X80884254Y-68420471D01*
X80866636Y-68393133D01*
X80849404Y-68372957D01*
X80813013Y-68309926D01*
X80770902Y-68244583D01*
X80761334Y-68220416D01*
X80751351Y-68203126D01*
X80724784Y-68128103D01*
X80693872Y-68050028D01*
X80690359Y-68030890D01*
X80685892Y-68018274D01*
X80672342Y-67932723D01*
X80656098Y-67844216D01*
X80656278Y-67831298D01*
X80655215Y-67824584D01*
X80657695Y-67729877D01*
X80659020Y-67634987D01*
X80660342Y-67628766D01*
X80660348Y-67628548D01*
X80701120Y-67436734D01*
X80701201Y-67436538D01*
X80702525Y-67430310D01*
X80739939Y-67343018D01*
X80776166Y-67255557D01*
X80779867Y-67249858D01*
X80784957Y-67237982D01*
X80835805Y-67163721D01*
X80882969Y-67091094D01*
X80892179Y-67081389D01*
X80903176Y-67065328D01*
X80963203Y-67006545D01*
X81017960Y-66948843D01*
X81034102Y-66937115D01*
X81052679Y-66918923D01*
X81117732Y-66876354D01*
X81176610Y-66833576D01*
X81200563Y-66822151D01*
X81227772Y-66804346D01*
X81293944Y-66777611D01*
X81353605Y-66749154D01*
X81385587Y-66740585D01*
X81421784Y-66725960D01*
X81485600Y-66713787D01*
X81543028Y-66698399D01*
X81582585Y-66695286D01*
X81627327Y-66686751D01*
X81685845Y-66687159D01*
X81738530Y-66683013D01*
X81784532Y-66687848D01*
G37*
G36*
X66099139Y-63719342D02*
G01*
X66150391Y-63719700D01*
X66200592Y-63730005D01*
X66245921Y-63734769D01*
X66295849Y-63749559D01*
X66352293Y-63761145D01*
X66393643Y-63778527D01*
X66431126Y-63789630D01*
X66483310Y-63816219D01*
X66542300Y-63841016D01*
X66574181Y-63862520D01*
X66603239Y-63877326D01*
X66654895Y-63916963D01*
X66713174Y-63956273D01*
X66735742Y-63978999D01*
X66756479Y-63994911D01*
X66804446Y-64048184D01*
X66858407Y-64102523D01*
X66872580Y-64123855D01*
X66885732Y-64138462D01*
X66926673Y-64205271D01*
X66972468Y-64274198D01*
X66979774Y-64291924D01*
X66986659Y-64303159D01*
X67017227Y-64382791D01*
X67051011Y-64464758D01*
X67053483Y-64477242D01*
X67055882Y-64483492D01*
X67072877Y-64575190D01*
X67091045Y-64666944D01*
X67087757Y-64902363D01*
X67084353Y-64917347D01*
X67084203Y-64923066D01*
X67062784Y-65012285D01*
X67042094Y-65103352D01*
X67039548Y-65109071D01*
X67039497Y-65109282D01*
X66960930Y-65285745D01*
X66960810Y-65285919D01*
X66958261Y-65291645D01*
X66904384Y-65368021D01*
X66851524Y-65444932D01*
X66846786Y-65449670D01*
X66839451Y-65460068D01*
X66775258Y-65521198D01*
X66714932Y-65581524D01*
X66704070Y-65588989D01*
X66690191Y-65602206D01*
X66620349Y-65646529D01*
X66555745Y-65690930D01*
X66537781Y-65698928D01*
X66516165Y-65712646D01*
X66444788Y-65740332D01*
X66379282Y-65769497D01*
X66353863Y-65775599D01*
X66324002Y-65787182D01*
X66254772Y-65799389D01*
X66191462Y-65814588D01*
X66158890Y-65816295D01*
X66121022Y-65822972D01*
X66057047Y-65821632D01*
X65998562Y-65824697D01*
X65959812Y-65819596D01*
X65914955Y-65818656D01*
X65858658Y-65806278D01*
X65807049Y-65799484D01*
X65763715Y-65785404D01*
X65713652Y-65774397D01*
X65666680Y-65753875D01*
X65623342Y-65739794D01*
X65577590Y-65714953D01*
X65524779Y-65691880D01*
X65487942Y-65666278D01*
X65453588Y-65647625D01*
X65408070Y-65610765D01*
X65355530Y-65574249D01*
X65328819Y-65546589D01*
X65303479Y-65526069D01*
X65261204Y-65476572D01*
X65212353Y-65425985D01*
X65194997Y-65399054D01*
X65178024Y-65379181D01*
X65142176Y-65317092D01*
X65100701Y-65252734D01*
X65091277Y-65228932D01*
X65081443Y-65211899D01*
X65055273Y-65137997D01*
X65024826Y-65061096D01*
X65021366Y-65042245D01*
X65016966Y-65029819D01*
X65003619Y-64945547D01*
X64987619Y-64858371D01*
X64987797Y-64845649D01*
X64986749Y-64839034D01*
X64989192Y-64745694D01*
X64990497Y-64652279D01*
X64991798Y-64646157D01*
X64991804Y-64645936D01*
X65031965Y-64456999D01*
X65032047Y-64456800D01*
X65033350Y-64450672D01*
X65070167Y-64364771D01*
X65105886Y-64278538D01*
X65109534Y-64272920D01*
X65114546Y-64261227D01*
X65164610Y-64188111D01*
X65211090Y-64116537D01*
X65220166Y-64106973D01*
X65230992Y-64091162D01*
X65290082Y-64033296D01*
X65344053Y-63976423D01*
X65359964Y-63964863D01*
X65378253Y-63946953D01*
X65442313Y-63905033D01*
X65500323Y-63862887D01*
X65523918Y-63851633D01*
X65550720Y-63834094D01*
X65615896Y-63807761D01*
X65674666Y-63779729D01*
X65706171Y-63771287D01*
X65741823Y-63756883D01*
X65804682Y-63744892D01*
X65861249Y-63729735D01*
X65900210Y-63726669D01*
X65944284Y-63718261D01*
X66001923Y-63718663D01*
X66053819Y-63714579D01*
X66099139Y-63719342D01*
G37*
G36*
X71179139Y-63719342D02*
G01*
X71230391Y-63719700D01*
X71280592Y-63730005D01*
X71325921Y-63734769D01*
X71375849Y-63749559D01*
X71432293Y-63761145D01*
X71473643Y-63778527D01*
X71511126Y-63789630D01*
X71563310Y-63816219D01*
X71622300Y-63841016D01*
X71654181Y-63862520D01*
X71683239Y-63877326D01*
X71734895Y-63916963D01*
X71793174Y-63956273D01*
X71815742Y-63978999D01*
X71836479Y-63994911D01*
X71884446Y-64048184D01*
X71938407Y-64102523D01*
X71952580Y-64123855D01*
X71965732Y-64138462D01*
X72006673Y-64205271D01*
X72052468Y-64274198D01*
X72059774Y-64291924D01*
X72066659Y-64303159D01*
X72097227Y-64382791D01*
X72131011Y-64464758D01*
X72133483Y-64477242D01*
X72135882Y-64483492D01*
X72152877Y-64575190D01*
X72171045Y-64666944D01*
X72167757Y-64902363D01*
X72164353Y-64917347D01*
X72164203Y-64923066D01*
X72142784Y-65012285D01*
X72122094Y-65103352D01*
X72119548Y-65109071D01*
X72119497Y-65109282D01*
X72040930Y-65285745D01*
X72040810Y-65285919D01*
X72038261Y-65291645D01*
X71984384Y-65368021D01*
X71931524Y-65444932D01*
X71926786Y-65449670D01*
X71919451Y-65460068D01*
X71855258Y-65521198D01*
X71794932Y-65581524D01*
X71784070Y-65588989D01*
X71770191Y-65602206D01*
X71700349Y-65646529D01*
X71635745Y-65690930D01*
X71617781Y-65698928D01*
X71596165Y-65712646D01*
X71524788Y-65740332D01*
X71459282Y-65769497D01*
X71433863Y-65775599D01*
X71404002Y-65787182D01*
X71334772Y-65799389D01*
X71271462Y-65814588D01*
X71238890Y-65816295D01*
X71201022Y-65822972D01*
X71137047Y-65821632D01*
X71078562Y-65824697D01*
X71039812Y-65819596D01*
X70994955Y-65818656D01*
X70938658Y-65806278D01*
X70887049Y-65799484D01*
X70843715Y-65785404D01*
X70793652Y-65774397D01*
X70746680Y-65753875D01*
X70703342Y-65739794D01*
X70657590Y-65714953D01*
X70604779Y-65691880D01*
X70567942Y-65666278D01*
X70533588Y-65647625D01*
X70488070Y-65610765D01*
X70435530Y-65574249D01*
X70408819Y-65546589D01*
X70383479Y-65526069D01*
X70341204Y-65476572D01*
X70292353Y-65425985D01*
X70274997Y-65399054D01*
X70258024Y-65379181D01*
X70222176Y-65317092D01*
X70180701Y-65252734D01*
X70171277Y-65228932D01*
X70161443Y-65211899D01*
X70135273Y-65137997D01*
X70104826Y-65061096D01*
X70101366Y-65042245D01*
X70096966Y-65029819D01*
X70083619Y-64945547D01*
X70067619Y-64858371D01*
X70067797Y-64845649D01*
X70066749Y-64839034D01*
X70069192Y-64745694D01*
X70070497Y-64652279D01*
X70071798Y-64646157D01*
X70071804Y-64645936D01*
X70111965Y-64456999D01*
X70112047Y-64456800D01*
X70113350Y-64450672D01*
X70150167Y-64364771D01*
X70185886Y-64278538D01*
X70189534Y-64272920D01*
X70194546Y-64261227D01*
X70244610Y-64188111D01*
X70291090Y-64116537D01*
X70300166Y-64106973D01*
X70310992Y-64091162D01*
X70370082Y-64033296D01*
X70424053Y-63976423D01*
X70439964Y-63964863D01*
X70458253Y-63946953D01*
X70522313Y-63905033D01*
X70580323Y-63862887D01*
X70603918Y-63851633D01*
X70630720Y-63834094D01*
X70695896Y-63807761D01*
X70754666Y-63779729D01*
X70786171Y-63771287D01*
X70821823Y-63756883D01*
X70884682Y-63744892D01*
X70941249Y-63729735D01*
X70980210Y-63726669D01*
X71024284Y-63718261D01*
X71081923Y-63718663D01*
X71133819Y-63714579D01*
X71179139Y-63719342D01*
G37*
G36*
X73719139Y-63719342D02*
G01*
X73770391Y-63719700D01*
X73820592Y-63730005D01*
X73865921Y-63734769D01*
X73915849Y-63749559D01*
X73972293Y-63761145D01*
X74013643Y-63778527D01*
X74051126Y-63789630D01*
X74103310Y-63816219D01*
X74162300Y-63841016D01*
X74194181Y-63862520D01*
X74223239Y-63877326D01*
X74274895Y-63916963D01*
X74333174Y-63956273D01*
X74355742Y-63978999D01*
X74376479Y-63994911D01*
X74424446Y-64048184D01*
X74478407Y-64102523D01*
X74492580Y-64123855D01*
X74505732Y-64138462D01*
X74546673Y-64205271D01*
X74592468Y-64274198D01*
X74599774Y-64291924D01*
X74606659Y-64303159D01*
X74637227Y-64382791D01*
X74671011Y-64464758D01*
X74673483Y-64477242D01*
X74675882Y-64483492D01*
X74692877Y-64575190D01*
X74711045Y-64666944D01*
X74707757Y-64902363D01*
X74704353Y-64917347D01*
X74704203Y-64923066D01*
X74682784Y-65012285D01*
X74662094Y-65103352D01*
X74659548Y-65109071D01*
X74659497Y-65109282D01*
X74580930Y-65285745D01*
X74580810Y-65285919D01*
X74578261Y-65291645D01*
X74524384Y-65368021D01*
X74471524Y-65444932D01*
X74466786Y-65449670D01*
X74459451Y-65460068D01*
X74395258Y-65521198D01*
X74334932Y-65581524D01*
X74324070Y-65588989D01*
X74310191Y-65602206D01*
X74240349Y-65646529D01*
X74175745Y-65690930D01*
X74157781Y-65698928D01*
X74136165Y-65712646D01*
X74064788Y-65740332D01*
X73999282Y-65769497D01*
X73973863Y-65775599D01*
X73944002Y-65787182D01*
X73874772Y-65799389D01*
X73811462Y-65814588D01*
X73778890Y-65816295D01*
X73741022Y-65822972D01*
X73677047Y-65821632D01*
X73618562Y-65824697D01*
X73579812Y-65819596D01*
X73534955Y-65818656D01*
X73478658Y-65806278D01*
X73427049Y-65799484D01*
X73383715Y-65785404D01*
X73333652Y-65774397D01*
X73286680Y-65753875D01*
X73243342Y-65739794D01*
X73197590Y-65714953D01*
X73144779Y-65691880D01*
X73107942Y-65666278D01*
X73073588Y-65647625D01*
X73028070Y-65610765D01*
X72975530Y-65574249D01*
X72948819Y-65546589D01*
X72923479Y-65526069D01*
X72881204Y-65476572D01*
X72832353Y-65425985D01*
X72814997Y-65399054D01*
X72798024Y-65379181D01*
X72762176Y-65317092D01*
X72720701Y-65252734D01*
X72711277Y-65228932D01*
X72701443Y-65211899D01*
X72675273Y-65137997D01*
X72644826Y-65061096D01*
X72641366Y-65042245D01*
X72636966Y-65029819D01*
X72623619Y-64945547D01*
X72607619Y-64858371D01*
X72607797Y-64845649D01*
X72606749Y-64839034D01*
X72609192Y-64745694D01*
X72610497Y-64652279D01*
X72611798Y-64646157D01*
X72611804Y-64645936D01*
X72651965Y-64456999D01*
X72652047Y-64456800D01*
X72653350Y-64450672D01*
X72690167Y-64364771D01*
X72725886Y-64278538D01*
X72729534Y-64272920D01*
X72734546Y-64261227D01*
X72784610Y-64188111D01*
X72831090Y-64116537D01*
X72840166Y-64106973D01*
X72850992Y-64091162D01*
X72910082Y-64033296D01*
X72964053Y-63976423D01*
X72979964Y-63964863D01*
X72998253Y-63946953D01*
X73062313Y-63905033D01*
X73120323Y-63862887D01*
X73143918Y-63851633D01*
X73170720Y-63834094D01*
X73235896Y-63807761D01*
X73294666Y-63779729D01*
X73326171Y-63771287D01*
X73361823Y-63756883D01*
X73424682Y-63744892D01*
X73481249Y-63729735D01*
X73520210Y-63726669D01*
X73564284Y-63718261D01*
X73621923Y-63718663D01*
X73673819Y-63714579D01*
X73719139Y-63719342D01*
G37*
G36*
X81339139Y-63719342D02*
G01*
X81390391Y-63719700D01*
X81440592Y-63730005D01*
X81485921Y-63734769D01*
X81535849Y-63749559D01*
X81592293Y-63761145D01*
X81633643Y-63778527D01*
X81671126Y-63789630D01*
X81723310Y-63816219D01*
X81782300Y-63841016D01*
X81814181Y-63862520D01*
X81843239Y-63877326D01*
X81894895Y-63916963D01*
X81953174Y-63956273D01*
X81975742Y-63978999D01*
X81996479Y-63994911D01*
X82044446Y-64048184D01*
X82098407Y-64102523D01*
X82112580Y-64123855D01*
X82125732Y-64138462D01*
X82166673Y-64205271D01*
X82212468Y-64274198D01*
X82219774Y-64291924D01*
X82226659Y-64303159D01*
X82257227Y-64382791D01*
X82291011Y-64464758D01*
X82293483Y-64477242D01*
X82295882Y-64483492D01*
X82312877Y-64575190D01*
X82331045Y-64666944D01*
X82327757Y-64902363D01*
X82324353Y-64917347D01*
X82324203Y-64923066D01*
X82302784Y-65012285D01*
X82282094Y-65103352D01*
X82279548Y-65109071D01*
X82279497Y-65109282D01*
X82200930Y-65285745D01*
X82200810Y-65285919D01*
X82198261Y-65291645D01*
X82144384Y-65368021D01*
X82091524Y-65444932D01*
X82086786Y-65449670D01*
X82079451Y-65460068D01*
X82015258Y-65521198D01*
X81954932Y-65581524D01*
X81944070Y-65588989D01*
X81930191Y-65602206D01*
X81860349Y-65646529D01*
X81795745Y-65690930D01*
X81777781Y-65698928D01*
X81756165Y-65712646D01*
X81684788Y-65740332D01*
X81619282Y-65769497D01*
X81593863Y-65775599D01*
X81564002Y-65787182D01*
X81494772Y-65799389D01*
X81431462Y-65814588D01*
X81398890Y-65816295D01*
X81361022Y-65822972D01*
X81297047Y-65821632D01*
X81238562Y-65824697D01*
X81199812Y-65819596D01*
X81154955Y-65818656D01*
X81098658Y-65806278D01*
X81047049Y-65799484D01*
X81003715Y-65785404D01*
X80953652Y-65774397D01*
X80906680Y-65753875D01*
X80863342Y-65739794D01*
X80817590Y-65714953D01*
X80764779Y-65691880D01*
X80727942Y-65666278D01*
X80693588Y-65647625D01*
X80648070Y-65610765D01*
X80595530Y-65574249D01*
X80568819Y-65546589D01*
X80543479Y-65526069D01*
X80501204Y-65476572D01*
X80452353Y-65425985D01*
X80434997Y-65399054D01*
X80418024Y-65379181D01*
X80382176Y-65317092D01*
X80340701Y-65252734D01*
X80331277Y-65228932D01*
X80321443Y-65211899D01*
X80295273Y-65137997D01*
X80264826Y-65061096D01*
X80261366Y-65042245D01*
X80256966Y-65029819D01*
X80243619Y-64945547D01*
X80227619Y-64858371D01*
X80227797Y-64845649D01*
X80226749Y-64839034D01*
X80229192Y-64745694D01*
X80230497Y-64652279D01*
X80231798Y-64646157D01*
X80231804Y-64645936D01*
X80271965Y-64456999D01*
X80272047Y-64456800D01*
X80273350Y-64450672D01*
X80310167Y-64364771D01*
X80345886Y-64278538D01*
X80349534Y-64272920D01*
X80354546Y-64261227D01*
X80404610Y-64188111D01*
X80451090Y-64116537D01*
X80460166Y-64106973D01*
X80470992Y-64091162D01*
X80530082Y-64033296D01*
X80584053Y-63976423D01*
X80599964Y-63964863D01*
X80618253Y-63946953D01*
X80682313Y-63905033D01*
X80740323Y-63862887D01*
X80763918Y-63851633D01*
X80790720Y-63834094D01*
X80855896Y-63807761D01*
X80914666Y-63779729D01*
X80946171Y-63771287D01*
X80981823Y-63756883D01*
X81044682Y-63744892D01*
X81101249Y-63729735D01*
X81140210Y-63726669D01*
X81184284Y-63718261D01*
X81241923Y-63718663D01*
X81293819Y-63714579D01*
X81339139Y-63719342D01*
G37*
G36*
X73719139Y-61179342D02*
G01*
X73770391Y-61179700D01*
X73820592Y-61190005D01*
X73865921Y-61194769D01*
X73915849Y-61209559D01*
X73972293Y-61221145D01*
X74013643Y-61238527D01*
X74051126Y-61249630D01*
X74103310Y-61276219D01*
X74162300Y-61301016D01*
X74194181Y-61322520D01*
X74223239Y-61337326D01*
X74274895Y-61376963D01*
X74333174Y-61416273D01*
X74355742Y-61438999D01*
X74376479Y-61454911D01*
X74424446Y-61508184D01*
X74478407Y-61562523D01*
X74492580Y-61583855D01*
X74505732Y-61598462D01*
X74546673Y-61665271D01*
X74592468Y-61734198D01*
X74599774Y-61751924D01*
X74606659Y-61763159D01*
X74637227Y-61842791D01*
X74671011Y-61924758D01*
X74673483Y-61937242D01*
X74675882Y-61943492D01*
X74692877Y-62035190D01*
X74711045Y-62126944D01*
X74707757Y-62362363D01*
X74704353Y-62377347D01*
X74704203Y-62383066D01*
X74682784Y-62472285D01*
X74662094Y-62563352D01*
X74659548Y-62569071D01*
X74659497Y-62569282D01*
X74580930Y-62745745D01*
X74580810Y-62745919D01*
X74578261Y-62751645D01*
X74524384Y-62828021D01*
X74471524Y-62904932D01*
X74466786Y-62909670D01*
X74459451Y-62920068D01*
X74395258Y-62981198D01*
X74334932Y-63041524D01*
X74324070Y-63048989D01*
X74310191Y-63062206D01*
X74240349Y-63106529D01*
X74175745Y-63150930D01*
X74157781Y-63158928D01*
X74136165Y-63172646D01*
X74064788Y-63200332D01*
X73999282Y-63229497D01*
X73973863Y-63235599D01*
X73944002Y-63247182D01*
X73874772Y-63259389D01*
X73811462Y-63274588D01*
X73778890Y-63276295D01*
X73741022Y-63282972D01*
X73677047Y-63281632D01*
X73618562Y-63284697D01*
X73579812Y-63279596D01*
X73534955Y-63278656D01*
X73478658Y-63266278D01*
X73427049Y-63259484D01*
X73383715Y-63245404D01*
X73333652Y-63234397D01*
X73286680Y-63213875D01*
X73243342Y-63199794D01*
X73197590Y-63174953D01*
X73144779Y-63151880D01*
X73107942Y-63126278D01*
X73073588Y-63107625D01*
X73028070Y-63070765D01*
X72975530Y-63034249D01*
X72948819Y-63006589D01*
X72923479Y-62986069D01*
X72881204Y-62936572D01*
X72832353Y-62885985D01*
X72814997Y-62859054D01*
X72798024Y-62839181D01*
X72762176Y-62777092D01*
X72720701Y-62712734D01*
X72711277Y-62688932D01*
X72701443Y-62671899D01*
X72675273Y-62597997D01*
X72644826Y-62521096D01*
X72641366Y-62502245D01*
X72636966Y-62489819D01*
X72623619Y-62405547D01*
X72607619Y-62318371D01*
X72607797Y-62305649D01*
X72606749Y-62299034D01*
X72609192Y-62205694D01*
X72610497Y-62112279D01*
X72611798Y-62106157D01*
X72611804Y-62105936D01*
X72651965Y-61916999D01*
X72652047Y-61916800D01*
X72653350Y-61910672D01*
X72690167Y-61824771D01*
X72725886Y-61738538D01*
X72729534Y-61732920D01*
X72734546Y-61721227D01*
X72784610Y-61648111D01*
X72831090Y-61576537D01*
X72840166Y-61566973D01*
X72850992Y-61551162D01*
X72910082Y-61493296D01*
X72964053Y-61436423D01*
X72979964Y-61424863D01*
X72998253Y-61406953D01*
X73062313Y-61365033D01*
X73120323Y-61322887D01*
X73143918Y-61311633D01*
X73170720Y-61294094D01*
X73235896Y-61267761D01*
X73294666Y-61239729D01*
X73326171Y-61231287D01*
X73361823Y-61216883D01*
X73424682Y-61204892D01*
X73481249Y-61189735D01*
X73520210Y-61186669D01*
X73564284Y-61178261D01*
X73621923Y-61178663D01*
X73673819Y-61174579D01*
X73719139Y-61179342D01*
G37*
G36*
X81339139Y-61179342D02*
G01*
X81390391Y-61179700D01*
X81440592Y-61190005D01*
X81485921Y-61194769D01*
X81535849Y-61209559D01*
X81592293Y-61221145D01*
X81633643Y-61238527D01*
X81671126Y-61249630D01*
X81723310Y-61276219D01*
X81782300Y-61301016D01*
X81814181Y-61322520D01*
X81843239Y-61337326D01*
X81894895Y-61376963D01*
X81953174Y-61416273D01*
X81975742Y-61438999D01*
X81996479Y-61454911D01*
X82044446Y-61508184D01*
X82098407Y-61562523D01*
X82112580Y-61583855D01*
X82125732Y-61598462D01*
X82166673Y-61665271D01*
X82212468Y-61734198D01*
X82219774Y-61751924D01*
X82226659Y-61763159D01*
X82257227Y-61842791D01*
X82291011Y-61924758D01*
X82293483Y-61937242D01*
X82295882Y-61943492D01*
X82312877Y-62035190D01*
X82331045Y-62126944D01*
X82327757Y-62362363D01*
X82324353Y-62377347D01*
X82324203Y-62383066D01*
X82302784Y-62472285D01*
X82282094Y-62563352D01*
X82279548Y-62569071D01*
X82279497Y-62569282D01*
X82200930Y-62745745D01*
X82200810Y-62745919D01*
X82198261Y-62751645D01*
X82144384Y-62828021D01*
X82091524Y-62904932D01*
X82086786Y-62909670D01*
X82079451Y-62920068D01*
X82015258Y-62981198D01*
X81954932Y-63041524D01*
X81944070Y-63048989D01*
X81930191Y-63062206D01*
X81860349Y-63106529D01*
X81795745Y-63150930D01*
X81777781Y-63158928D01*
X81756165Y-63172646D01*
X81684788Y-63200332D01*
X81619282Y-63229497D01*
X81593863Y-63235599D01*
X81564002Y-63247182D01*
X81494772Y-63259389D01*
X81431462Y-63274588D01*
X81398890Y-63276295D01*
X81361022Y-63282972D01*
X81297047Y-63281632D01*
X81238562Y-63284697D01*
X81199812Y-63279596D01*
X81154955Y-63278656D01*
X81098658Y-63266278D01*
X81047049Y-63259484D01*
X81003715Y-63245404D01*
X80953652Y-63234397D01*
X80906680Y-63213875D01*
X80863342Y-63199794D01*
X80817590Y-63174953D01*
X80764779Y-63151880D01*
X80727942Y-63126278D01*
X80693588Y-63107625D01*
X80648070Y-63070765D01*
X80595530Y-63034249D01*
X80568819Y-63006589D01*
X80543479Y-62986069D01*
X80501204Y-62936572D01*
X80452353Y-62885985D01*
X80434997Y-62859054D01*
X80418024Y-62839181D01*
X80382176Y-62777092D01*
X80340701Y-62712734D01*
X80331277Y-62688932D01*
X80321443Y-62671899D01*
X80295273Y-62597997D01*
X80264826Y-62521096D01*
X80261366Y-62502245D01*
X80256966Y-62489819D01*
X80243619Y-62405547D01*
X80227619Y-62318371D01*
X80227797Y-62305649D01*
X80226749Y-62299034D01*
X80229192Y-62205694D01*
X80230497Y-62112279D01*
X80231798Y-62106157D01*
X80231804Y-62105936D01*
X80271965Y-61916999D01*
X80272047Y-61916800D01*
X80273350Y-61910672D01*
X80310167Y-61824771D01*
X80345886Y-61738538D01*
X80349534Y-61732920D01*
X80354546Y-61721227D01*
X80404610Y-61648111D01*
X80451090Y-61576537D01*
X80460166Y-61566973D01*
X80470992Y-61551162D01*
X80530082Y-61493296D01*
X80584053Y-61436423D01*
X80599964Y-61424863D01*
X80618253Y-61406953D01*
X80682313Y-61365033D01*
X80740323Y-61322887D01*
X80763918Y-61311633D01*
X80790720Y-61294094D01*
X80855896Y-61267761D01*
X80914666Y-61239729D01*
X80946171Y-61231287D01*
X80981823Y-61216883D01*
X81044682Y-61204892D01*
X81101249Y-61189735D01*
X81140210Y-61186669D01*
X81184284Y-61178261D01*
X81241923Y-61178663D01*
X81293819Y-61174579D01*
X81339139Y-61179342D01*
G37*
G36*
X63559139Y-60544342D02*
G01*
X63610391Y-60544700D01*
X63660592Y-60555005D01*
X63705921Y-60559769D01*
X63755849Y-60574559D01*
X63812293Y-60586145D01*
X63853643Y-60603527D01*
X63891126Y-60614630D01*
X63943310Y-60641219D01*
X64002300Y-60666016D01*
X64034181Y-60687520D01*
X64063239Y-60702326D01*
X64114895Y-60741963D01*
X64173174Y-60781273D01*
X64195742Y-60803999D01*
X64216479Y-60819911D01*
X64264446Y-60873184D01*
X64318407Y-60927523D01*
X64332580Y-60948855D01*
X64345732Y-60963462D01*
X64386673Y-61030271D01*
X64432468Y-61099198D01*
X64439774Y-61116924D01*
X64446659Y-61128159D01*
X64477227Y-61207791D01*
X64511011Y-61289758D01*
X64513483Y-61302242D01*
X64515882Y-61308492D01*
X64532877Y-61400190D01*
X64551045Y-61491944D01*
X64547757Y-61727363D01*
X64544353Y-61742347D01*
X64544203Y-61748066D01*
X64522784Y-61837285D01*
X64502094Y-61928352D01*
X64499548Y-61934071D01*
X64499497Y-61934282D01*
X64420930Y-62110745D01*
X64420810Y-62110919D01*
X64418261Y-62116645D01*
X64364384Y-62193021D01*
X64311524Y-62269932D01*
X64306786Y-62274670D01*
X64299451Y-62285068D01*
X64235258Y-62346198D01*
X64174932Y-62406524D01*
X64164070Y-62413989D01*
X64150191Y-62427206D01*
X64080349Y-62471529D01*
X64015745Y-62515930D01*
X63997781Y-62523928D01*
X63976165Y-62537646D01*
X63904788Y-62565332D01*
X63839282Y-62594497D01*
X63813863Y-62600599D01*
X63784002Y-62612182D01*
X63714772Y-62624389D01*
X63651462Y-62639588D01*
X63618890Y-62641295D01*
X63581022Y-62647972D01*
X63517047Y-62646632D01*
X63458562Y-62649697D01*
X63419812Y-62644596D01*
X63374955Y-62643656D01*
X63318658Y-62631278D01*
X63267049Y-62624484D01*
X63223715Y-62610404D01*
X63173652Y-62599397D01*
X63126680Y-62578875D01*
X63083342Y-62564794D01*
X63037590Y-62539953D01*
X62984779Y-62516880D01*
X62947942Y-62491278D01*
X62913588Y-62472625D01*
X62868070Y-62435765D01*
X62815530Y-62399249D01*
X62788819Y-62371589D01*
X62763479Y-62351069D01*
X62721204Y-62301572D01*
X62672353Y-62250985D01*
X62654997Y-62224054D01*
X62638024Y-62204181D01*
X62602176Y-62142092D01*
X62560701Y-62077734D01*
X62551277Y-62053932D01*
X62541443Y-62036899D01*
X62515273Y-61962997D01*
X62484826Y-61886096D01*
X62481366Y-61867245D01*
X62476966Y-61854819D01*
X62463619Y-61770547D01*
X62447619Y-61683371D01*
X62447797Y-61670649D01*
X62446749Y-61664034D01*
X62449192Y-61570694D01*
X62450497Y-61477279D01*
X62451798Y-61471157D01*
X62451804Y-61470936D01*
X62491965Y-61281999D01*
X62492047Y-61281800D01*
X62493350Y-61275672D01*
X62530167Y-61189771D01*
X62565886Y-61103538D01*
X62569534Y-61097920D01*
X62574546Y-61086227D01*
X62624610Y-61013111D01*
X62671090Y-60941537D01*
X62680166Y-60931973D01*
X62690992Y-60916162D01*
X62750082Y-60858296D01*
X62804053Y-60801423D01*
X62819964Y-60789863D01*
X62838253Y-60771953D01*
X62902313Y-60730033D01*
X62960323Y-60687887D01*
X62983918Y-60676633D01*
X63010720Y-60659094D01*
X63075896Y-60632761D01*
X63134666Y-60604729D01*
X63166171Y-60596287D01*
X63201823Y-60581883D01*
X63264682Y-60569892D01*
X63321249Y-60554735D01*
X63360210Y-60551669D01*
X63404284Y-60543261D01*
X63461923Y-60543663D01*
X63513819Y-60539579D01*
X63559139Y-60544342D01*
G37*
G36*
X71179139Y-59909342D02*
G01*
X71230391Y-59909700D01*
X71280592Y-59920005D01*
X71325921Y-59924769D01*
X71375849Y-59939559D01*
X71432293Y-59951145D01*
X71473643Y-59968527D01*
X71511126Y-59979630D01*
X71563310Y-60006219D01*
X71622300Y-60031016D01*
X71654181Y-60052520D01*
X71683239Y-60067326D01*
X71734895Y-60106963D01*
X71793174Y-60146273D01*
X71815742Y-60168999D01*
X71836479Y-60184911D01*
X71884446Y-60238184D01*
X71938407Y-60292523D01*
X71952580Y-60313855D01*
X71965732Y-60328462D01*
X72006673Y-60395271D01*
X72052468Y-60464198D01*
X72059774Y-60481924D01*
X72066659Y-60493159D01*
X72097227Y-60572791D01*
X72131011Y-60654758D01*
X72133483Y-60667242D01*
X72135882Y-60673492D01*
X72152877Y-60765190D01*
X72171045Y-60856944D01*
X72167757Y-61092363D01*
X72164353Y-61107347D01*
X72164203Y-61113066D01*
X72142784Y-61202285D01*
X72122094Y-61293352D01*
X72119548Y-61299071D01*
X72119497Y-61299282D01*
X72040930Y-61475745D01*
X72040810Y-61475919D01*
X72038261Y-61481645D01*
X71984384Y-61558021D01*
X71931524Y-61634932D01*
X71926786Y-61639670D01*
X71919451Y-61650068D01*
X71855258Y-61711198D01*
X71794932Y-61771524D01*
X71784070Y-61778989D01*
X71770191Y-61792206D01*
X71700349Y-61836529D01*
X71635745Y-61880930D01*
X71617781Y-61888928D01*
X71596165Y-61902646D01*
X71524788Y-61930332D01*
X71459282Y-61959497D01*
X71433863Y-61965599D01*
X71404002Y-61977182D01*
X71334772Y-61989389D01*
X71271462Y-62004588D01*
X71238890Y-62006295D01*
X71201022Y-62012972D01*
X71137047Y-62011632D01*
X71078562Y-62014697D01*
X71039812Y-62009596D01*
X70994955Y-62008656D01*
X70938658Y-61996278D01*
X70887049Y-61989484D01*
X70843715Y-61975404D01*
X70793652Y-61964397D01*
X70746680Y-61943875D01*
X70703342Y-61929794D01*
X70657590Y-61904953D01*
X70604779Y-61881880D01*
X70567942Y-61856278D01*
X70533588Y-61837625D01*
X70488070Y-61800765D01*
X70435530Y-61764249D01*
X70408819Y-61736589D01*
X70383479Y-61716069D01*
X70341204Y-61666572D01*
X70292353Y-61615985D01*
X70274997Y-61589054D01*
X70258024Y-61569181D01*
X70222176Y-61507092D01*
X70180701Y-61442734D01*
X70171277Y-61418932D01*
X70161443Y-61401899D01*
X70135273Y-61327997D01*
X70104826Y-61251096D01*
X70101366Y-61232245D01*
X70096966Y-61219819D01*
X70083619Y-61135547D01*
X70067619Y-61048371D01*
X70067797Y-61035649D01*
X70066749Y-61029034D01*
X70069192Y-60935694D01*
X70070497Y-60842279D01*
X70071798Y-60836157D01*
X70071804Y-60835936D01*
X70111965Y-60646999D01*
X70112047Y-60646800D01*
X70113350Y-60640672D01*
X70150167Y-60554771D01*
X70185886Y-60468538D01*
X70189534Y-60462920D01*
X70194546Y-60451227D01*
X70244610Y-60378111D01*
X70291090Y-60306537D01*
X70300166Y-60296973D01*
X70310992Y-60281162D01*
X70370082Y-60223296D01*
X70424053Y-60166423D01*
X70439964Y-60154863D01*
X70458253Y-60136953D01*
X70522313Y-60095033D01*
X70580323Y-60052887D01*
X70603918Y-60041633D01*
X70630720Y-60024094D01*
X70695896Y-59997761D01*
X70754666Y-59969729D01*
X70786171Y-59961287D01*
X70821823Y-59946883D01*
X70884682Y-59934892D01*
X70941249Y-59919735D01*
X70980210Y-59916669D01*
X71024284Y-59908261D01*
X71081923Y-59908663D01*
X71133819Y-59904579D01*
X71179139Y-59909342D01*
G37*
G36*
X67059899Y-59911959D02*
G01*
X67076769Y-59923231D01*
X67088041Y-59940101D01*
X67094448Y-59972312D01*
X67094448Y-61947688D01*
X67091999Y-61960000D01*
X67088041Y-61979899D01*
X67076769Y-61996769D01*
X67059899Y-62008041D01*
X67040000Y-62011999D01*
X67027688Y-62014448D01*
X65052312Y-62014448D01*
X65020101Y-62008041D01*
X65003231Y-61996769D01*
X64991959Y-61979899D01*
X64985552Y-61947688D01*
X64985552Y-59972312D01*
X64991959Y-59940101D01*
X65003231Y-59923231D01*
X65020101Y-59911959D01*
X65052312Y-59905552D01*
X67027688Y-59905552D01*
X67059899Y-59911959D01*
G37*
G36*
X81339139Y-58639342D02*
G01*
X81390391Y-58639700D01*
X81440592Y-58650005D01*
X81485921Y-58654769D01*
X81535849Y-58669559D01*
X81592293Y-58681145D01*
X81633643Y-58698527D01*
X81671126Y-58709630D01*
X81723310Y-58736219D01*
X81782300Y-58761016D01*
X81814181Y-58782520D01*
X81843239Y-58797326D01*
X81894895Y-58836963D01*
X81953174Y-58876273D01*
X81975742Y-58898999D01*
X81996479Y-58914911D01*
X82044446Y-58968184D01*
X82098407Y-59022523D01*
X82112580Y-59043855D01*
X82125732Y-59058462D01*
X82166673Y-59125271D01*
X82212468Y-59194198D01*
X82219774Y-59211924D01*
X82226659Y-59223159D01*
X82257227Y-59302791D01*
X82291011Y-59384758D01*
X82293483Y-59397242D01*
X82295882Y-59403492D01*
X82312877Y-59495190D01*
X82331045Y-59586944D01*
X82327757Y-59822363D01*
X82324353Y-59837347D01*
X82324203Y-59843066D01*
X82302784Y-59932285D01*
X82282094Y-60023352D01*
X82279548Y-60029071D01*
X82279497Y-60029282D01*
X82200930Y-60205745D01*
X82200810Y-60205919D01*
X82198261Y-60211645D01*
X82144384Y-60288021D01*
X82091524Y-60364932D01*
X82086786Y-60369670D01*
X82079451Y-60380068D01*
X82015258Y-60441198D01*
X81954932Y-60501524D01*
X81944070Y-60508989D01*
X81930191Y-60522206D01*
X81860349Y-60566529D01*
X81795745Y-60610930D01*
X81777781Y-60618928D01*
X81756165Y-60632646D01*
X81684788Y-60660332D01*
X81619282Y-60689497D01*
X81593863Y-60695599D01*
X81564002Y-60707182D01*
X81494772Y-60719389D01*
X81431462Y-60734588D01*
X81398890Y-60736295D01*
X81361022Y-60742972D01*
X81297047Y-60741632D01*
X81238562Y-60744697D01*
X81199812Y-60739596D01*
X81154955Y-60738656D01*
X81098658Y-60726278D01*
X81047049Y-60719484D01*
X81003715Y-60705404D01*
X80953652Y-60694397D01*
X80906680Y-60673875D01*
X80863342Y-60659794D01*
X80817590Y-60634953D01*
X80764779Y-60611880D01*
X80727942Y-60586278D01*
X80693588Y-60567625D01*
X80648070Y-60530765D01*
X80595530Y-60494249D01*
X80568819Y-60466589D01*
X80543479Y-60446069D01*
X80501204Y-60396572D01*
X80452353Y-60345985D01*
X80434997Y-60319054D01*
X80418024Y-60299181D01*
X80382176Y-60237092D01*
X80340701Y-60172734D01*
X80331277Y-60148932D01*
X80321443Y-60131899D01*
X80295273Y-60057997D01*
X80264826Y-59981096D01*
X80261366Y-59962245D01*
X80256966Y-59949819D01*
X80243619Y-59865547D01*
X80227619Y-59778371D01*
X80227797Y-59765649D01*
X80226749Y-59759034D01*
X80229192Y-59665694D01*
X80230497Y-59572279D01*
X80231798Y-59566157D01*
X80231804Y-59565936D01*
X80271965Y-59376999D01*
X80272047Y-59376800D01*
X80273350Y-59370672D01*
X80310167Y-59284771D01*
X80345886Y-59198538D01*
X80349534Y-59192920D01*
X80354546Y-59181227D01*
X80404610Y-59108111D01*
X80451090Y-59036537D01*
X80460166Y-59026973D01*
X80470992Y-59011162D01*
X80530082Y-58953296D01*
X80584053Y-58896423D01*
X80599964Y-58884863D01*
X80618253Y-58866953D01*
X80682313Y-58825033D01*
X80740323Y-58782887D01*
X80763918Y-58771633D01*
X80790720Y-58754094D01*
X80855896Y-58727761D01*
X80914666Y-58699729D01*
X80946171Y-58691287D01*
X80981823Y-58676883D01*
X81044682Y-58664892D01*
X81101249Y-58649735D01*
X81140210Y-58646669D01*
X81184284Y-58638261D01*
X81241923Y-58638663D01*
X81293819Y-58634579D01*
X81339139Y-58639342D01*
G37*
G36*
X73719139Y-58639342D02*
G01*
X73770391Y-58639700D01*
X73820592Y-58650005D01*
X73865921Y-58654769D01*
X73915849Y-58669559D01*
X73972293Y-58681145D01*
X74013643Y-58698527D01*
X74051126Y-58709630D01*
X74103310Y-58736219D01*
X74162300Y-58761016D01*
X74194181Y-58782520D01*
X74223239Y-58797326D01*
X74274895Y-58836963D01*
X74333174Y-58876273D01*
X74355742Y-58898999D01*
X74376479Y-58914911D01*
X74424446Y-58968184D01*
X74478407Y-59022523D01*
X74492580Y-59043855D01*
X74505732Y-59058462D01*
X74546673Y-59125271D01*
X74592468Y-59194198D01*
X74599774Y-59211924D01*
X74606659Y-59223159D01*
X74637227Y-59302791D01*
X74671011Y-59384758D01*
X74673483Y-59397242D01*
X74675882Y-59403492D01*
X74692877Y-59495190D01*
X74711045Y-59586944D01*
X74707757Y-59822363D01*
X74704353Y-59837347D01*
X74704203Y-59843066D01*
X74682784Y-59932285D01*
X74662094Y-60023352D01*
X74659548Y-60029071D01*
X74659497Y-60029282D01*
X74580930Y-60205745D01*
X74580810Y-60205919D01*
X74578261Y-60211645D01*
X74524384Y-60288021D01*
X74471524Y-60364932D01*
X74466786Y-60369670D01*
X74459451Y-60380068D01*
X74395258Y-60441198D01*
X74334932Y-60501524D01*
X74324070Y-60508989D01*
X74310191Y-60522206D01*
X74240349Y-60566529D01*
X74175745Y-60610930D01*
X74157781Y-60618928D01*
X74136165Y-60632646D01*
X74064788Y-60660332D01*
X73999282Y-60689497D01*
X73973863Y-60695599D01*
X73944002Y-60707182D01*
X73874772Y-60719389D01*
X73811462Y-60734588D01*
X73778890Y-60736295D01*
X73741022Y-60742972D01*
X73677047Y-60741632D01*
X73618562Y-60744697D01*
X73579812Y-60739596D01*
X73534955Y-60738656D01*
X73478658Y-60726278D01*
X73427049Y-60719484D01*
X73383715Y-60705404D01*
X73333652Y-60694397D01*
X73286680Y-60673875D01*
X73243342Y-60659794D01*
X73197590Y-60634953D01*
X73144779Y-60611880D01*
X73107942Y-60586278D01*
X73073588Y-60567625D01*
X73028070Y-60530765D01*
X72975530Y-60494249D01*
X72948819Y-60466589D01*
X72923479Y-60446069D01*
X72881204Y-60396572D01*
X72832353Y-60345985D01*
X72814997Y-60319054D01*
X72798024Y-60299181D01*
X72762176Y-60237092D01*
X72720701Y-60172734D01*
X72711277Y-60148932D01*
X72701443Y-60131899D01*
X72675273Y-60057997D01*
X72644826Y-59981096D01*
X72641366Y-59962245D01*
X72636966Y-59949819D01*
X72623619Y-59865547D01*
X72607619Y-59778371D01*
X72607797Y-59765649D01*
X72606749Y-59759034D01*
X72609192Y-59665694D01*
X72610497Y-59572279D01*
X72611798Y-59566157D01*
X72611804Y-59565936D01*
X72651965Y-59376999D01*
X72652047Y-59376800D01*
X72653350Y-59370672D01*
X72690167Y-59284771D01*
X72725886Y-59198538D01*
X72729534Y-59192920D01*
X72734546Y-59181227D01*
X72784610Y-59108111D01*
X72831090Y-59036537D01*
X72840166Y-59026973D01*
X72850992Y-59011162D01*
X72910082Y-58953296D01*
X72964053Y-58896423D01*
X72979964Y-58884863D01*
X72998253Y-58866953D01*
X73062313Y-58825033D01*
X73120323Y-58782887D01*
X73143918Y-58771633D01*
X73170720Y-58754094D01*
X73235896Y-58727761D01*
X73294666Y-58699729D01*
X73326171Y-58691287D01*
X73361823Y-58676883D01*
X73424682Y-58664892D01*
X73481249Y-58649735D01*
X73520210Y-58646669D01*
X73564284Y-58638261D01*
X73621923Y-58638663D01*
X73673819Y-58634579D01*
X73719139Y-58639342D01*
G37*
G36*
X71179139Y-57369342D02*
G01*
X71230391Y-57369700D01*
X71280592Y-57380005D01*
X71325921Y-57384769D01*
X71375849Y-57399559D01*
X71432293Y-57411145D01*
X71473643Y-57428527D01*
X71511126Y-57439630D01*
X71563310Y-57466219D01*
X71622300Y-57491016D01*
X71654181Y-57512520D01*
X71683239Y-57527326D01*
X71734895Y-57566963D01*
X71793174Y-57606273D01*
X71815742Y-57628999D01*
X71836479Y-57644911D01*
X71884446Y-57698184D01*
X71938407Y-57752523D01*
X71952580Y-57773855D01*
X71965732Y-57788462D01*
X72006673Y-57855271D01*
X72052468Y-57924198D01*
X72059774Y-57941924D01*
X72066659Y-57953159D01*
X72097227Y-58032791D01*
X72131011Y-58114758D01*
X72133483Y-58127242D01*
X72135882Y-58133492D01*
X72152877Y-58225190D01*
X72171045Y-58316944D01*
X72167757Y-58552363D01*
X72164353Y-58567347D01*
X72164203Y-58573066D01*
X72142784Y-58662285D01*
X72122094Y-58753352D01*
X72119548Y-58759071D01*
X72119497Y-58759282D01*
X72040930Y-58935745D01*
X72040810Y-58935919D01*
X72038261Y-58941645D01*
X71984384Y-59018021D01*
X71931524Y-59094932D01*
X71926786Y-59099670D01*
X71919451Y-59110068D01*
X71855258Y-59171198D01*
X71794932Y-59231524D01*
X71784070Y-59238989D01*
X71770191Y-59252206D01*
X71700349Y-59296529D01*
X71635745Y-59340930D01*
X71617781Y-59348928D01*
X71596165Y-59362646D01*
X71524788Y-59390332D01*
X71459282Y-59419497D01*
X71433863Y-59425599D01*
X71404002Y-59437182D01*
X71334772Y-59449389D01*
X71271462Y-59464588D01*
X71238890Y-59466295D01*
X71201022Y-59472972D01*
X71137047Y-59471632D01*
X71078562Y-59474697D01*
X71039812Y-59469596D01*
X70994955Y-59468656D01*
X70938658Y-59456278D01*
X70887049Y-59449484D01*
X70843715Y-59435404D01*
X70793652Y-59424397D01*
X70746680Y-59403875D01*
X70703342Y-59389794D01*
X70657590Y-59364953D01*
X70604779Y-59341880D01*
X70567942Y-59316278D01*
X70533588Y-59297625D01*
X70488070Y-59260765D01*
X70435530Y-59224249D01*
X70408819Y-59196589D01*
X70383479Y-59176069D01*
X70341204Y-59126572D01*
X70292353Y-59075985D01*
X70274997Y-59049054D01*
X70258024Y-59029181D01*
X70222176Y-58967092D01*
X70180701Y-58902734D01*
X70171277Y-58878932D01*
X70161443Y-58861899D01*
X70135273Y-58787997D01*
X70104826Y-58711096D01*
X70101366Y-58692245D01*
X70096966Y-58679819D01*
X70083619Y-58595547D01*
X70067619Y-58508371D01*
X70067797Y-58495649D01*
X70066749Y-58489034D01*
X70069192Y-58395694D01*
X70070497Y-58302279D01*
X70071798Y-58296157D01*
X70071804Y-58295936D01*
X70111965Y-58106999D01*
X70112047Y-58106800D01*
X70113350Y-58100672D01*
X70150167Y-58014771D01*
X70185886Y-57928538D01*
X70189534Y-57922920D01*
X70194546Y-57911227D01*
X70244610Y-57838111D01*
X70291090Y-57766537D01*
X70300166Y-57756973D01*
X70310992Y-57741162D01*
X70370082Y-57683296D01*
X70424053Y-57626423D01*
X70439964Y-57614863D01*
X70458253Y-57596953D01*
X70522313Y-57555033D01*
X70580323Y-57512887D01*
X70603918Y-57501633D01*
X70630720Y-57484094D01*
X70695896Y-57457761D01*
X70754666Y-57429729D01*
X70786171Y-57421287D01*
X70821823Y-57406883D01*
X70884682Y-57394892D01*
X70941249Y-57379735D01*
X70980210Y-57376669D01*
X71024284Y-57368261D01*
X71081923Y-57368663D01*
X71133819Y-57364579D01*
X71179139Y-57369342D01*
G37*
G36*
X67059899Y-57371959D02*
G01*
X67076769Y-57383231D01*
X67088041Y-57400101D01*
X67094448Y-57432312D01*
X67094448Y-59407688D01*
X67091999Y-59420000D01*
X67088041Y-59439899D01*
X67076769Y-59456769D01*
X67059899Y-59468041D01*
X67040000Y-59471999D01*
X67027688Y-59474448D01*
X65052312Y-59474448D01*
X65020101Y-59468041D01*
X65003231Y-59456769D01*
X64991959Y-59439899D01*
X64985552Y-59407688D01*
X64985552Y-57432312D01*
X64991959Y-57400101D01*
X65003231Y-57383231D01*
X65020101Y-57371959D01*
X65052312Y-57365552D01*
X67027688Y-57365552D01*
X67059899Y-57371959D01*
G37*
G36*
X81339139Y-56099342D02*
G01*
X81390391Y-56099700D01*
X81440592Y-56110005D01*
X81485921Y-56114769D01*
X81535849Y-56129559D01*
X81592293Y-56141145D01*
X81633643Y-56158527D01*
X81671126Y-56169630D01*
X81723310Y-56196219D01*
X81782300Y-56221016D01*
X81814181Y-56242520D01*
X81843239Y-56257326D01*
X81894895Y-56296963D01*
X81953174Y-56336273D01*
X81975742Y-56358999D01*
X81996479Y-56374911D01*
X82044446Y-56428184D01*
X82098407Y-56482523D01*
X82112580Y-56503855D01*
X82125732Y-56518462D01*
X82166673Y-56585271D01*
X82212468Y-56654198D01*
X82219774Y-56671924D01*
X82226659Y-56683159D01*
X82257227Y-56762791D01*
X82291011Y-56844758D01*
X82293483Y-56857242D01*
X82295882Y-56863492D01*
X82312877Y-56955190D01*
X82331045Y-57046944D01*
X82327757Y-57282363D01*
X82324353Y-57297347D01*
X82324203Y-57303066D01*
X82302784Y-57392285D01*
X82282094Y-57483352D01*
X82279548Y-57489071D01*
X82279497Y-57489282D01*
X82200930Y-57665745D01*
X82200810Y-57665919D01*
X82198261Y-57671645D01*
X82144384Y-57748021D01*
X82091524Y-57824932D01*
X82086786Y-57829670D01*
X82079451Y-57840068D01*
X82015258Y-57901198D01*
X81954932Y-57961524D01*
X81944070Y-57968989D01*
X81930191Y-57982206D01*
X81860349Y-58026529D01*
X81795745Y-58070930D01*
X81777781Y-58078928D01*
X81756165Y-58092646D01*
X81684788Y-58120332D01*
X81619282Y-58149497D01*
X81593863Y-58155599D01*
X81564002Y-58167182D01*
X81494772Y-58179389D01*
X81431462Y-58194588D01*
X81398890Y-58196295D01*
X81361022Y-58202972D01*
X81297047Y-58201632D01*
X81238562Y-58204697D01*
X81199812Y-58199596D01*
X81154955Y-58198656D01*
X81098658Y-58186278D01*
X81047049Y-58179484D01*
X81003715Y-58165404D01*
X80953652Y-58154397D01*
X80906680Y-58133875D01*
X80863342Y-58119794D01*
X80817590Y-58094953D01*
X80764779Y-58071880D01*
X80727942Y-58046278D01*
X80693588Y-58027625D01*
X80648070Y-57990765D01*
X80595530Y-57954249D01*
X80568819Y-57926589D01*
X80543479Y-57906069D01*
X80501204Y-57856572D01*
X80452353Y-57805985D01*
X80434997Y-57779054D01*
X80418024Y-57759181D01*
X80382176Y-57697092D01*
X80340701Y-57632734D01*
X80331277Y-57608932D01*
X80321443Y-57591899D01*
X80295273Y-57517997D01*
X80264826Y-57441096D01*
X80261366Y-57422245D01*
X80256966Y-57409819D01*
X80243619Y-57325547D01*
X80227619Y-57238371D01*
X80227797Y-57225649D01*
X80226749Y-57219034D01*
X80229192Y-57125694D01*
X80230497Y-57032279D01*
X80231798Y-57026157D01*
X80231804Y-57025936D01*
X80271965Y-56836999D01*
X80272047Y-56836800D01*
X80273350Y-56830672D01*
X80310167Y-56744771D01*
X80345886Y-56658538D01*
X80349534Y-56652920D01*
X80354546Y-56641227D01*
X80404610Y-56568111D01*
X80451090Y-56496537D01*
X80460166Y-56486973D01*
X80470992Y-56471162D01*
X80530082Y-56413296D01*
X80584053Y-56356423D01*
X80599964Y-56344863D01*
X80618253Y-56326953D01*
X80682313Y-56285033D01*
X80740323Y-56242887D01*
X80763918Y-56231633D01*
X80790720Y-56214094D01*
X80855896Y-56187761D01*
X80914666Y-56159729D01*
X80946171Y-56151287D01*
X80981823Y-56136883D01*
X81044682Y-56124892D01*
X81101249Y-56109735D01*
X81140210Y-56106669D01*
X81184284Y-56098261D01*
X81241923Y-56098663D01*
X81293819Y-56094579D01*
X81339139Y-56099342D01*
G37*
G36*
X73719139Y-56099342D02*
G01*
X73770391Y-56099700D01*
X73820592Y-56110005D01*
X73865921Y-56114769D01*
X73915849Y-56129559D01*
X73972293Y-56141145D01*
X74013643Y-56158527D01*
X74051126Y-56169630D01*
X74103310Y-56196219D01*
X74162300Y-56221016D01*
X74194181Y-56242520D01*
X74223239Y-56257326D01*
X74274895Y-56296963D01*
X74333174Y-56336273D01*
X74355742Y-56358999D01*
X74376479Y-56374911D01*
X74424446Y-56428184D01*
X74478407Y-56482523D01*
X74492580Y-56503855D01*
X74505732Y-56518462D01*
X74546673Y-56585271D01*
X74592468Y-56654198D01*
X74599774Y-56671924D01*
X74606659Y-56683159D01*
X74637227Y-56762791D01*
X74671011Y-56844758D01*
X74673483Y-56857242D01*
X74675882Y-56863492D01*
X74692877Y-56955190D01*
X74711045Y-57046944D01*
X74707757Y-57282363D01*
X74704353Y-57297347D01*
X74704203Y-57303066D01*
X74682784Y-57392285D01*
X74662094Y-57483352D01*
X74659548Y-57489071D01*
X74659497Y-57489282D01*
X74580930Y-57665745D01*
X74580810Y-57665919D01*
X74578261Y-57671645D01*
X74524384Y-57748021D01*
X74471524Y-57824932D01*
X74466786Y-57829670D01*
X74459451Y-57840068D01*
X74395258Y-57901198D01*
X74334932Y-57961524D01*
X74324070Y-57968989D01*
X74310191Y-57982206D01*
X74240349Y-58026529D01*
X74175745Y-58070930D01*
X74157781Y-58078928D01*
X74136165Y-58092646D01*
X74064788Y-58120332D01*
X73999282Y-58149497D01*
X73973863Y-58155599D01*
X73944002Y-58167182D01*
X73874772Y-58179389D01*
X73811462Y-58194588D01*
X73778890Y-58196295D01*
X73741022Y-58202972D01*
X73677047Y-58201632D01*
X73618562Y-58204697D01*
X73579812Y-58199596D01*
X73534955Y-58198656D01*
X73478658Y-58186278D01*
X73427049Y-58179484D01*
X73383715Y-58165404D01*
X73333652Y-58154397D01*
X73286680Y-58133875D01*
X73243342Y-58119794D01*
X73197590Y-58094953D01*
X73144779Y-58071880D01*
X73107942Y-58046278D01*
X73073588Y-58027625D01*
X73028070Y-57990765D01*
X72975530Y-57954249D01*
X72948819Y-57926589D01*
X72923479Y-57906069D01*
X72881204Y-57856572D01*
X72832353Y-57805985D01*
X72814997Y-57779054D01*
X72798024Y-57759181D01*
X72762176Y-57697092D01*
X72720701Y-57632734D01*
X72711277Y-57608932D01*
X72701443Y-57591899D01*
X72675273Y-57517997D01*
X72644826Y-57441096D01*
X72641366Y-57422245D01*
X72636966Y-57409819D01*
X72623619Y-57325547D01*
X72607619Y-57238371D01*
X72607797Y-57225649D01*
X72606749Y-57219034D01*
X72609192Y-57125694D01*
X72610497Y-57032279D01*
X72611798Y-57026157D01*
X72611804Y-57025936D01*
X72651965Y-56836999D01*
X72652047Y-56836800D01*
X72653350Y-56830672D01*
X72690167Y-56744771D01*
X72725886Y-56658538D01*
X72729534Y-56652920D01*
X72734546Y-56641227D01*
X72784610Y-56568111D01*
X72831090Y-56496537D01*
X72840166Y-56486973D01*
X72850992Y-56471162D01*
X72910082Y-56413296D01*
X72964053Y-56356423D01*
X72979964Y-56344863D01*
X72998253Y-56326953D01*
X73062313Y-56285033D01*
X73120323Y-56242887D01*
X73143918Y-56231633D01*
X73170720Y-56214094D01*
X73235896Y-56187761D01*
X73294666Y-56159729D01*
X73326171Y-56151287D01*
X73361823Y-56136883D01*
X73424682Y-56124892D01*
X73481249Y-56109735D01*
X73520210Y-56106669D01*
X73564284Y-56098261D01*
X73621923Y-56098663D01*
X73673819Y-56094579D01*
X73719139Y-56099342D01*
G37*
G36*
X64485099Y-54866759D02*
G01*
X64501969Y-54878031D01*
X64513241Y-54894901D01*
X64519648Y-54927112D01*
X64519648Y-56832888D01*
X64517199Y-56845200D01*
X64513241Y-56865099D01*
X64501969Y-56881969D01*
X64485099Y-56893241D01*
X64465200Y-56897199D01*
X64452888Y-56899648D01*
X62547112Y-56899648D01*
X62514901Y-56893241D01*
X62498031Y-56881969D01*
X62486759Y-56865099D01*
X62480352Y-56832888D01*
X62480352Y-54927112D01*
X62486759Y-54894901D01*
X62498031Y-54878031D01*
X62514901Y-54866759D01*
X62547112Y-54860352D01*
X64452888Y-54860352D01*
X64485099Y-54866759D01*
G37*
G36*
X80067197Y-52324132D02*
G01*
X80116736Y-52324478D01*
X80165264Y-52334439D01*
X80209103Y-52339047D01*
X80257383Y-52353349D01*
X80311952Y-52364550D01*
X80351931Y-52381356D01*
X80388175Y-52392092D01*
X80438645Y-52417807D01*
X80495667Y-52441777D01*
X80526477Y-52462559D01*
X80554587Y-52476881D01*
X80604549Y-52515219D01*
X80660884Y-52553217D01*
X80682704Y-52575190D01*
X80702758Y-52590578D01*
X80749151Y-52642103D01*
X80801308Y-52694625D01*
X80815005Y-52715241D01*
X80827729Y-52729372D01*
X80867336Y-52794005D01*
X80911592Y-52860615D01*
X80918653Y-52877746D01*
X80925314Y-52888616D01*
X80954889Y-52965663D01*
X80987534Y-53044865D01*
X80989923Y-53056928D01*
X80992245Y-53062978D01*
X81008698Y-53151749D01*
X81026243Y-53240357D01*
X81023064Y-53467980D01*
X81019761Y-53482519D01*
X81019616Y-53488049D01*
X80998907Y-53574308D01*
X80978912Y-53662314D01*
X80976451Y-53667842D01*
X80976401Y-53668049D01*
X80900437Y-53838668D01*
X80900317Y-53838843D01*
X80897855Y-53844372D01*
X80845805Y-53918158D01*
X80794653Y-53992584D01*
X80790071Y-53997166D01*
X80782980Y-54007218D01*
X80720923Y-54066314D01*
X80662584Y-54124653D01*
X80652080Y-54131872D01*
X80638662Y-54144650D01*
X80571141Y-54187500D01*
X80508668Y-54230437D01*
X80491297Y-54238171D01*
X80470398Y-54251434D01*
X80401382Y-54278204D01*
X80338049Y-54306401D01*
X80313472Y-54312302D01*
X80284598Y-54323501D01*
X80217664Y-54335303D01*
X80156445Y-54350001D01*
X80124950Y-54351651D01*
X80088339Y-54358107D01*
X80026488Y-54356811D01*
X79969933Y-54359775D01*
X79932458Y-54354841D01*
X79889096Y-54353933D01*
X79834679Y-54341969D01*
X79784762Y-54335397D01*
X79742848Y-54321778D01*
X79694458Y-54311139D01*
X79649055Y-54291303D01*
X79607140Y-54277684D01*
X79562893Y-54253660D01*
X79511839Y-54231355D01*
X79476227Y-54206604D01*
X79443007Y-54188567D01*
X79398994Y-54152926D01*
X79348194Y-54117619D01*
X79322368Y-54090875D01*
X79297860Y-54071029D01*
X79256975Y-54023159D01*
X79209758Y-53974264D01*
X79192982Y-53948232D01*
X79176567Y-53929013D01*
X79141900Y-53868969D01*
X79101803Y-53806750D01*
X79092692Y-53783739D01*
X79083182Y-53767267D01*
X79057876Y-53695805D01*
X79028440Y-53621458D01*
X79025095Y-53603231D01*
X79020840Y-53591216D01*
X79007932Y-53509717D01*
X78992465Y-53425445D01*
X78992637Y-53413148D01*
X78991623Y-53406748D01*
X78993987Y-53316435D01*
X78995248Y-53226177D01*
X78996505Y-53220262D01*
X78996511Y-53220045D01*
X79035342Y-53037362D01*
X79035424Y-53037165D01*
X79036682Y-53031245D01*
X79072251Y-52948255D01*
X79106814Y-52864814D01*
X79110344Y-52859378D01*
X79115189Y-52848074D01*
X79163591Y-52777385D01*
X79208538Y-52708172D01*
X79217314Y-52698924D01*
X79227780Y-52683639D01*
X79284899Y-52627704D01*
X79337097Y-52572699D01*
X79352487Y-52561518D01*
X79370165Y-52544206D01*
X79432087Y-52503685D01*
X79488190Y-52462924D01*
X79511007Y-52452041D01*
X79536921Y-52435083D01*
X79599935Y-52409624D01*
X79656765Y-52382517D01*
X79687233Y-52374353D01*
X79721697Y-52360429D01*
X79782456Y-52348839D01*
X79837168Y-52334179D01*
X79874856Y-52331213D01*
X79917454Y-52323087D01*
X79973162Y-52323476D01*
X80023362Y-52319525D01*
X80067197Y-52324132D01*
G37*
G36*
X63557197Y-52324132D02*
G01*
X63606736Y-52324478D01*
X63655264Y-52334439D01*
X63699103Y-52339047D01*
X63747383Y-52353349D01*
X63801952Y-52364550D01*
X63841931Y-52381356D01*
X63878175Y-52392092D01*
X63928645Y-52417807D01*
X63985667Y-52441777D01*
X64016477Y-52462559D01*
X64044587Y-52476881D01*
X64094549Y-52515219D01*
X64150884Y-52553217D01*
X64172704Y-52575190D01*
X64192758Y-52590578D01*
X64239151Y-52642103D01*
X64291308Y-52694625D01*
X64305005Y-52715241D01*
X64317729Y-52729372D01*
X64357336Y-52794005D01*
X64401592Y-52860615D01*
X64408653Y-52877746D01*
X64415314Y-52888616D01*
X64444889Y-52965663D01*
X64477534Y-53044865D01*
X64479923Y-53056928D01*
X64482245Y-53062978D01*
X64498698Y-53151749D01*
X64516243Y-53240357D01*
X64513064Y-53467980D01*
X64509761Y-53482519D01*
X64509616Y-53488049D01*
X64488907Y-53574308D01*
X64468912Y-53662314D01*
X64466451Y-53667842D01*
X64466401Y-53668049D01*
X64390437Y-53838668D01*
X64390317Y-53838843D01*
X64387855Y-53844372D01*
X64335805Y-53918158D01*
X64284653Y-53992584D01*
X64280071Y-53997166D01*
X64272980Y-54007218D01*
X64210923Y-54066314D01*
X64152584Y-54124653D01*
X64142080Y-54131872D01*
X64128662Y-54144650D01*
X64061141Y-54187500D01*
X63998668Y-54230437D01*
X63981297Y-54238171D01*
X63960398Y-54251434D01*
X63891382Y-54278204D01*
X63828049Y-54306401D01*
X63803472Y-54312302D01*
X63774598Y-54323501D01*
X63707664Y-54335303D01*
X63646445Y-54350001D01*
X63614950Y-54351651D01*
X63578339Y-54358107D01*
X63516488Y-54356811D01*
X63459933Y-54359775D01*
X63422458Y-54354841D01*
X63379096Y-54353933D01*
X63324679Y-54341969D01*
X63274762Y-54335397D01*
X63232848Y-54321778D01*
X63184458Y-54311139D01*
X63139055Y-54291303D01*
X63097140Y-54277684D01*
X63052893Y-54253660D01*
X63001839Y-54231355D01*
X62966227Y-54206604D01*
X62933007Y-54188567D01*
X62888994Y-54152926D01*
X62838194Y-54117619D01*
X62812368Y-54090875D01*
X62787860Y-54071029D01*
X62746975Y-54023159D01*
X62699758Y-53974264D01*
X62682982Y-53948232D01*
X62666567Y-53929013D01*
X62631900Y-53868969D01*
X62591803Y-53806750D01*
X62582692Y-53783739D01*
X62573182Y-53767267D01*
X62547876Y-53695805D01*
X62518440Y-53621458D01*
X62515095Y-53603231D01*
X62510840Y-53591216D01*
X62497932Y-53509717D01*
X62482465Y-53425445D01*
X62482637Y-53413148D01*
X62481623Y-53406748D01*
X62483987Y-53316435D01*
X62485248Y-53226177D01*
X62486505Y-53220262D01*
X62486511Y-53220045D01*
X62525342Y-53037362D01*
X62525424Y-53037165D01*
X62526682Y-53031245D01*
X62562251Y-52948255D01*
X62596814Y-52864814D01*
X62600344Y-52859378D01*
X62605189Y-52848074D01*
X62653591Y-52777385D01*
X62698538Y-52708172D01*
X62707314Y-52698924D01*
X62717780Y-52683639D01*
X62774899Y-52627704D01*
X62827097Y-52572699D01*
X62842487Y-52561518D01*
X62860165Y-52544206D01*
X62922087Y-52503685D01*
X62978190Y-52462924D01*
X63001007Y-52452041D01*
X63026921Y-52435083D01*
X63089935Y-52409624D01*
X63146765Y-52382517D01*
X63177233Y-52374353D01*
X63211697Y-52360429D01*
X63272456Y-52348839D01*
X63327168Y-52334179D01*
X63364856Y-52331213D01*
X63407454Y-52323087D01*
X63463162Y-52323476D01*
X63513362Y-52319525D01*
X63557197Y-52324132D01*
G37*
G36*
X70542197Y-52324132D02*
G01*
X70591736Y-52324478D01*
X70640264Y-52334439D01*
X70684103Y-52339047D01*
X70732383Y-52353349D01*
X70786952Y-52364550D01*
X70826931Y-52381356D01*
X70863175Y-52392092D01*
X70913645Y-52417807D01*
X70970667Y-52441777D01*
X71001477Y-52462559D01*
X71029587Y-52476881D01*
X71079549Y-52515219D01*
X71135884Y-52553217D01*
X71157704Y-52575190D01*
X71177758Y-52590578D01*
X71224151Y-52642103D01*
X71276308Y-52694625D01*
X71290005Y-52715241D01*
X71302729Y-52729372D01*
X71342336Y-52794005D01*
X71386592Y-52860615D01*
X71393653Y-52877746D01*
X71400314Y-52888616D01*
X71429889Y-52965663D01*
X71462534Y-53044865D01*
X71464923Y-53056928D01*
X71467245Y-53062978D01*
X71483698Y-53151749D01*
X71501243Y-53240357D01*
X71498064Y-53467980D01*
X71494761Y-53482519D01*
X71494616Y-53488049D01*
X71473907Y-53574308D01*
X71453912Y-53662314D01*
X71451451Y-53667842D01*
X71451401Y-53668049D01*
X71375437Y-53838668D01*
X71375317Y-53838843D01*
X71372855Y-53844372D01*
X71320805Y-53918158D01*
X71269653Y-53992584D01*
X71265071Y-53997166D01*
X71257980Y-54007218D01*
X71195923Y-54066314D01*
X71137584Y-54124653D01*
X71127080Y-54131872D01*
X71113662Y-54144650D01*
X71046141Y-54187500D01*
X70983668Y-54230437D01*
X70966297Y-54238171D01*
X70945398Y-54251434D01*
X70876382Y-54278204D01*
X70813049Y-54306401D01*
X70788472Y-54312302D01*
X70759598Y-54323501D01*
X70692664Y-54335303D01*
X70631445Y-54350001D01*
X70599950Y-54351651D01*
X70563339Y-54358107D01*
X70501488Y-54356811D01*
X70444933Y-54359775D01*
X70407458Y-54354841D01*
X70364096Y-54353933D01*
X70309679Y-54341969D01*
X70259762Y-54335397D01*
X70217848Y-54321778D01*
X70169458Y-54311139D01*
X70124055Y-54291303D01*
X70082140Y-54277684D01*
X70037893Y-54253660D01*
X69986839Y-54231355D01*
X69951227Y-54206604D01*
X69918007Y-54188567D01*
X69873994Y-54152926D01*
X69823194Y-54117619D01*
X69797368Y-54090875D01*
X69772860Y-54071029D01*
X69731975Y-54023159D01*
X69684758Y-53974264D01*
X69667982Y-53948232D01*
X69651567Y-53929013D01*
X69616900Y-53868969D01*
X69576803Y-53806750D01*
X69567692Y-53783739D01*
X69558182Y-53767267D01*
X69532876Y-53695805D01*
X69503440Y-53621458D01*
X69500095Y-53603231D01*
X69495840Y-53591216D01*
X69482932Y-53509717D01*
X69467465Y-53425445D01*
X69467637Y-53413148D01*
X69466623Y-53406748D01*
X69468987Y-53316435D01*
X69470248Y-53226177D01*
X69471505Y-53220262D01*
X69471511Y-53220045D01*
X69510342Y-53037362D01*
X69510424Y-53037165D01*
X69511682Y-53031245D01*
X69547251Y-52948255D01*
X69581814Y-52864814D01*
X69585344Y-52859378D01*
X69590189Y-52848074D01*
X69638591Y-52777385D01*
X69683538Y-52708172D01*
X69692314Y-52698924D01*
X69702780Y-52683639D01*
X69759899Y-52627704D01*
X69812097Y-52572699D01*
X69827487Y-52561518D01*
X69845165Y-52544206D01*
X69907087Y-52503685D01*
X69963190Y-52462924D01*
X69986007Y-52452041D01*
X70011921Y-52435083D01*
X70074935Y-52409624D01*
X70131765Y-52382517D01*
X70162233Y-52374353D01*
X70196697Y-52360429D01*
X70257456Y-52348839D01*
X70312168Y-52334179D01*
X70349856Y-52331213D01*
X70392454Y-52323087D01*
X70448162Y-52323476D01*
X70498362Y-52319525D01*
X70542197Y-52324132D01*
G37*
G36*
X77527197Y-52324132D02*
G01*
X77576736Y-52324478D01*
X77625264Y-52334439D01*
X77669103Y-52339047D01*
X77717383Y-52353349D01*
X77771952Y-52364550D01*
X77811931Y-52381356D01*
X77848175Y-52392092D01*
X77898645Y-52417807D01*
X77955667Y-52441777D01*
X77986477Y-52462559D01*
X78014587Y-52476881D01*
X78064549Y-52515219D01*
X78120884Y-52553217D01*
X78142704Y-52575190D01*
X78162758Y-52590578D01*
X78209151Y-52642103D01*
X78261308Y-52694625D01*
X78275005Y-52715241D01*
X78287729Y-52729372D01*
X78327336Y-52794005D01*
X78371592Y-52860615D01*
X78378653Y-52877746D01*
X78385314Y-52888616D01*
X78414889Y-52965663D01*
X78447534Y-53044865D01*
X78449923Y-53056928D01*
X78452245Y-53062978D01*
X78468698Y-53151749D01*
X78486243Y-53240357D01*
X78483064Y-53467980D01*
X78479761Y-53482519D01*
X78479616Y-53488049D01*
X78458907Y-53574308D01*
X78438912Y-53662314D01*
X78436451Y-53667842D01*
X78436401Y-53668049D01*
X78360437Y-53838668D01*
X78360317Y-53838843D01*
X78357855Y-53844372D01*
X78305805Y-53918158D01*
X78254653Y-53992584D01*
X78250071Y-53997166D01*
X78242980Y-54007218D01*
X78180923Y-54066314D01*
X78122584Y-54124653D01*
X78112080Y-54131872D01*
X78098662Y-54144650D01*
X78031141Y-54187500D01*
X77968668Y-54230437D01*
X77951297Y-54238171D01*
X77930398Y-54251434D01*
X77861382Y-54278204D01*
X77798049Y-54306401D01*
X77773472Y-54312302D01*
X77744598Y-54323501D01*
X77677664Y-54335303D01*
X77616445Y-54350001D01*
X77584950Y-54351651D01*
X77548339Y-54358107D01*
X77486488Y-54356811D01*
X77429933Y-54359775D01*
X77392458Y-54354841D01*
X77349096Y-54353933D01*
X77294679Y-54341969D01*
X77244762Y-54335397D01*
X77202848Y-54321778D01*
X77154458Y-54311139D01*
X77109055Y-54291303D01*
X77067140Y-54277684D01*
X77022893Y-54253660D01*
X76971839Y-54231355D01*
X76936227Y-54206604D01*
X76903007Y-54188567D01*
X76858994Y-54152926D01*
X76808194Y-54117619D01*
X76782368Y-54090875D01*
X76757860Y-54071029D01*
X76716975Y-54023159D01*
X76669758Y-53974264D01*
X76652982Y-53948232D01*
X76636567Y-53929013D01*
X76601900Y-53868969D01*
X76561803Y-53806750D01*
X76552692Y-53783739D01*
X76543182Y-53767267D01*
X76517876Y-53695805D01*
X76488440Y-53621458D01*
X76485095Y-53603231D01*
X76480840Y-53591216D01*
X76467932Y-53509717D01*
X76452465Y-53425445D01*
X76452637Y-53413148D01*
X76451623Y-53406748D01*
X76453987Y-53316435D01*
X76455248Y-53226177D01*
X76456505Y-53220262D01*
X76456511Y-53220045D01*
X76495342Y-53037362D01*
X76495424Y-53037165D01*
X76496682Y-53031245D01*
X76532251Y-52948255D01*
X76566814Y-52864814D01*
X76570344Y-52859378D01*
X76575189Y-52848074D01*
X76623591Y-52777385D01*
X76668538Y-52708172D01*
X76677314Y-52698924D01*
X76687780Y-52683639D01*
X76744899Y-52627704D01*
X76797097Y-52572699D01*
X76812487Y-52561518D01*
X76830165Y-52544206D01*
X76892087Y-52503685D01*
X76948190Y-52462924D01*
X76971007Y-52452041D01*
X76996921Y-52435083D01*
X77059935Y-52409624D01*
X77116765Y-52382517D01*
X77147233Y-52374353D01*
X77181697Y-52360429D01*
X77242456Y-52348839D01*
X77297168Y-52334179D01*
X77334856Y-52331213D01*
X77377454Y-52323087D01*
X77433162Y-52323476D01*
X77483362Y-52319525D01*
X77527197Y-52324132D01*
G37*
G36*
X68930099Y-52326759D02*
G01*
X68946969Y-52338031D01*
X68958241Y-52354901D01*
X68964648Y-52387112D01*
X68964648Y-54292888D01*
X68962199Y-54305200D01*
X68958241Y-54325099D01*
X68946969Y-54341969D01*
X68930099Y-54353241D01*
X68910200Y-54357199D01*
X68897888Y-54359648D01*
X66992112Y-54359648D01*
X66959901Y-54353241D01*
X66943031Y-54341969D01*
X66931759Y-54325099D01*
X66925352Y-54292888D01*
X66925352Y-52387112D01*
X66931759Y-52354901D01*
X66943031Y-52338031D01*
X66959901Y-52326759D01*
X66992112Y-52320352D01*
X68897888Y-52320352D01*
X68930099Y-52326759D01*
G37*
G36*
X75915099Y-52326759D02*
G01*
X75931969Y-52338031D01*
X75943241Y-52354901D01*
X75949648Y-52387112D01*
X75949648Y-54292888D01*
X75947199Y-54305200D01*
X75943241Y-54325099D01*
X75931969Y-54341969D01*
X75915099Y-54353241D01*
X75895200Y-54357199D01*
X75882888Y-54359648D01*
X73977112Y-54359648D01*
X73944901Y-54353241D01*
X73928031Y-54341969D01*
X73916759Y-54325099D01*
X73910352Y-54292888D01*
X73910352Y-52387112D01*
X73916759Y-52354901D01*
X73928031Y-52338031D01*
X73944901Y-52326759D01*
X73977112Y-52320352D01*
X75882888Y-52320352D01*
X75915099Y-52326759D01*
G37*
M02*
